Angelica.ufo
<glyph name="quotedbl" format="2">
  <advance width="638"/>
  <unicode hex="0022"/>
  <outline>
    <contour>
      <point x="539" y="730" type="line"/>
      <point x="627" y="642" type="line"/>
      <point x="568" y="286" type="line"/>
      <point x="383" y="286" type="line"/>
      <point x="342" y="326" type="line"/>
      <point x="336" y="286" type="line"/>
      <point x="151" y="286" type="line"/>
      <point x="64" y="373" type="line"/>
      <point x="58" y="373" type="line"/>
      <point x="27" y="735" type="line"/>
      <point x="540" y="735" type="line"/>
    </contour>
    <contour>
      <point x="499" y="700" type="line"/>
      <point x="297" y="700" type="line"/>
      <point x="323" y="408" type="line"/>
      <point x="450" y="408" type="line"/>
    </contour>
    <contour>
      <point x="267" y="700" type="line"/>
      <point x="65" y="700" type="line"/>
      <point x="91" y="408" type="line"/>
      <point x="218" y="408" type="line"/>
    </contour>
  </outline>
</glyph>
<glyph name="numbersign" format="2">
  <advance width="760"/>
  <unicode hex="0023"/>
  <outline>
    <contour>
      <point x="564" y="609" type="line"/>
      <point x="651" y="522" type="line"/>
      <point x="639" y="469" type="line"/>
      <point x="646" y="469" type="line"/>
      <point x="645" y="463" type="line"/>
      <point x="732" y="376" type="line"/>
      <point x="699" y="220" type="line"/>
      <point x="674" y="220" type="line"/>
      <point x="694" y="200" type="line"/>
      <point x="662" y="44" type="line"/>
      <point x="550" y="44" type="line"/>
      <point x="543" y="12"/>
      <point x="527" y="-61"/>
      <point x="522" y="-89" type="qcurve"/>
      <point x="224" y="-89" type="line"/>
      <point x="137" y="-2" type="line"/>
      <point x="130" y="-2" type="line"/>
      <point x="139" y="44" type="line"/>
      <point x="117" y="44" type="line"/>
      <point x="30" y="131" type="line"/>
      <point x="23" y="131" type="line"/>
      <point x="56" y="293" type="line"/>
      <point x="81" y="293" type="line"/>
      <point x="67" y="307" type="line"/>
      <point x="60" y="307" type="line"/>
      <point x="94" y="469" type="line"/>
      <point x="228" y="469" type="line"/>
      <point x="259" y="615" type="line"/>
      <point x="565" y="615" type="line"/>
    </contour>
    <contour>
      <point x="522" y="580" type="line"/>
      <point x="430" y="580" type="line"/>
      <point x="399" y="434" type="line"/>
      <point x="349" y="434" type="line"/>
      <point x="380" y="580" type="line"/>
      <point x="288" y="580" type="line"/>
      <point x="257" y="434" type="line"/>
      <point x="123" y="434" type="line"/>
      <point x="103" y="342" type="line"/>
      <point x="238" y="342" type="line"/>
      <point x="220" y="258" type="line"/>
      <point x="85" y="258" type="line"/>
      <point x="66" y="166" type="line"/>
      <point x="200" y="166" type="line"/>
      <point x="172" y="33" type="line"/>
      <point x="264" y="33" type="line"/>
      <point x="292" y="166" type="line"/>
      <point x="342" y="166" type="line"/>
      <point x="314" y="33" type="line"/>
      <point x="406" y="33" type="line"/>
      <point x="434" y="166" type="line"/>
      <point x="546" y="166" type="line"/>
      <point x="565" y="258" type="line"/>
      <point x="454" y="258" type="line"/>
      <point x="472" y="342" type="line"/>
      <point x="583" y="342" type="line"/>
      <point x="603" y="434" type="line"/>
      <point x="491" y="434" type="line"/>
    </contour>
    <contour>
      <point x="312" y="258" type="line"/>
      <point x="330" y="342" type="line"/>
      <point x="380" y="342" type="line"/>
      <point x="362" y="258" type="line"/>
    </contour>
  </outline>
</glyph>
<glyph name="percent" format="2">
  <advance width="1571"/>
  <unicode hex="0025"/>
  <outline>
    <contour>
      <point x="1192" y="730" type="line"/>
      <point x="1189" y="724" type="line"/>
      <point x="1277" y="637" type="line"/>
      <point x="1202" y="476" type="line"/>
      <point x="1275" y="476" type="line" smooth="yes"/>
      <point x="1322" y="476"/>
      <point x="1400" y="433"/>
      <point x="1424" y="397" type="qcurve"/>
      <point x="1491" y="331" type="line" smooth="yes"/>
      <point x="1514" y="308"/>
      <point x="1541" y="246"/>
      <point x="1541" y="211" type="qcurve" smooth="yes"/>
      <point x="1541" y="45" type="line" smooth="yes"/>
      <point x="1541" y="10"/>
      <point x="1512" y="-51"/>
      <point x="1463" y="-96"/>
      <point x="1399" y="-122"/>
      <point x="1365" y="-122" type="qcurve" smooth="yes"/>
      <point x="1238" y="-122" type="line" smooth="yes"/>
      <point x="1200" y="-122"/>
      <point x="1136" y="-94"/>
      <point x="1112" y="-70" type="qcurve" smooth="yes"/>
      <point x="1046" y="-4" type="line"/>
      <point x="1019" y="13"/>
      <point x="1001" y="39" type="qcurve"/>
      <point x="927" y="-122" type="line"/>
      <point x="423" y="-122" type="line"/>
      <point x="336" y="-35" type="line"/>
      <point x="328" y="-35" type="line"/>
      <point x="405" y="132" type="line"/>
      <point x="290" y="132" type="line" smooth="yes"/>
      <point x="252" y="132"/>
      <point x="188" y="160"/>
      <point x="164" y="184" type="qcurve" smooth="yes"/>
      <point x="98" y="249" type="line"/>
      <point x="63" y="272"/>
      <point x="21" y="348"/>
      <point x="21" y="393" type="qcurve" smooth="yes"/>
      <point x="21" y="555" type="line" smooth="yes"/>
      <point x="21" y="591"/>
      <point x="49" y="655"/>
      <point x="98" y="703"/>
      <point x="163" y="730"/>
      <point x="200" y="730" type="qcurve" smooth="yes"/>
      <point x="327" y="730" type="line" smooth="yes"/>
      <point x="374" y="730"/>
      <point x="452" y="687"/>
      <point x="476" y="651" type="qcurve"/>
      <point x="543" y="585" type="line" smooth="yes"/>
      <point x="572" y="555"/>
      <point x="583" y="519" type="qcurve"/>
      <point x="681" y="730" type="line"/>
    </contour>
    <contour>
      <point x="1292" y="364" type="line"/>
      <point x="1313" y="359"/>
      <point x="1343" y="324"/>
      <point x="1343" y="301" type="qcurve" smooth="yes"/>
      <point x="1343" y="153" type="line" smooth="yes"/>
      <point x="1343" y="125"/>
      <point x="1318" y="83"/>
      <point x="1292" y="76" type="qcurve"/>
    </contour>
    <contour>
      <point x="1419" y="301" type="line" smooth="yes"/>
      <point x="1419" y="330"/>
      <point x="1396" y="381"/>
      <point x="1357" y="419"/>
      <point x="1305" y="441"/>
      <point x="1275" y="441" type="qcurve" smooth="yes"/>
      <point x="1148" y="441" type="line" smooth="yes"/>
      <point x="1118" y="441"/>
      <point x="1066" y="419"/>
      <point x="1027" y="381"/>
      <point x="1004" y="330"/>
      <point x="1004" y="301" type="qcurve" smooth="yes"/>
      <point x="1004" y="139" type="line" smooth="yes"/>
      <point x="1004" y="110"/>
      <point x="1027" y="59"/>
      <point x="1066" y="22"/>
      <point x="1118" y="0"/>
      <point x="1148" y="0" type="qcurve" smooth="yes"/>
      <point x="1275" y="0" type="line" smooth="yes"/>
      <point x="1303" y="0"/>
      <point x="1355" y="21"/>
      <point x="1395" y="58"/>
      <point x="1419" y="107"/>
      <point x="1419" y="135" type="qcurve" smooth="yes"/>
    </contour>
    <contour>
      <point x="344" y="618" type="line"/>
      <point x="365" y="613"/>
      <point x="395" y="578"/>
      <point x="395" y="555" type="qcurve" smooth="yes"/>
      <point x="395" y="407" type="line" smooth="yes"/>
      <point x="395" y="379"/>
      <point x="370" y="337"/>
      <point x="344" y="330" type="qcurve"/>
    </contour>
    <contour>
      <point x="471" y="555" type="line" smooth="yes"/>
      <point x="471" y="584"/>
      <point x="448" y="635"/>
      <point x="409" y="673"/>
      <point x="357" y="695"/>
      <point x="327" y="695" type="qcurve" smooth="yes"/>
      <point x="200" y="695" type="line" smooth="yes"/>
      <point x="170" y="695"/>
      <point x="118" y="673"/>
      <point x="79" y="635"/>
      <point x="56" y="584"/>
      <point x="56" y="555" type="qcurve" smooth="yes"/>
      <point x="56" y="393" type="line" smooth="yes"/>
      <point x="56" y="364"/>
      <point x="79" y="313"/>
      <point x="118" y="276"/>
      <point x="170" y="254"/>
      <point x="200" y="254" type="qcurve" smooth="yes"/>
      <point x="327" y="254" type="line" smooth="yes"/>
      <point x="355" y="254"/>
      <point x="407" y="275"/>
      <point x="447" y="312"/>
      <point x="471" y="361"/>
      <point x="471" y="389" type="qcurve" smooth="yes"/>
    </contour>
    <contour>
      <point x="703" y="695" type="line"/>
      <point x="383" y="0" type="line"/>
      <point x="817" y="0" type="line"/>
      <point x="1137" y="695" type="line"/>
    </contour>
  </outline>
</glyph>
<glyph name="ampersand" format="2">
  <advance width="869"/>
  <unicode hex="0026"/>
  <outline>
    <contour>
      <point x="125" y="10" type="line"/>
      <point x="78" y="44"/>
      <point x="24" y="149"/>
      <point x="24" y="212" type="qcurve" smooth="yes"/>
      <point x="24" y="267"/>
      <point x="67" y="356"/>
      <point x="105" y="389" type="qcurve"/>
      <point x="59" y="444"/>
      <point x="59" y="519" type="qcurve" smooth="yes"/>
      <point x="59" y="564"/>
      <point x="91" y="641"/>
      <point x="148" y="698"/>
      <point x="224" y="730"/>
      <point x="269" y="730" type="qcurve" smooth="yes"/>
      <point x="514" y="730" type="line" smooth="yes"/>
      <point x="562" y="730"/>
      <point x="641" y="687"/>
      <point x="669" y="650" type="qcurve"/>
      <point x="739" y="581" type="line" smooth="yes"/>
      <point x="771" y="549"/>
      <point x="809" y="457"/>
      <point x="812" y="403" type="qcurve"/>
      <point x="811" y="403" type="line"/>
      <point x="811" y="399" type="line"/>
      <point x="849" y="361" type="line"/>
      <point x="849" y="224" type="line"/>
      <point x="809" y="224" type="line"/>
      <point x="809" y="121" type="line" smooth="yes"/>
      <point x="809" y="70"/>
      <point x="772" y="-18"/>
      <point x="707" y="-84"/>
      <point x="618" y="-122"/>
      <point x="567" y="-122" type="qcurve" smooth="yes"/>
      <point x="359" y="-122" type="line" smooth="yes"/>
      <point x="308" y="-122"/>
      <point x="220" y="-84"/>
      <point x="188" y="-52" type="qcurve" smooth="yes"/>
    </contour>
    <contour>
      <point x="618" y="209" type="line" smooth="yes"/>
      <point x="618" y="180"/>
      <point x="596" y="129"/>
      <point x="559" y="92"/>
      <point x="507" y="70"/>
      <point x="477" y="70" type="qcurve"/>
      <point x="477" y="346" type="line"/>
      <point x="618" y="346" type="line"/>
    </contour>
    <contour>
      <point x="477" y="417" type="line"/>
      <point x="477" y="627" type="line"/>
      <point x="514" y="626" type="line"/>
      <point x="559" y="626"/>
      <point x="616" y="570"/>
      <point x="618" y="525" type="qcurve"/>
      <point x="688" y="525" type="line"/>
      <point x="686" y="561"/>
      <point x="659" y="623"/>
      <point x="613" y="669"/>
      <point x="551" y="695"/>
      <point x="514" y="695" type="qcurve" smooth="yes"/>
      <point x="269" y="695" type="line" smooth="yes"/>
      <point x="232" y="695"/>
      <point x="168" y="668"/>
      <point x="121" y="620"/>
      <point x="94" y="556"/>
      <point x="94" y="519" type="qcurve" smooth="yes"/>
      <point x="94" y="480"/>
      <point x="128" y="411"/>
      <point x="159" y="386" type="qcurve"/>
      <point x="111" y="357"/>
      <point x="59" y="269"/>
      <point x="59" y="212" type="qcurve" smooth="yes"/>
      <point x="59" y="168"/>
      <point x="91" y="91"/>
      <point x="148" y="33"/>
      <point x="224" y="0"/>
      <point x="269" y="0" type="qcurve" smooth="yes"/>
      <point x="477" y="0" type="line" smooth="yes"/>
      <point x="522" y="0"/>
      <point x="598" y="33"/>
      <point x="655" y="90"/>
      <point x="687" y="167"/>
      <point x="687" y="211" type="qcurve" smooth="yes"/>
      <point x="687" y="254" type="line"/>
      <point x="687" y="254"/>
      <point x="687" y="255" type="qcurve"/>
      <point x="687" y="269" type="line"/>
      <point x="687" y="270"/>
      <point x="687" y="270" type="qcurve"/>
      <point x="687" y="275" type="line"/>
      <point x="687" y="277"/>
      <point x="687" y="279" type="qcurve"/>
      <point x="687" y="284" type="line"/>
      <point x="687" y="285"/>
      <point x="687" y="286" type="qcurve"/>
      <point x="687" y="291" type="line" smooth="yes"/>
      <point x="687" y="314"/>
      <point x="688" y="346" type="qcurve"/>
      <point x="727" y="346" type="line"/>
      <point x="727" y="419" type="line"/>
      <point x="702" y="419" type="line"/>
      <point x="702" y="419"/>
      <point x="702" y="419" type="qcurve"/>
      <point x="701" y="419" type="line"/>
      <point x="701" y="419"/>
      <point x="701" y="419" type="qcurve"/>
      <point x="700" y="419"/>
      <point x="700" y="419" type="qcurve"/>
      <point x="699" y="419" type="line"/>
      <point x="699" y="419"/>
      <point x="699" y="419" type="qcurve"/>
      <point x="698" y="419"/>
      <point x="698" y="419" type="qcurve"/>
      <point x="698" y="419"/>
      <point x="698" y="419" type="qcurve"/>
      <point x="693" y="419"/>
      <point x="688" y="418" type="qcurve"/>
      <point x="689" y="423"/>
      <point x="689" y="429" type="qcurve"/>
      <point x="689" y="430" type="line"/>
      <point x="689" y="430"/>
      <point x="689" y="430" type="qcurve"/>
      <point x="689" y="434" type="line"/>
      <point x="689" y="434"/>
      <point x="689" y="434" type="qcurve"/>
      <point x="689" y="435"/>
      <point x="689" y="435" type="qcurve"/>
      <point x="689" y="436"/>
      <point x="689" y="436" type="qcurve"/>
      <point x="689" y="439" type="line"/>
      <point x="689" y="439"/>
      <point x="689" y="439" type="qcurve"/>
      <point x="689" y="461" type="line"/>
      <point x="618" y="461" type="line"/>
      <point x="618" y="418" type="line"/>
    </contour>
  </outline>
</glyph>
<glyph name="quotesingle" format="2">
  <advance width="409"/>
  <unicode hex="0027"/>
  <outline>
    <contour>
      <point x="298" y="730" type="line"/>
      <point x="386" y="642" type="line"/>
      <point x="327" y="286" type="line"/>
      <point x="142" y="286" type="line"/>
      <point x="55" y="373" type="line"/>
      <point x="49" y="373" type="line"/>
      <point x="18" y="735" type="line"/>
      <point x="299" y="735" type="line"/>
    </contour>
    <contour>
      <point x="258" y="700" type="line"/>
      <point x="56" y="700" type="line"/>
      <point x="82" y="408" type="line"/>
      <point x="209" y="408" type="line"/>
    </contour>
  </outline>
</glyph>
<glyph name="parenleft" format="2">
  <advance width="533"/>
  <unicode hex="0028"/>
  <outline>
    <contour>
      <point x="497" y="21" type="line"/>
      <point x="533" y="21" type="line"/>
      <point x="533" y="15" type="line"/>
      <point x="620" y="-72" type="line"/>
      <point x="620" y="-205" type="line"/>
      <point x="366" y="-205" type="line" smooth="yes"/>
      <point x="316" y="-205"/>
      <point x="229" y="-168"/>
      <point x="196" y="-135" type="qcurve" smooth="yes"/>
      <point x="132" y="-71" type="line"/>
      <point x="87" y="-38"/>
      <point x="33" y="63"/>
      <point x="33" y="125" type="qcurve" smooth="yes"/>
      <point x="33" y="591" type="line" smooth="yes"/>
      <point x="33" y="642"/>
      <point x="71" y="731"/>
      <point x="137" y="797"/>
      <point x="225" y="835"/>
      <point x="276" y="835" type="qcurve" smooth="yes"/>
      <point x="533" y="835" type="line"/>
      <point x="533" y="829" type="line"/>
      <point x="620" y="742" type="line"/>
      <point x="620" y="608" type="line"/>
      <point x="497" y="610" type="line"/>
    </contour>
    <contour>
      <point x="498" y="-83" type="line"/>
      <point x="498" y="-14" type="line"/>
      <point x="375" y="-14" type="line"/>
      <point x="375" y="732" type="line"/>
      <point x="498" y="730" type="line"/>
      <point x="498" y="800" type="line"/>
      <point x="276" y="800" type="line" smooth="yes"/>
      <point x="233" y="800"/>
      <point x="157" y="767"/>
      <point x="101" y="710"/>
      <point x="68" y="634"/>
      <point x="68" y="591" type="qcurve" smooth="yes"/>
      <point x="68" y="125" type="line" smooth="yes"/>
      <point x="68" y="81"/>
      <point x="101" y="6"/>
      <point x="158" y="-51"/>
      <point x="233" y="-83"/>
      <point x="276" y="-83" type="qcurve" smooth="yes"/>
    </contour>
  </outline>
</glyph>
<glyph name="parenright" format="2">
  <advance width="638"/>
  <unicode hex="0029"/>
  <outline>
    <contour>
      <point x="24" y="695" type="line"/>
      <point x="18" y="695" type="line"/>
      <point x="18" y="835" type="line"/>
      <point x="275" y="835" type="line" smooth="yes"/>
      <point x="336" y="835"/>
      <point x="439" y="780"/>
      <point x="472" y="733" type="qcurve"/>
      <point x="534" y="672" type="line" smooth="yes"/>
      <point x="567" y="639"/>
      <point x="605" y="552"/>
      <point x="605" y="501" type="qcurve" smooth="yes"/>
      <point x="605" y="35" type="line" smooth="yes"/>
      <point x="605" y="-15"/>
      <point x="567" y="-103"/>
      <point x="502" y="-168"/>
      <point x="414" y="-205"/>
      <point x="365" y="-205" type="qcurve" smooth="yes"/>
      <point x="111" y="-205" type="line"/>
      <point x="24" y="-118" type="line"/>
      <point x="18" y="-118" type="line"/>
      <point x="18" y="21" type="line"/>
      <point x="141" y="21" type="line"/>
      <point x="141" y="608" type="line"/>
      <point x="111" y="608" type="line"/>
    </contour>
    <contour>
      <point x="483" y="591" type="line" smooth="yes"/>
      <point x="483" y="634"/>
      <point x="450" y="710"/>
      <point x="394" y="767"/>
      <point x="318" y="800"/>
      <point x="275" y="800" type="qcurve" smooth="yes"/>
      <point x="53" y="800" type="line"/>
      <point x="53" y="730" type="line"/>
      <point x="176" y="732" type="line"/>
      <point x="176" y="-14" type="line"/>
      <point x="53" y="-14" type="line"/>
      <point x="53" y="-83" type="line"/>
      <point x="275" y="-83" type="line" smooth="yes"/>
      <point x="318" y="-83"/>
      <point x="393" y="-51"/>
      <point x="450" y="6"/>
      <point x="483" y="81"/>
      <point x="483" y="125" type="qcurve" smooth="yes"/>
    </contour>
  </outline>
</glyph>
<glyph name="asterisk" format="2">
  <advance width="668"/>
  <unicode hex="002A"/>
  <outline>
    <contour>
      <point x="534" y="279" type="line"/>
      <point x="568" y="252" type="line"/>
      <point x="566" y="250" type="line"/>
      <point x="654" y="162" type="line"/>
      <point x="546" y="28" type="line"/>
      <point x="469" y="90" type="line"/>
      <point x="469" y="7" type="line"/>
      <point x="297" y="7" type="line"/>
      <point x="251" y="53" type="line"/>
      <point x="219" y="30" type="line"/>
      <point x="131" y="118" type="line"/>
      <point x="129" y="116"/>
      <point x="128" y="116" type="qcurve"/>
      <point x="19" y="253" type="line"/>
      <point x="141" y="351" type="line"/>
      <point x="113" y="374" type="line"/>
      <point x="39" y="448" type="line"/>
      <point x="19" y="464" type="line"/>
      <point x="129" y="603" type="line"/>
      <point x="204" y="545" type="line"/>
      <point x="204" y="641" type="line"/>
      <point x="382" y="641" type="line"/>
      <point x="382" y="635" type="line"/>
      <point x="431" y="584" type="line"/>
      <point x="456" y="604" type="line"/>
      <point x="472" y="583" type="line"/>
      <point x="546" y="510" type="line"/>
      <point x="654" y="375" type="line"/>
    </contour>
    <contour>
      <point x="239" y="129" type="line"/>
      <point x="347" y="129" type="line"/>
      <point x="347" y="246" type="line"/>
      <point x="451" y="163" type="line"/>
      <point x="519" y="247" type="line"/>
      <point x="380" y="359" type="line"/>
      <point x="519" y="470" type="line"/>
      <point x="451" y="555" type="line"/>
      <point x="347" y="472" type="line"/>
      <point x="347" y="606" type="line"/>
      <point x="239" y="606" type="line"/>
      <point x="239" y="472" type="line"/>
      <point x="136" y="555" type="line"/>
      <point x="68" y="469" type="line"/>
      <point x="206" y="359" type="line"/>
      <point x="68" y="248" type="line"/>
      <point x="136" y="163" type="line"/>
      <point x="159" y="180"/>
      <point x="213" y="226"/>
      <point x="239" y="246" type="qcurve"/>
    </contour>
  </outline>
</glyph>
<glyph name="plus" format="2">
  <advance width="682"/>
  <unicode hex="002B"/>
  <outline>
    <contour>
      <point x="227" y="601" type="line"/>
      <point x="372" y="601" type="line"/>
      <point x="372" y="595" type="line"/>
      <point x="459" y="508" type="line"/>
      <point x="459" y="395" type="line"/>
      <point x="568" y="395" type="line"/>
      <point x="568" y="389" type="line"/>
      <point x="655" y="302" type="line"/>
      <point x="655" y="163" type="line"/>
      <point x="459" y="163" type="line"/>
      <point x="459" y="-35" type="line"/>
      <point x="320" y="-35" type="line"/>
      <point x="233" y="52" type="line"/>
      <point x="227" y="52" type="line"/>
      <point x="227" y="163" type="line"/>
      <point x="112" y="163" type="line"/>
      <point x="25" y="250" type="line"/>
      <point x="19" y="250" type="line"/>
      <point x="19" y="395" type="line"/>
      <point x="227" y="395" type="line"/>
    </contour>
    <contour>
      <point x="262" y="360" type="line"/>
      <point x="54" y="360" type="line"/>
      <point x="54" y="285" type="line"/>
      <point x="262" y="285" type="line"/>
      <point x="262" y="87" type="line"/>
      <point x="337" y="87" type="line"/>
      <point x="337" y="285" type="line"/>
      <point x="533" y="285" type="line"/>
      <point x="533" y="360" type="line"/>
      <point x="337" y="360" type="line"/>
      <point x="337" y="566" type="line"/>
      <point x="262" y="566" type="line"/>
    </contour>
  </outline>
</glyph>
<glyph name="comma" format="2">
  <advance width="327"/>
  <unicode hex="002C"/>
  <outline>
    <contour>
      <point x="28" y="127" type="line"/>
      <point x="206" y="127" type="line"/>
      <point x="206" y="121" type="line"/>
      <point x="293" y="34" type="line"/>
      <point x="293" y="-107" type="line"/>
      <point x="121" y="-213" type="line"/>
      <point x="33" y="-125" type="line"/>
      <point x="28" y="-129" type="line"/>
    </contour>
    <contour>
      <point x="63" y="-66" type="line"/>
      <point x="171" y="1" type="line"/>
      <point x="171" y="92" type="line"/>
      <point x="63" y="92" type="line"/>
    </contour>
  </outline>
</glyph>
<glyph name="hyphen" format="2">
  <advance width="552"/>
  <unicode hex="002D"/>
  <outline>
    <contour>
      <point x="431" y="435" type="line"/>
      <point x="518" y="348" type="line"/>
      <point x="518" y="202" type="line"/>
      <point x="122" y="202" type="line"/>
      <point x="35" y="289" type="line"/>
      <point x="29" y="289" type="line"/>
      <point x="29" y="441" type="line"/>
      <point x="431" y="441" type="line"/>
    </contour>
    <contour>
      <point x="396" y="406" type="line"/>
      <point x="64" y="406" type="line"/>
      <point x="64" y="324" type="line"/>
      <point x="396" y="324" type="line"/>
    </contour>
  </outline>
</glyph>
<glyph name="period" format="2">
  <advance width="177"/>
  <unicode hex="002E"/>
  <outline>
    <contour>
      <point x="179" y="139" type="line"/>
      <point x="266" y="52" type="line"/>
      <point x="266" y="-120" type="line"/>
      <point x="94" y="-120" type="line"/>
      <point x="7" y="-33" type="line"/>
      <point x="1" y="-33" type="line"/>
      <point x="1" y="145" type="line"/>
      <point x="179" y="145" type="line"/>
    </contour>
    <contour>
      <point x="144" y="110" type="line"/>
      <point x="36" y="110" type="line"/>
      <point x="36" y="2" type="line"/>
      <point x="144" y="2" type="line"/>
    </contour>
  </outline>
</glyph>
<glyph name="slash" format="2">
  <advance width="404"/>
  <unicode hex="002F"/>
  <outline>
    <contour>
      <point x="296" y="764" type="line"/>
      <point x="295" y="758" type="line"/>
      <point x="382" y="671" type="line"/>
      <point x="222" y="-168" type="line"/>
      <point x="100" y="-168" type="line"/>
      <point x="13" y="-81" type="line"/>
      <point x="6" y="-81" type="line"/>
      <point x="167" y="764" type="line"/>
    </contour>
    <contour>
      <point x="196" y="729" type="line"/>
      <point x="48" y="-46" type="line"/>
      <point x="106" y="-46" type="line"/>
      <point x="254" y="729" type="line"/>
    </contour>
  </outline>
</glyph>
<glyph name="less" format="2">
  <advance width="682"/>
  <unicode hex="003C"/>
  <outline>
    <contour>
      <point x="575" y="115" type="line"/>
      <point x="663" y="28" type="line"/>
      <point x="607" y="-110" type="line"/>
      <point x="120" y="201" type="line"/>
      <point x="41" y="280" type="line"/>
      <point x="27" y="289" type="line"/>
      <point x="27" y="410" type="line"/>
      <point x="518" y="724" type="line"/>
      <point x="522" y="714" type="line"/>
      <point x="607" y="629" type="line"/>
      <point x="662" y="490" type="line"/>
      <point x="329" y="277" type="line"/>
      <point x="351" y="264" type="line"/>
      <point x="577" y="120" type="line"/>
    </contour>
    <contour>
      <point x="533" y="106" type="line"/>
      <point x="150" y="349" type="line"/>
      <point x="533" y="593" type="line"/>
      <point x="501" y="671" type="line"/>
      <point x="62" y="391" type="line"/>
      <point x="62" y="308" type="line"/>
      <point x="501" y="28" type="line"/>
    </contour>
  </outline>
</glyph>
<glyph name="equal" format="2">
  <advance width="1012"/>
  <unicode hex="003D"/>
  <outline>
    <contour>
      <point x="886" y="504" type="line"/>
      <point x="973" y="417" type="line"/>
      <point x="973" y="278" type="line"/>
      <point x="927" y="278" type="line"/>
      <point x="973" y="232" type="line"/>
      <point x="973" y="93" type="line"/>
      <point x="126" y="93" type="line"/>
      <point x="39" y="180" type="line"/>
      <point x="33" y="180" type="line"/>
      <point x="33" y="325" type="line"/>
      <point x="79" y="325" type="line"/>
      <point x="39" y="365" type="line"/>
      <point x="33" y="365" type="line"/>
      <point x="33" y="510" type="line"/>
      <point x="886" y="510" type="line"/>
    </contour>
    <contour>
      <point x="851" y="475" type="line"/>
      <point x="68" y="475" type="line"/>
      <point x="68" y="400" type="line"/>
      <point x="851" y="400" type="line"/>
    </contour>
    <contour>
      <point x="851" y="290" type="line"/>
      <point x="68" y="290" type="line"/>
      <point x="68" y="215" type="line"/>
      <point x="851" y="215" type="line"/>
    </contour>
  </outline>
</glyph>
<glyph name="greater" format="2">
  <advance width="680"/>
  <unicode hex="003E"/>
  <outline>
    <contour>
      <point x="19" y="121" type="line"/>
      <point x="356" y="334" type="line"/>
      <point x="113" y="490" type="line"/>
      <point x="36" y="567" type="line"/>
      <point x="19" y="578" type="line"/>
      <point x="76" y="724" type="line"/>
      <point x="569" y="411" type="line"/>
      <point x="569" y="406" type="line"/>
      <point x="656" y="319" type="line"/>
      <point x="656" y="200" type="line"/>
      <point x="167" y="-110" type="line"/>
      <point x="79" y="-22" type="line"/>
      <point x="76" y="-25" type="line"/>
    </contour>
    <contour>
      <point x="93" y="28" type="line"/>
      <point x="534" y="308" type="line"/>
      <point x="534" y="391" type="line"/>
      <point x="93" y="671" type="line"/>
      <point x="62" y="593" type="line"/>
      <point x="445" y="349" type="line"/>
      <point x="62" y="106" type="line"/>
    </contour>
  </outline>
</glyph>
<glyph name="at" format="2">
  <advance width="1082"/>
  <unicode hex="0040"/>
  <outline>
    <contour>
      <point x="800" y="415" type="line"/>
      <point x="796" y="422"/>
      <point x="788" y="434"/>
      <point x="783" y="441" type="qcurve"/>
      <point x="765" y="452" type="line"/>
      <point x="767" y="450"/>
      <point x="769" y="446" type="qcurve"/>
    </contour>
    <contour>
      <point x="461" y="155" type="line"/>
      <point x="437" y="152"/>
      <point x="406" y="116"/>
      <point x="406" y="93" type="qcurve" smooth="yes"/>
      <point x="406" y="45" type="line"/>
      <point x="461" y="46" type="line"/>
    </contour>
    <contour>
      <point x="36" y="239" type="qcurve" smooth="yes"/>
      <point x="36" y="335"/>
      <point x="110" y="505"/>
      <point x="236" y="631"/>
      <point x="406" y="705"/>
      <point x="502" y="705" type="qcurve" smooth="yes"/>
      <point x="613" y="705"/>
      <point x="802" y="608"/>
      <point x="867" y="526" type="qcurve"/>
      <point x="919" y="475" type="line" smooth="yes"/>
      <point x="982" y="412"/>
      <point x="1055" y="245"/>
      <point x="1055" y="149" type="qcurve" smooth="yes"/>
      <point x="1055" y="68"/>
      <point x="1006" y="-71"/>
      <point x="955" y="-137" type="qcurve"/>
      <point x="963" y="-145" type="line"/>
      <point x="861" y="-227"/>
      <point x="680" y="-314"/>
      <point x="592" y="-314" type="qcurve" smooth="yes"/>
      <point x="497" y="-314"/>
      <point x="328" y="-240"/>
      <point x="265" y="-177" type="qcurve" smooth="yes"/>
      <point x="214" y="-126" type="line"/>
      <point x="133" y="-61"/>
      <point x="36" y="127"/>
    </contour>
    <contour>
      <point x="496" y="11" type="line"/>
      <point x="379" y="10" type="line"/>
      <point x="329" y="10"/>
      <point x="284" y="75"/>
      <point x="284" y="120" type="qcurve" smooth="yes"/>
      <point x="284" y="183" type="line" smooth="yes"/>
      <point x="284" y="202"/>
      <point x="299" y="237"/>
      <point x="324" y="263"/>
      <point x="359" y="278"/>
      <point x="379" y="278" type="qcurve" smooth="yes"/>
      <point x="496" y="278" type="line"/>
    </contour>
    <contour>
      <point x="71" y="239" type="qcurve" smooth="yes"/>
      <point x="71" y="150"/>
      <point x="140" y="-7"/>
      <point x="257" y="-124"/>
      <point x="414" y="-192"/>
      <point x="502" y="-192" type="qcurve" smooth="yes"/>
      <point x="583" y="-192"/>
      <point x="720" y="-138"/>
      <point x="783" y="-87" type="qcurve"/>
      <point x="700" y="-87" type="line"/>
      <point x="655" y="-113"/>
      <point x="557" y="-143"/>
      <point x="502" y="-143" type="qcurve" smooth="yes"/>
      <point x="423" y="-143"/>
      <point x="284" y="-83"/>
      <point x="180" y="21"/>
      <point x="120" y="160"/>
      <point x="120" y="239" type="qcurve" smooth="yes"/>
      <point x="120" y="318"/>
      <point x="180" y="457"/>
      <point x="284" y="561"/>
      <point x="423" y="621"/>
      <point x="502" y="621" type="qcurve" smooth="yes"/>
      <point x="581" y="621"/>
      <point x="720" y="561"/>
      <point x="824" y="457"/>
      <point x="884" y="318"/>
      <point x="884" y="239" type="qcurve" smooth="yes"/>
      <point x="884" y="173"/>
      <point x="843" y="58"/>
      <point x="807" y="10" type="qcurve"/>
      <point x="766" y="11" type="line"/>
      <point x="766" y="345" type="line" smooth="yes"/>
      <point x="766" y="374"/>
      <point x="744" y="426"/>
      <point x="706" y="465"/>
      <point x="654" y="487"/>
      <point x="625" y="487" type="qcurve" smooth="yes"/>
      <point x="238" y="487" type="line"/>
      <point x="239" y="439" type="line"/>
      <point x="493" y="439" type="line"/>
      <point x="493" y="326" type="line"/>
      <point x="388" y="325" type="line"/>
      <point x="350" y="325"/>
      <point x="298" y="303"/>
      <point x="279" y="283" type="qcurve" smooth="yes"/>
      <point x="260" y="264"/>
      <point x="237" y="212"/>
      <point x="237" y="183" type="qcurve" smooth="yes"/>
      <point x="237" y="99" type="line" smooth="yes"/>
      <point x="237" y="70"/>
      <point x="261" y="21"/>
      <point x="300" y="-16"/>
      <point x="351" y="-37"/>
      <point x="379" y="-37" type="qcurve" smooth="yes"/>
      <point x="606" y="-37" type="line"/>
      <point x="832" y="-36" type="line"/>
      <point x="883" y="25"/>
      <point x="933" y="158"/>
      <point x="933" y="239" type="qcurve" smooth="yes"/>
      <point x="933" y="328"/>
      <point x="864" y="485"/>
      <point x="747" y="602"/>
      <point x="590" y="670"/>
      <point x="502" y="670" type="qcurve" smooth="yes"/>
      <point x="413" y="670"/>
      <point x="257" y="602"/>
      <point x="139" y="484"/>
      <point x="71" y="327"/>
    </contour>
  </outline>
</glyph>
<glyph name="A" format="2">
  <advance width="828"/>
  <unicode hex="0041"/>
  <outline>
    <contour>
      <point x="441" y="721" type="line"/>
      <point x="525" y="637" type="line"/>
      <point x="866" y="-122" type="line"/>
      <point x="380" y="-122" type="line"/>
      <point x="311" y="-53" type="line"/>
      <point x="244" y="-53" type="line"/>
      <point x="236" y="-70"/>
      <point x="218" y="-109"/>
      <point x="213" y="-122" type="qcurve"/>
      <point x="73" y="-122" type="line"/>
      <point x="-14" y="-35" type="line"/>
      <point x="-22" y="-35" type="line"/>
      <point x="323" y="730" type="line"/>
      <point x="437" y="730" type="line"/>
    </contour>
    <contour>
      <point x="248" y="139" type="line"/>
      <point x="164" y="139" type="line"/>
      <point x="206" y="231" type="line"/>
    </contour>
    <contour>
      <point x="415" y="695" type="line"/>
      <point x="345" y="695" type="line"/>
      <point x="32" y="0" type="line"/>
      <point x="102" y="0" type="line"/>
      <point x="133" y="69" type="line"/>
      <point x="279" y="69" type="line"/>
      <point x="310" y="0" type="line"/>
      <point x="727" y="0" type="line"/>
    </contour>
  </outline>
</glyph>
<glyph name="B" format="2">
  <advance width="838"/>
  <unicode hex="0042"/>
  <outline>
    <contour>
      <point x="38" y="-35" type="line"/>
      <point x="32" y="-35" type="line"/>
      <point x="32" y="730" type="line"/>
      <point x="484" y="730" type="line" smooth="yes"/>
      <point x="538" y="730"/>
      <point x="626" y="683"/>
      <point x="654" y="643" type="qcurve"/>
      <point x="720" y="578" type="line" smooth="yes"/>
      <point x="748" y="550"/>
      <point x="780" y="474"/>
      <point x="780" y="430" type="qcurve" smooth="yes"/>
      <point x="780" y="356"/>
      <point x="733" y="300" type="qcurve"/>
      <point x="747" y="286" type="line" smooth="yes"/>
      <point x="779" y="254"/>
      <point x="815" y="169"/>
      <point x="815" y="120" type="qcurve" smooth="yes"/>
      <point x="815" y="69"/>
      <point x="778" y="-19"/>
      <point x="713" y="-84"/>
      <point x="625" y="-122"/>
      <point x="574" y="-122" type="qcurve" smooth="yes"/>
      <point x="125" y="-122" type="line"/>
    </contour>
    <contour>
      <point x="588" y="521" type="qcurve" smooth="yes"/>
      <point x="588" y="476"/>
      <point x="529" y="417"/>
      <point x="484" y="417" type="qcurve"/>
      <point x="484" y="625" type="line"/>
      <point x="529" y="625"/>
      <point x="588" y="566"/>
    </contour>
    <contour>
      <point x="623" y="208" type="qcurve" smooth="yes"/>
      <point x="623" y="179"/>
      <point x="601" y="128"/>
      <point x="564" y="91"/>
      <point x="513" y="69"/>
      <point x="484" y="69" type="qcurve"/>
      <point x="484" y="347" type="line"/>
      <point x="513" y="347"/>
      <point x="564" y="325"/>
      <point x="601" y="288"/>
      <point x="623" y="237"/>
    </contour>
    <contour>
      <point x="593" y="386" type="qcurve"/>
      <point x="624" y="411"/>
      <point x="658" y="480"/>
      <point x="658" y="520" type="qcurve" smooth="yes"/>
      <point x="658" y="557"/>
      <point x="631" y="621"/>
      <point x="584" y="668"/>
      <point x="521" y="695"/>
      <point x="484" y="695" type="qcurve" smooth="yes"/>
      <point x="67" y="695" type="line"/>
      <point x="67" y="0" type="line"/>
      <point x="484" y="0" type="line" smooth="yes"/>
      <point x="528" y="0"/>
      <point x="605" y="33"/>
      <point x="661" y="90"/>
      <point x="693" y="166"/>
      <point x="693" y="210" type="qcurve" smooth="yes"/>
      <point x="693" y="266"/>
      <point x="640" y="357"/>
    </contour>
  </outline>
</glyph>
<glyph name="bracketleft" format="2">
  <advance width="601"/>
  <unicode hex="005B"/>
  <outline>
    <contour>
      <point x="485" y="877" type="line"/>
      <point x="485" y="871" type="line"/>
      <point x="572" y="784" type="line"/>
      <point x="572" y="597" type="line"/>
      <point x="424" y="597" type="line"/>
      <point x="424" y="21" type="line"/>
      <point x="485" y="21" type="line"/>
      <point x="485" y="15" type="line"/>
      <point x="572" y="-72" type="line"/>
      <point x="572" y="-259" type="line"/>
      <point x="139" y="-259" type="line"/>
      <point x="52" y="-172" type="line"/>
      <point x="46" y="-172" type="line"/>
      <point x="46" y="877" type="line"/>
    </contour>
    <contour>
      <point x="81" y="842" type="line"/>
      <point x="81" y="-137" type="line"/>
      <point x="450" y="-137" type="line"/>
      <point x="450" y="-14" type="line"/>
      <point x="302" y="-14" type="line"/>
      <point x="302" y="719" type="line"/>
      <point x="450" y="719" type="line"/>
      <point x="450" y="842" type="line"/>
    </contour>
  </outline>
</glyph>
<glyph name="backslash" format="2">
  <advance width="418"/>
  <unicode hex="005C"/>
  <outline>
    <contour>
      <point x="150" y="764" type="line"/>
      <point x="151" y="756" type="line"/>
      <point x="237" y="671" type="line"/>
      <point x="397" y="-168" type="line"/>
      <point x="275" y="-168" type="line"/>
      <point x="188" y="-81" type="line"/>
      <point x="182" y="-81" type="line"/>
      <point x="21" y="764" type="line"/>
    </contour>
    <contour>
      <point x="63" y="729" type="line"/>
      <point x="211" y="-46" type="line"/>
      <point x="269" y="-46" type="line"/>
      <point x="121" y="729" type="line"/>
    </contour>
  </outline>
</glyph>
<glyph name="bracketright" format="2">
  <advance width="573"/>
  <unicode hex="005D"/>
  <outline>
    <contour>
      <point x="21" y="684" type="line"/>
      <point x="15" y="684" type="line"/>
      <point x="15" y="877" type="line"/>
      <point x="454" y="877" type="line"/>
      <point x="454" y="871" type="line"/>
      <point x="541" y="784" type="line"/>
      <point x="541" y="-259" type="line"/>
      <point x="108" y="-259" type="line"/>
      <point x="21" y="-172" type="line"/>
      <point x="15" y="-172" type="line"/>
      <point x="15" y="21" type="line"/>
      <point x="163" y="21" type="line"/>
      <point x="163" y="597" type="line"/>
      <point x="108" y="597" type="line"/>
    </contour>
    <contour>
      <point x="419" y="-137" type="line"/>
      <point x="419" y="842" type="line"/>
      <point x="50" y="842" type="line"/>
      <point x="50" y="719" type="line"/>
      <point x="198" y="719" type="line"/>
      <point x="198" y="-14" type="line"/>
      <point x="50" y="-14" type="line"/>
      <point x="50" y="-137" type="line"/>
    </contour>
  </outline>
</glyph>
<glyph name="grave" format="2">
  <advance width="774"/>
  <unicode hex="0060"/>
  <outline>
    <contour>
      <point x="174" y="998" type="line"/>
      <point x="366" y="1086" type="line"/>
      <point x="370" y="1076" type="line"/>
      <point x="454" y="992" type="line"/>
      <point x="547" y="757" type="line"/>
      <point x="407" y="701" type="line"/>
      <point x="319" y="788" type="line"/>
      <point x="316" y="787" type="line"/>
    </contour>
    <contour>
      <point x="329" y="831" type="line"/>
      <point x="415" y="865" type="line"/>
      <point x="346" y="1039" type="line"/>
      <point x="226" y="984" type="line"/>
    </contour>
  </outline>
</glyph>
<glyph name="braceleft" format="2">
  <advance width="547"/>
  <unicode hex="007B"/>
  <outline>
    <contour>
      <point x="432" y="840" type="line"/>
      <point x="519" y="753" type="line"/>
      <point x="517" y="624" type="line"/>
      <point x="485" y="624"/>
      <point x="448" y="592"/>
      <point x="444" y="574" type="qcurve" smooth="yes"/>
      <point x="439" y="556"/>
      <point x="439" y="537" type="qcurve" smooth="yes"/>
      <point x="439" y="532"/>
      <point x="441" y="496"/>
      <point x="444" y="458" type="qcurve" smooth="yes"/>
      <point x="446" y="420"/>
      <point x="447" y="381"/>
      <point x="447" y="379" type="qcurve"/>
      <point x="447" y="337"/>
      <point x="438" y="312" type="qcurve"/>
      <point x="428" y="277"/>
      <point x="405" y="254" type="qcurve"/>
      <point x="407" y="253" type="line"/>
      <point x="430" y="230"/>
      <point x="439" y="195" type="qcurve"/>
      <point x="447" y="172"/>
      <point x="447" y="129" type="qcurve"/>
      <point x="447" y="127"/>
      <point x="446" y="88"/>
      <point x="444" y="50" type="qcurve" smooth="yes"/>
      <point x="441" y="12"/>
      <point x="439" y="-24"/>
      <point x="439" y="-29" type="qcurve" smooth="yes"/>
      <point x="439" y="-36" type="line"/>
      <point x="519" y="-116" type="line"/>
      <point x="519" y="-245" type="line"/>
      <point x="428" y="-250" type="line" smooth="yes"/>
      <point x="417" y="-251"/>
      <point x="395" y="-252"/>
      <point x="389" y="-252" type="qcurve" smooth="yes"/>
      <point x="335" y="-252"/>
      <point x="260" y="-231"/>
      <point x="237" y="-208" type="qcurve" smooth="yes"/>
      <point x="165" y="-137" type="line"/>
      <point x="132" y="-116"/>
      <point x="102" y="-38"/>
      <point x="102" y="22" type="qcurve" smooth="yes"/>
      <point x="102" y="28" type="line" smooth="yes"/>
      <point x="102" y="31"/>
      <point x="103" y="38"/>
      <point x="103" y="43" type="qcurve"/>
      <point x="106" y="130" type="line"/>
      <point x="105" y="138"/>
      <point x="105" y="169"/>
      <point x="106" y="184" type="qcurve"/>
      <point x="38" y="252" type="line"/>
      <point x="32" y="252" type="line"/>
      <point x="32" y="436" type="line"/>
      <point x="67" y="436"/>
      <point x="101" y="465"/>
      <point x="107" y="481" type="qcurve"/>
      <point x="107" y="490"/>
      <point x="106" y="514"/>
      <point x="105" y="537"/>
      <point x="105" y="555"/>
      <point x="105" y="558" type="qcurve" smooth="yes"/>
      <point x="105" y="585"/>
      <point x="104" y="630"/>
      <point x="103" y="645" type="qcurve"/>
      <point x="103" y="650"/>
      <point x="102" y="657"/>
      <point x="102" y="660" type="qcurve" smooth="yes"/>
      <point x="102" y="666" type="line" smooth="yes"/>
      <point x="102" y="717"/>
      <point x="124" y="788"/>
      <point x="171" y="833"/>
      <point x="246" y="853"/>
      <point x="299" y="853" type="qcurve" smooth="yes"/>
      <point x="306" y="853"/>
      <point x="327" y="852"/>
      <point x="338" y="851" type="qcurve" smooth="yes"/>
      <point x="360" y="850"/>
      <point x="411" y="847"/>
      <point x="432" y="846" type="qcurve"/>
    </contour>
    <contour>
      <point x="397" y="813" type="line"/>
      <point x="366" y="814"/>
      <point x="313" y="818"/>
      <point x="299" y="818" type="qcurve" smooth="yes"/>
      <point x="212" y="818"/>
      <point x="137" y="749"/>
      <point x="137" y="666" type="qcurve" smooth="yes"/>
      <point x="137" y="657"/>
      <point x="140" y="596"/>
      <point x="140" y="554" type="qcurve"/>
      <point x="141" y="555" type="line"/>
      <point x="140" y="551"/>
      <point x="140" y="526"/>
      <point x="141" y="499"/>
      <point x="142" y="477"/>
      <point x="142" y="476" type="qcurve"/>
      <point x="138" y="464"/>
      <point x="125" y="438"/>
      <point x="107" y="415"/>
      <point x="82" y="401"/>
      <point x="67" y="401" type="qcurve"/>
      <point x="67" y="287" type="line"/>
      <point x="82" y="287"/>
      <point x="107" y="273"/>
      <point x="125" y="250"/>
      <point x="138" y="224"/>
      <point x="142" y="212" type="qcurve"/>
      <point x="142" y="210"/>
      <point x="141" y="189"/>
      <point x="140" y="162"/>
      <point x="140" y="137"/>
      <point x="141" y="133" type="qcurve"/>
      <point x="140" y="134" type="line"/>
      <point x="140" y="92"/>
      <point x="137" y="31"/>
      <point x="137" y="22" type="qcurve" smooth="yes"/>
      <point x="137" y="-61"/>
      <point x="212" y="-130"/>
      <point x="299" y="-130" type="qcurve" smooth="yes"/>
      <point x="313" y="-130"/>
      <point x="366" y="-126"/>
      <point x="397" y="-125" type="qcurve"/>
      <point x="397" y="-58" type="line"/>
      <point x="395" y="-58" type="line"/>
      <point x="366" y="-58"/>
      <point x="329" y="-11"/>
      <point x="323" y="16" type="qcurve"/>
      <point x="317" y="35"/>
      <point x="317" y="61" type="qcurve" smooth="yes"/>
      <point x="317" y="66"/>
      <point x="319" y="105"/>
      <point x="322" y="143" type="qcurve" smooth="yes"/>
      <point x="324" y="181"/>
      <point x="325" y="217"/>
      <point x="325" y="219" type="qcurve"/>
      <point x="325" y="255"/>
      <point x="318" y="275" type="qcurve"/>
      <point x="308" y="315"/>
      <point x="278" y="334" type="qcurve"/>
      <point x="273" y="336"/>
      <point x="264" y="342"/>
      <point x="259" y="344" type="qcurve"/>
      <point x="304" y="363"/>
      <point x="318" y="413" type="qcurve"/>
      <point x="325" y="433"/>
      <point x="325" y="469" type="qcurve"/>
      <point x="325" y="471"/>
      <point x="324" y="508"/>
      <point x="322" y="546" type="qcurve" smooth="yes"/>
      <point x="319" y="584"/>
      <point x="317" y="622"/>
      <point x="317" y="627" type="qcurve" smooth="yes"/>
      <point x="317" y="652"/>
      <point x="323" y="672" type="qcurve"/>
      <point x="329" y="699"/>
      <point x="366" y="746"/>
      <point x="395" y="746" type="qcurve"/>
      <point x="397" y="746" type="line"/>
    </contour>
  </outline>
</glyph>
<glyph name="bar" format="2">
  <advance width="330"/>
  <unicode hex="007C"/>
  <outline>
    <contour>
      <point x="199" y="902" type="line"/>
      <point x="199" y="896" type="line"/>
      <point x="286" y="809" type="line"/>
      <point x="286" y="-286" type="line"/>
      <point x="147" y="-286" type="line"/>
      <point x="60" y="-199" type="line"/>
      <point x="54" y="-199" type="line"/>
      <point x="54" y="902" type="line"/>
    </contour>
    <contour>
      <point x="89" y="867" type="line"/>
      <point x="89" y="-164" type="line"/>
      <point x="164" y="-164" type="line"/>
      <point x="164" y="867" type="line"/>
    </contour>
  </outline>
</glyph>
<glyph name="braceright" format="2">
  <advance width="538"/>
  <unicode hex="007D"/>
  <outline>
    <contour>
      <point x="354" y="473" type="line"/>
      <point x="380" y="447" type="line"/>
      <point x="380" y="447"/>
      <point x="382" y="445" type="qcurve"/>
      <point x="354" y="474" type="line"/>
    </contour>
    <contour>
      <point x="26" y="846" type="line"/>
      <point x="120" y="851" type="line" smooth="yes"/>
      <point x="130" y="852"/>
      <point x="154" y="853"/>
      <point x="159" y="853" type="qcurve" smooth="yes"/>
      <point x="224" y="853"/>
      <point x="307" y="822"/>
      <point x="329" y="787" type="qcurve"/>
      <point x="401" y="716" type="line" smooth="yes"/>
      <point x="443" y="674"/>
      <point x="443" y="576" type="qcurve" smooth="yes"/>
      <point x="443" y="573"/>
      <point x="442" y="563"/>
      <point x="442" y="555" type="qcurve"/>
      <point x="439" y="469" type="line"/>
      <point x="439" y="417" type="line"/>
      <point x="513" y="343" type="line"/>
      <point x="513" y="165" type="line"/>
      <point x="478" y="165"/>
      <point x="444" y="135"/>
      <point x="438" y="118" type="qcurve"/>
      <point x="438" y="116" type="line"/>
      <point x="438" y="108"/>
      <point x="439" y="87"/>
      <point x="440" y="64"/>
      <point x="440" y="45"/>
      <point x="440" y="40" type="qcurve" smooth="yes"/>
      <point x="440" y="13"/>
      <point x="441" y="-32"/>
      <point x="442" y="-47" type="qcurve"/>
      <point x="442" y="-55"/>
      <point x="443" y="-65"/>
      <point x="443" y="-68" type="qcurve" smooth="yes"/>
      <point x="443" y="-118"/>
      <point x="421" y="-188"/>
      <point x="375" y="-232"/>
      <point x="301" y="-252"/>
      <point x="249" y="-252" type="qcurve" smooth="yes"/>
      <point x="242" y="-252"/>
      <point x="221" y="-251"/>
      <point x="210" y="-250" type="qcurve" smooth="yes"/>
      <point x="119" y="-245" type="line"/>
      <point x="32" y="-158" type="line"/>
      <point x="26" y="-158" type="line"/>
      <point x="28" y="-23" type="line"/>
      <point x="60" y="-23"/>
      <point x="97" y="8"/>
      <point x="101" y="25" type="qcurve" smooth="yes"/>
      <point x="106" y="43"/>
      <point x="106" y="61" type="qcurve" smooth="yes"/>
      <point x="106" y="66"/>
      <point x="104" y="102"/>
      <point x="102" y="140" type="qcurve"/>
      <point x="99" y="176"/>
      <point x="98" y="217"/>
      <point x="98" y="219" type="qcurve"/>
      <point x="98" y="263"/>
      <point x="106" y="286" type="qcurve"/>
      <point x="115" y="322"/>
      <point x="140" y="345" type="qcurve"/>
      <point x="118" y="370"/>
      <point x="107" y="401" type="qcurve" smooth="yes"/>
      <point x="98" y="426"/>
      <point x="98" y="469" type="qcurve"/>
      <point x="98" y="471"/>
      <point x="99" y="512"/>
      <point x="102" y="548" type="qcurve" smooth="yes"/>
      <point x="104" y="583"/>
      <point x="106" y="622"/>
      <point x="106" y="627" type="qcurve" smooth="yes"/>
      <point x="106" y="637" type="line"/>
      <point x="32" y="711" type="line"/>
      <point x="26" y="711" type="line"/>
    </contour>
    <contour>
      <point x="61" y="746" type="line"/>
      <point x="63" y="746" type="line"/>
      <point x="92" y="746"/>
      <point x="129" y="699"/>
      <point x="135" y="672" type="qcurve"/>
      <point x="141" y="652"/>
      <point x="141" y="627" type="qcurve" smooth="yes"/>
      <point x="141" y="622"/>
      <point x="139" y="584"/>
      <point x="137" y="546" type="qcurve" smooth="yes"/>
      <point x="134" y="508"/>
      <point x="133" y="471"/>
      <point x="133" y="469" type="qcurve"/>
      <point x="133" y="433"/>
      <point x="140" y="413" type="qcurve"/>
      <point x="154" y="363"/>
      <point x="199" y="344" type="qcurve"/>
      <point x="194" y="342"/>
      <point x="185" y="336"/>
      <point x="180" y="334" type="qcurve"/>
      <point x="150" y="315"/>
      <point x="140" y="275" type="qcurve"/>
      <point x="133" y="255"/>
      <point x="133" y="219" type="qcurve"/>
      <point x="133" y="217"/>
      <point x="134" y="181"/>
      <point x="137" y="143" type="qcurve" smooth="yes"/>
      <point x="139" y="105"/>
      <point x="141" y="66"/>
      <point x="141" y="61" type="qcurve" smooth="yes"/>
      <point x="141" y="35"/>
      <point x="135" y="16" type="qcurve"/>
      <point x="129" y="-11"/>
      <point x="92" y="-58"/>
      <point x="63" y="-58" type="qcurve"/>
      <point x="61" y="-58" type="line"/>
      <point x="61" y="-125" type="line"/>
      <point x="92" y="-126"/>
      <point x="145" y="-130"/>
      <point x="159" y="-130" type="qcurve" smooth="yes"/>
      <point x="246" y="-130"/>
      <point x="321" y="-61"/>
      <point x="321" y="22" type="qcurve" smooth="yes"/>
      <point x="321" y="31"/>
      <point x="318" y="92"/>
      <point x="318" y="134" type="qcurve"/>
      <point x="317" y="133" type="line"/>
      <point x="318" y="137"/>
      <point x="318" y="162"/>
      <point x="317" y="189"/>
      <point x="316" y="210"/>
      <point x="316" y="212" type="qcurve"/>
      <point x="320" y="224"/>
      <point x="333" y="250"/>
      <point x="351" y="273"/>
      <point x="376" y="287"/>
      <point x="391" y="287" type="qcurve"/>
      <point x="391" y="401" type="line"/>
      <point x="376" y="401"/>
      <point x="351" y="415"/>
      <point x="333" y="438"/>
      <point x="320" y="464"/>
      <point x="316" y="476" type="qcurve"/>
      <point x="316" y="477"/>
      <point x="317" y="499"/>
      <point x="318" y="526"/>
      <point x="318" y="551"/>
      <point x="317" y="555" type="qcurve"/>
      <point x="318" y="554" type="line"/>
      <point x="318" y="596"/>
      <point x="321" y="657"/>
      <point x="321" y="666" type="qcurve" smooth="yes"/>
      <point x="321" y="749"/>
      <point x="246" y="818"/>
      <point x="159" y="818" type="qcurve" smooth="yes"/>
      <point x="145" y="818"/>
      <point x="92" y="814"/>
      <point x="61" y="813" type="qcurve"/>
    </contour>
  </outline>
</glyph>
<glyph name="asciitilde" format="2">
  <advance width="757"/>
  <unicode hex="007E"/>
  <outline>
    <contour>
      <point x="655" y="509" type="line"/>
      <point x="654" y="504" type="line"/>
      <point x="741" y="417" type="line"/>
      <point x="728" y="356" type="line" smooth="yes"/>
      <point x="721" y="322"/>
      <point x="702" y="246"/>
      <point x="666" y="182"/>
      <point x="607" y="140"/>
      <point x="561" y="140" type="qcurve" smooth="yes"/>
      <point x="528" y="140"/>
      <point x="447" y="161"/>
      <point x="409" y="173" type="qcurve"/>
      <point x="410" y="173" type="line"/>
      <point x="399" y="176"/>
      <point x="384" y="180"/>
      <point x="378" y="183" type="qcurve"/>
      <point x="366" y="185"/>
      <point x="343" y="194"/>
      <point x="329" y="198" type="qcurve" smooth="yes"/>
      <point x="321" y="200"/>
      <point x="311" y="204"/>
      <point x="312" y="204" type="qcurve"/>
      <point x="304" y="204"/>
      <point x="283" y="198"/>
      <point x="263" y="185"/>
      <point x="246" y="162"/>
      <point x="242" y="145" type="qcurve"/>
      <point x="117" y="179" type="line"/>
      <point x="32" y="264" type="line"/>
      <point x="23" y="267" type="line"/>
      <point x="36" y="331" type="line" smooth="yes"/>
      <point x="43" y="367"/>
      <point x="63" y="443"/>
      <point x="100" y="507"/>
      <point x="159" y="548"/>
      <point x="207" y="548" type="qcurve" smooth="yes"/>
      <point x="239" y="548"/>
      <point x="313" y="526"/>
      <point x="351" y="513" type="qcurve" smooth="yes"/>
      <point x="382" y="502"/>
      <point x="439" y="485"/>
      <point x="459" y="485" type="qcurve" smooth="yes"/>
      <point x="476" y="485"/>
      <point x="516" y="512"/>
      <point x="523" y="548" type="qcurve"/>
    </contour>
    <contour>
      <point x="549" y="503" type="line"/>
      <point x="546" y="488"/>
      <point x="527" y="468"/>
      <point x="501" y="455"/>
      <point x="472" y="450"/>
      <point x="459" y="450" type="qcurve" smooth="yes"/>
      <point x="435" y="450"/>
      <point x="370" y="470"/>
      <point x="302" y="493"/>
      <point x="234" y="513"/>
      <point x="207" y="513" type="qcurve" smooth="yes"/>
      <point x="165" y="513"/>
      <point x="115" y="467"/>
      <point x="86" y="400"/>
      <point x="71" y="323"/>
      <point x="64" y="292" type="qcurve"/>
      <point x="130" y="274" type="line"/>
      <point x="134" y="289"/>
      <point x="155" y="309"/>
      <point x="181" y="321"/>
      <point x="210" y="326"/>
      <point x="222" y="326" type="qcurve"/>
      <point x="223" y="326"/>
      <point x="245" y="319"/>
      <point x="270" y="312"/>
      <point x="294" y="305"/>
      <point x="297" y="305" type="qcurve"/>
      <point x="297" y="304" type="line"/>
      <point x="317" y="298"/>
      <point x="362" y="283"/>
      <point x="408" y="271"/>
      <point x="452" y="262"/>
      <point x="471" y="262" type="qcurve" smooth="yes"/>
      <point x="513" y="262"/>
      <point x="563" y="309"/>
      <point x="592" y="378"/>
      <point x="607" y="454"/>
      <point x="614" y="484" type="qcurve"/>
    </contour>
  </outline>
</glyph>
<glyph name="exclamdown" format="2">
  <advance width="551"/>
  <unicode hex="00A1"/>
  <outline>
    <contour>
      <point x="40" y="730" type="line"/>
      <point x="419" y="730" type="line"/>
      <point x="419" y="724" type="line"/>
      <point x="506" y="637" type="line"/>
      <point x="506" y="-122" type="line"/>
      <point x="133" y="-122" type="line"/>
      <point x="46" y="-35" type="line"/>
      <point x="40" y="-35" type="line"/>
    </contour>
    <contour>
      <point x="75" y="604" type="line"/>
      <point x="384" y="604" type="line"/>
      <point x="384" y="695" type="line"/>
      <point x="75" y="695" type="line"/>
    </contour>
    <contour>
      <point x="75" y="0" type="line"/>
      <point x="384" y="0" type="line"/>
      <point x="384" y="548" type="line"/>
      <point x="75" y="548" type="line"/>
    </contour>
  </outline>
</glyph>
<glyph name="cent" format="2">
  <advance width="859"/>
  <unicode hex="00A2"/>
  <outline>
    <contour>
      <point x="546" y="724" type="line"/>
      <point x="584" y="713"/>
      <point x="651" y="666"/>
      <point x="676" y="633" type="qcurve"/>
      <point x="739" y="570" type="line" smooth="yes"/>
      <point x="777" y="532"/>
      <point x="821" y="426"/>
      <point x="821" y="365" type="qcurve"/>
      <point x="688" y="365" type="line"/>
      <point x="613" y="440" type="line"/>
      <point x="613" y="244" type="line"/>
      <point x="734" y="244" type="line"/>
      <point x="734" y="238" type="line"/>
      <point x="821" y="151" type="line"/>
      <point x="821" y="95"/>
      <point x="783" y="-5"/>
      <point x="718" y="-79"/>
      <point x="631" y="-122"/>
      <point x="581" y="-122" type="qcurve" smooth="yes"/>
      <point x="546" y="-122" type="line"/>
      <point x="546" y="-286" type="line"/>
      <point x="407" y="-286" type="line"/>
      <point x="320" y="-199" type="line"/>
      <point x="314" y="-199" type="line"/>
      <point x="314" y="-114" type="line"/>
      <point x="282" y="-106"/>
      <point x="225" y="-74"/>
      <point x="203" y="-52" type="qcurve" smooth="yes"/>
      <point x="141" y="10" type="line"/>
      <point x="94" y="43"/>
      <point x="39" y="146"/>
      <point x="39" y="209" type="qcurve" smooth="yes"/>
      <point x="39" y="487" type="line" smooth="yes"/>
      <point x="39" y="538"/>
      <point x="77" y="627"/>
      <point x="143" y="693"/>
      <point x="231" y="731"/>
      <point x="282" y="731" type="qcurve" smooth="yes"/>
      <point x="314" y="731" type="line"/>
      <point x="314" y="902" type="line"/>
      <point x="459" y="902" type="line"/>
      <point x="459" y="896" type="line"/>
      <point x="546" y="809" type="line"/>
    </contour>
    <contour>
      <point x="699" y="487" type="line"/>
      <point x="699" y="530"/>
      <point x="666" y="606"/>
      <point x="610" y="663"/>
      <point x="534" y="696"/>
      <point x="491" y="696" type="qcurve" smooth="yes"/>
      <point x="424" y="696" type="line"/>
      <point x="424" y="867" type="line"/>
      <point x="349" y="867" type="line"/>
      <point x="349" y="696" type="line"/>
      <point x="282" y="696" type="line" smooth="yes"/>
      <point x="239" y="696"/>
      <point x="163" y="663"/>
      <point x="107" y="606"/>
      <point x="74" y="530"/>
      <point x="74" y="487" type="qcurve" smooth="yes"/>
      <point x="74" y="209" type="line" smooth="yes"/>
      <point x="74" y="166"/>
      <point x="107" y="90"/>
      <point x="163" y="33"/>
      <point x="239" y="0"/>
      <point x="282" y="0" type="qcurve" smooth="yes"/>
      <point x="349" y="0" type="line"/>
      <point x="349" y="-164" type="line"/>
      <point x="424" y="-164" type="line"/>
      <point x="424" y="0" type="line"/>
      <point x="491" y="0" type="line" smooth="yes"/>
      <point x="534" y="0"/>
      <point x="610" y="33"/>
      <point x="666" y="90"/>
      <point x="699" y="166"/>
      <point x="699" y="209" type="qcurve"/>
      <point x="630" y="209" type="line"/>
      <point x="630" y="180"/>
      <point x="608" y="129"/>
      <point x="571" y="92"/>
      <point x="520" y="70"/>
      <point x="491" y="70" type="qcurve"/>
      <point x="491" y="626" type="line"/>
      <point x="520" y="626"/>
      <point x="571" y="604"/>
      <point x="608" y="567"/>
      <point x="630" y="516"/>
      <point x="630" y="487" type="qcurve"/>
    </contour>
  </outline>
</glyph>
<glyph name="sterling" format="2">
  <advance width="1111"/>
  <unicode hex="00A3"/>
  <outline>
    <contour>
      <point x="286" y="506" type="line" smooth="yes"/>
      <point x="286" y="555"/>
      <point x="323" y="632"/>
      <point x="385" y="686"/>
      <point x="467" y="714"/>
      <point x="512" y="714" type="qcurve" smooth="yes"/>
      <point x="564" y="714" type="line" smooth="yes"/>
      <point x="574" y="714"/>
      <point x="593" y="713"/>
      <point x="603" y="713" type="qcurve" smooth="yes"/>
      <point x="720" y="713" type="line" smooth="yes"/>
      <point x="742" y="713"/>
      <point x="785" y="709"/>
      <point x="805" y="703" type="qcurve" smooth="yes"/>
      <point x="835" y="694"/>
      <point x="888" y="657"/>
      <point x="910" y="631" type="qcurve"/>
      <point x="987" y="555" type="line" smooth="yes"/>
      <point x="1025" y="517"/>
      <point x="1068" y="409"/>
      <point x="1068" y="347" type="qcurve"/>
      <point x="1033" y="347" type="line"/>
      <point x="1033" y="235" type="line"/>
      <point x="860" y="235" type="line"/>
      <point x="859" y="197"/>
      <point x="840" y="131"/>
      <point x="821" y="105" type="qcurve"/>
      <point x="976" y="105" type="line"/>
      <point x="976" y="99" type="line"/>
      <point x="1063" y="12" type="line"/>
      <point x="1063" y="-122" type="line"/>
      <point x="171" y="-122" type="line"/>
      <point x="84" y="-35" type="line"/>
      <point x="78" y="-35" type="line"/>
      <point x="78" y="178" type="line" smooth="yes"/>
      <point x="78" y="192"/>
      <point x="80" y="229"/>
      <point x="83" y="245" type="qcurve" smooth="yes"/>
      <point x="84" y="253"/>
      <point x="88" y="267"/>
      <point x="90" y="274" type="qcurve"/>
      <point x="43" y="322" type="line"/>
      <point x="37" y="322" type="line"/>
      <point x="37" y="467" type="line"/>
      <point x="286" y="467" type="line"/>
    </contour>
    <contour>
      <point x="321" y="432" type="line"/>
      <point x="72" y="432" type="line"/>
      <point x="72" y="357" type="line"/>
      <point x="190" y="357" type="line"/>
      <point x="162" y="334"/>
      <point x="124" y="273"/>
      <point x="117" y="237" type="qcurve" smooth="yes"/>
      <point x="114" y="223"/>
      <point x="113" y="193"/>
      <point x="113" y="178" type="qcurve" smooth="yes"/>
      <point x="113" y="0" type="line"/>
      <point x="941" y="0" type="line"/>
      <point x="941" y="70" type="line"/>
      <point x="322" y="70" type="line"/>
      <point x="322" y="142" type="line"/>
      <point x="564" y="142" type="line" smooth="yes"/>
      <point x="604" y="142"/>
      <point x="669" y="171"/>
      <point x="714" y="222"/>
      <point x="738" y="289"/>
      <point x="738" y="328" type="qcurve" smooth="yes"/>
      <point x="738" y="357" type="line"/>
      <point x="911" y="357" type="line"/>
      <point x="911" y="432" type="line"/>
      <point x="738" y="432" type="line"/>
      <point x="738" y="607" type="line"/>
      <point x="766" y="607"/>
      <point x="817" y="585"/>
      <point x="854" y="548"/>
      <point x="876" y="497"/>
      <point x="876" y="469" type="qcurve"/>
      <point x="946" y="469" type="line"/>
      <point x="946" y="503"/>
      <point x="924" y="567"/>
      <point x="884" y="621"/>
      <point x="829" y="660"/>
      <point x="796" y="669" type="qcurve" smooth="yes"/>
      <point x="777" y="674"/>
      <point x="739" y="678"/>
      <point x="720" y="678" type="qcurve" smooth="yes"/>
      <point x="681" y="678"/>
      <point x="603" y="679"/>
      <point x="564" y="679" type="qcurve" smooth="yes"/>
      <point x="512" y="679" type="line" smooth="yes"/>
      <point x="474" y="679"/>
      <point x="405" y="656"/>
      <point x="352" y="611"/>
      <point x="321" y="547"/>
      <point x="321" y="506" type="qcurve" smooth="yes"/>
    </contour>
  </outline>
</glyph>
<glyph name="yen" format="2">
  <advance width="1027"/>
  <unicode hex="00A5"/>
  <outline>
    <contour>
      <point x="56" y="-35" type="line"/>
      <point x="48" y="-35" type="line"/>
      <point x="114" y="111" type="line"/>
      <point x="46" y="180" type="line"/>
      <point x="40" y="180" type="line"/>
      <point x="40" y="325" type="line"/>
      <point x="86" y="325" type="line"/>
      <point x="46" y="365" type="line"/>
      <point x="40" y="365" type="line"/>
      <point x="40" y="510" type="line"/>
      <point x="222" y="510" type="line"/>
      <point x="122" y="730" type="line"/>
      <point x="286" y="730" type="line"/>
      <point x="290" y="721" type="line"/>
      <point x="357" y="654" type="line"/>
      <point x="392" y="730" type="line"/>
      <point x="886" y="730" type="line"/>
      <point x="883" y="724" type="line"/>
      <point x="971" y="637" type="line"/>
      <point x="905" y="491" type="line"/>
      <point x="980" y="417" type="line"/>
      <point x="980" y="278" type="line"/>
      <point x="934" y="278" type="line"/>
      <point x="980" y="232" type="line"/>
      <point x="980" y="93" type="line"/>
      <point x="727" y="93" type="line"/>
      <point x="704" y="42"/>
      <point x="651" y="-73"/>
      <point x="629" y="-122" type="qcurve"/>
      <point x="143" y="-122" type="line"/>
    </contour>
    <contour>
      <point x="858" y="475" type="line"/>
      <point x="733" y="475" type="line"/>
      <point x="832" y="695" type="line"/>
      <point x="415" y="695" type="line"/>
      <point x="339" y="526" type="line"/>
      <point x="263" y="695" type="line"/>
      <point x="176" y="695" type="line"/>
      <point x="276" y="475" type="line"/>
      <point x="75" y="475" type="line"/>
      <point x="75" y="400" type="line"/>
      <point x="282" y="400" type="line"/>
      <point x="233" y="290" type="line"/>
      <point x="75" y="290" type="line"/>
      <point x="75" y="215" type="line"/>
      <point x="199" y="215" type="line"/>
      <point x="102" y="0" type="line"/>
      <point x="519" y="0" type="line"/>
      <point x="616" y="215" type="line"/>
      <point x="858" y="215" type="line"/>
      <point x="858" y="290" type="line"/>
      <point x="650" y="290" type="line"/>
      <point x="699" y="400" type="line"/>
      <point x="858" y="400" type="line"/>
    </contour>
  </outline>
</glyph>
<glyph name="section" format="2">
  <advance width="839"/>
  <unicode hex="00A7"/>
  <outline>
    <contour>
      <point x="601" y="609" type="line"/>
      <point x="601" y="590" type="line"/>
      <point x="648" y="562"/>
      <point x="678" y="520" type="qcurve"/>
      <point x="737" y="460" type="line"/>
      <point x="734" y="463" type="line"/>
      <point x="740" y="458" type="line"/>
      <point x="772" y="426"/>
      <point x="809" y="341"/>
      <point x="809" y="291" type="qcurve" smooth="yes"/>
      <point x="809" y="240"/>
      <point x="772" y="152"/>
      <point x="739" y="119" type="qcurve"/>
      <point x="742" y="116" type="line" smooth="yes"/>
      <point x="774" y="84"/>
      <point x="816" y="-6"/>
      <point x="816" y="-57" type="qcurve" smooth="yes"/>
      <point x="816" y="-106"/>
      <point x="779" y="-194"/>
      <point x="714" y="-261"/>
      <point x="626" y="-300"/>
      <point x="576" y="-300" type="qcurve" smooth="yes"/>
      <point x="120" y="-300" type="line"/>
      <point x="33" y="-213" type="line"/>
      <point x="27" y="-213" type="line"/>
      <point x="27" y="-74" type="line"/>
      <point x="486" y="-74" type="line" smooth="yes"/>
      <point x="507" y="-74"/>
      <point x="545" y="-58"/>
      <point x="574" y="-29"/>
      <point x="590" y="9"/>
      <point x="590" y="30" type="qcurve" smooth="yes"/>
      <point x="590" y="36"/>
      <point x="588" y="46" type="qcurve"/>
      <point x="584" y="47"/>
      <point x="576" y="47" type="qcurve" smooth="yes"/>
      <point x="333" y="47" type="line" smooth="yes"/>
      <point x="294" y="47"/>
      <point x="225" y="78"/>
      <point x="198" y="105" type="qcurve" smooth="yes"/>
      <point x="132" y="170" type="line"/>
      <point x="87" y="202"/>
      <point x="34" y="312"/>
      <point x="34" y="378" type="qcurve"/>
      <point x="521" y="378" type="line"/>
      <point x="521" y="372" type="line"/>
      <point x="567" y="325" type="line"/>
      <point x="583" y="351"/>
      <point x="583" y="378" type="qcurve" smooth="yes"/>
      <point x="583" y="384"/>
      <point x="581" y="394" type="qcurve"/>
      <point x="577" y="395"/>
      <point x="569" y="395" type="qcurve" smooth="yes"/>
      <point x="326" y="395" type="line" smooth="yes"/>
      <point x="283" y="395"/>
      <point x="208" y="427"/>
      <point x="180" y="455" type="qcurve" smooth="yes"/>
      <point x="114" y="521" type="line"/>
      <point x="74" y="550"/>
      <point x="27" y="637"/>
      <point x="27" y="691" type="qcurve" smooth="yes"/>
      <point x="27" y="734"/>
      <point x="60" y="811"/>
      <point x="116" y="867"/>
      <point x="192" y="900"/>
      <point x="236" y="900" type="qcurve" smooth="yes"/>
      <point x="479" y="900" type="line" smooth="yes"/>
      <point x="534" y="900"/>
      <point x="629" y="849"/>
      <point x="662" y="804" type="qcurve"/>
      <point x="728" y="739" type="line" smooth="yes"/>
      <point x="766" y="701"/>
      <point x="810" y="595"/>
      <point x="810" y="534" type="qcurve"/>
      <point x="676" y="534" type="line"/>
    </contour>
    <contour>
      <point x="486" y="-178" type="line" smooth="yes"/>
      <point x="529" y="-178"/>
      <point x="605" y="-144"/>
      <point x="662" y="-86"/>
      <point x="694" y="-10"/>
      <point x="694" y="33" type="qcurve" smooth="yes"/>
      <point x="694" y="90"/>
      <point x="642" y="179"/>
      <point x="597" y="207" type="qcurve"/>
      <point x="639" y="236"/>
      <point x="687" y="327"/>
      <point x="687" y="381" type="qcurve" smooth="yes"/>
      <point x="687" y="424"/>
      <point x="654" y="499"/>
      <point x="597" y="555"/>
      <point x="522" y="587"/>
      <point x="479" y="587" type="qcurve"/>
      <point x="479" y="795" type="line"/>
      <point x="508" y="795"/>
      <point x="559" y="773"/>
      <point x="596" y="736"/>
      <point x="618" y="685"/>
      <point x="618" y="656" type="qcurve"/>
      <point x="688" y="656" type="line"/>
      <point x="688" y="699"/>
      <point x="655" y="775"/>
      <point x="598" y="832"/>
      <point x="522" y="865"/>
      <point x="479" y="865" type="qcurve" smooth="yes"/>
      <point x="236" y="865" type="line" smooth="yes"/>
      <point x="200" y="865"/>
      <point x="137" y="838"/>
      <point x="89" y="790"/>
      <point x="62" y="727"/>
      <point x="62" y="691" type="qcurve" smooth="yes"/>
      <point x="62" y="655"/>
      <point x="89" y="592"/>
      <point x="137" y="544"/>
      <point x="200" y="517"/>
      <point x="236" y="517" type="qcurve" smooth="yes"/>
      <point x="479" y="517" type="line" smooth="yes"/>
      <point x="508" y="517"/>
      <point x="559" y="495"/>
      <point x="596" y="458"/>
      <point x="618" y="407"/>
      <point x="618" y="378" type="qcurve" smooth="yes"/>
      <point x="618" y="350"/>
      <point x="597" y="300"/>
      <point x="561" y="263"/>
      <point x="513" y="240"/>
      <point x="486" y="239" type="qcurve"/>
      <point x="486" y="343" type="line"/>
      <point x="69" y="343" type="line"/>
      <point x="69" y="307"/>
      <point x="96" y="244"/>
      <point x="144" y="196"/>
      <point x="207" y="169"/>
      <point x="243" y="169" type="qcurve" smooth="yes"/>
      <point x="486" y="169" type="line" smooth="yes"/>
      <point x="515" y="169"/>
      <point x="566" y="147"/>
      <point x="603" y="110"/>
      <point x="625" y="59"/>
      <point x="625" y="30" type="qcurve" smooth="yes"/>
      <point x="625" y="1"/>
      <point x="603" y="-50"/>
      <point x="566" y="-87"/>
      <point x="515" y="-109"/>
      <point x="486" y="-109" type="qcurve" smooth="yes"/>
      <point x="62" y="-109" type="line"/>
      <point x="62" y="-178" type="line"/>
    </contour>
  </outline>
</glyph>
<glyph name="dieresis" format="2">
  <advance width="671"/>
  <unicode hex="00A8"/>
  <outline>
    <contour>
      <point x="48" y="911" type="qcurve" smooth="yes"/>
      <point x="48" y="935"/>
      <point x="66" y="978"/>
      <point x="97" y="1009"/>
      <point x="139" y="1027"/>
      <point x="163" y="1027" type="qcurve" smooth="yes"/>
      <point x="195" y="1027"/>
      <point x="247" y="997"/>
      <point x="262" y="971" type="qcurve"/>
      <point x="321" y="913" type="line"/>
      <point x="321" y="937"/>
      <point x="339" y="979"/>
      <point x="370" y="1009"/>
      <point x="412" y="1027"/>
      <point x="436" y="1027" type="qcurve" smooth="yes"/>
      <point x="468" y="1027"/>
      <point x="520" y="997"/>
      <point x="535" y="971" type="qcurve"/>
      <point x="606" y="901" type="line" smooth="yes"/>
      <point x="621" y="886"/>
      <point x="639" y="844"/>
      <point x="639" y="821" type="qcurve" smooth="yes"/>
      <point x="639" y="797"/>
      <point x="621" y="756"/>
      <point x="591" y="726"/>
      <point x="550" y="709"/>
      <point x="526" y="709" type="qcurve" smooth="yes"/>
      <point x="502" y="709"/>
      <point x="461" y="726"/>
      <point x="446" y="741" type="qcurve" smooth="yes"/>
      <point x="373" y="813" type="line"/>
      <point x="366" y="819" type="line"/>
      <point x="366" y="796"/>
      <point x="348" y="756"/>
      <point x="317" y="726"/>
      <point x="276" y="709"/>
      <point x="253" y="709" type="qcurve" smooth="yes"/>
      <point x="229" y="709"/>
      <point x="188" y="726"/>
      <point x="173" y="741" type="qcurve" smooth="yes"/>
      <point x="100" y="813" type="line"/>
      <point x="76" y="828"/>
      <point x="48" y="879"/>
    </contour>
    <contour>
      <point x="356" y="911" type="qcurve" smooth="yes"/>
      <point x="356" y="877"/>
      <point x="402" y="831"/>
      <point x="436" y="831" type="qcurve" smooth="yes"/>
      <point x="470" y="831"/>
      <point x="517" y="877"/>
      <point x="517" y="911" type="qcurve" smooth="yes"/>
      <point x="517" y="945"/>
      <point x="470" y="992"/>
      <point x="436" y="992" type="qcurve" smooth="yes"/>
      <point x="402" y="992"/>
      <point x="356" y="945"/>
    </contour>
    <contour>
      <point x="83" y="911" type="qcurve" smooth="yes"/>
      <point x="83" y="877"/>
      <point x="129" y="831"/>
      <point x="163" y="831" type="qcurve" smooth="yes"/>
      <point x="197" y="831"/>
      <point x="244" y="877"/>
      <point x="244" y="911" type="qcurve" smooth="yes"/>
      <point x="244" y="945"/>
      <point x="197" y="992"/>
      <point x="163" y="992" type="qcurve" smooth="yes"/>
      <point x="129" y="992"/>
      <point x="83" y="945"/>
    </contour>
  </outline>
</glyph>
<glyph name="copyright" format="2">
  <advance width="680"/>
  <unicode hex="00A9"/>
  <outline>
    <contour>
      <point x="532" y="269" type="line"/>
      <point x="554" y="311"/>
      <point x="555" y="359" type="qcurve"/>
      <point x="512" y="314" type="line"/>
      <point x="510" y="316" type="line"/>
      <point x="488" y="336"/>
      <point x="447" y="360"/>
      <point x="430" y="360" type="qcurve" smooth="yes"/>
      <point x="414" y="360"/>
      <point x="384" y="348"/>
      <point x="361" y="327"/>
      <point x="346" y="299"/>
      <point x="345" y="284" type="qcurve"/>
      <point x="365" y="286"/>
      <point x="406" y="320"/>
      <point x="426" y="346" type="qcurve"/>
    </contour>
    <contour>
      <point x="128" y="87" type="line"/>
      <point x="65" y="135"/>
      <point x="-9" y="279"/>
      <point x="-9" y="365" type="qcurve" smooth="yes"/>
      <point x="-9" y="438"/>
      <point x="45" y="565"/>
      <point x="140" y="659"/>
      <point x="267" y="714"/>
      <point x="340" y="714" type="qcurve" smooth="yes"/>
      <point x="426" y="714"/>
      <point x="570" y="640"/>
      <point x="618" y="577" type="qcurve"/>
      <point x="675" y="520" type="line" smooth="yes"/>
      <point x="722" y="472"/>
      <point x="776" y="347"/>
      <point x="776" y="275" type="qcurve" smooth="yes"/>
      <point x="776" y="203"/>
      <point x="722" y="77"/>
      <point x="628" y="-17"/>
      <point x="502" y="-71"/>
      <point x="430" y="-71" type="qcurve" smooth="yes"/>
      <point x="358" y="-71"/>
      <point x="232" y="-18"/>
      <point x="185" y="30" type="qcurve" smooth="yes"/>
    </contour>
    <contour>
      <point x="434" y="297" type="line"/>
      <point x="418" y="275"/>
      <point x="369" y="249"/>
      <point x="340" y="249" type="qcurve" smooth="yes"/>
      <point x="316" y="249"/>
      <point x="273" y="267"/>
      <point x="242" y="299"/>
      <point x="223" y="341"/>
      <point x="223" y="365" type="qcurve" smooth="yes"/>
      <point x="223" y="389"/>
      <point x="242" y="432"/>
      <point x="273" y="463"/>
      <point x="316" y="482"/>
      <point x="340" y="482" type="qcurve" smooth="yes"/>
      <point x="363" y="482"/>
      <point x="405" y="464"/>
      <point x="421" y="449" type="qcurve"/>
      <point x="465" y="495" type="line"/>
      <point x="441" y="518"/>
      <point x="377" y="546"/>
      <point x="340" y="546" type="qcurve" smooth="yes"/>
      <point x="302" y="546"/>
      <point x="237" y="518"/>
      <point x="187" y="468"/>
      <point x="159" y="402"/>
      <point x="159" y="365" type="qcurve" smooth="yes"/>
      <point x="159" y="327"/>
      <point x="187" y="262"/>
      <point x="237" y="213"/>
      <point x="302" y="185"/>
      <point x="340" y="185" type="qcurve" smooth="yes"/>
      <point x="385" y="185"/>
      <point x="461" y="225"/>
      <point x="486" y="259" type="qcurve"/>
    </contour>
    <contour>
      <point x="340" y="615" type="qcurve" smooth="yes"/>
      <point x="392" y="615"/>
      <point x="483" y="576"/>
      <point x="551" y="508"/>
      <point x="590" y="417"/>
      <point x="590" y="365" type="qcurve" smooth="yes"/>
      <point x="590" y="313"/>
      <point x="551" y="222"/>
      <point x="483" y="154"/>
      <point x="392" y="115"/>
      <point x="340" y="115" type="qcurve" smooth="yes"/>
      <point x="288" y="115"/>
      <point x="197" y="154"/>
      <point x="129" y="222"/>
      <point x="90" y="313"/>
      <point x="90" y="365" type="qcurve" smooth="yes"/>
      <point x="90" y="417"/>
      <point x="129" y="508"/>
      <point x="197" y="576"/>
      <point x="288" y="615"/>
    </contour>
    <contour>
      <point x="340" y="51" type="qcurve" smooth="yes"/>
      <point x="405" y="51"/>
      <point x="520" y="100"/>
      <point x="605" y="185"/>
      <point x="654" y="300"/>
      <point x="654" y="365" type="qcurve" smooth="yes"/>
      <point x="654" y="430"/>
      <point x="605" y="545"/>
      <point x="520" y="630"/>
      <point x="405" y="679"/>
      <point x="340" y="679" type="qcurve" smooth="yes"/>
      <point x="275" y="679"/>
      <point x="160" y="630"/>
      <point x="75" y="545"/>
      <point x="26" y="430"/>
      <point x="26" y="365" type="qcurve" smooth="yes"/>
      <point x="26" y="300"/>
      <point x="75" y="185"/>
      <point x="160" y="100"/>
      <point x="275" y="51"/>
    </contour>
  </outline>
</glyph>
<glyph name="ordfeminine" format="2">
  <advance width="568"/>
  <unicode hex="00AA"/>
  <outline>
    <contour>
      <point x="89" y="373" type="line"/>
      <point x="65" y="388"/>
      <point x="35" y="438"/>
      <point x="35" y="467" type="qcurve" smooth="yes"/>
      <point x="35" y="513" type="line" smooth="yes"/>
      <point x="35" y="560"/>
      <point x="67" y="592" type="qcurve"/>
      <point x="42" y="618" type="line"/>
      <point x="36" y="618" type="line"/>
      <point x="36" y="715" type="line"/>
      <point x="330" y="715" type="line" smooth="yes"/>
      <point x="362" y="715"/>
      <point x="412" y="685"/>
      <point x="427" y="661" type="qcurve"/>
      <point x="498" y="590" type="line" smooth="yes"/>
      <point x="530" y="558"/>
      <point x="530" y="512" type="qcurve" smooth="yes"/>
      <point x="530" y="271" type="line"/>
      <point x="410" y="270" type="line"/>
      <point x="238" y="270" type="line" smooth="yes"/>
      <point x="215" y="270"/>
      <point x="175" y="288"/>
      <point x="160" y="303" type="qcurve" smooth="yes"/>
    </contour>
    <contour>
      <point x="212" y="565" type="line"/>
      <point x="212" y="419" type="line"/>
      <point x="148" y="418" type="line"/>
      <point x="120" y="418"/>
      <point x="96" y="454"/>
      <point x="96" y="478" type="qcurve" smooth="yes"/>
      <point x="96" y="513" type="line" smooth="yes"/>
      <point x="96" y="534"/>
      <point x="126" y="565"/>
      <point x="148" y="565" type="qcurve" smooth="yes"/>
    </contour>
    <contour>
      <point x="408" y="602" type="line" smooth="yes"/>
      <point x="408" y="634"/>
      <point x="363" y="680"/>
      <point x="330" y="680" type="qcurve" smooth="yes"/>
      <point x="71" y="680" type="line"/>
      <point x="71" y="653" type="line"/>
      <point x="210" y="653" type="line"/>
      <point x="210" y="591" type="line"/>
      <point x="153" y="591" type="line" smooth="yes"/>
      <point x="132" y="591"/>
      <point x="104" y="579"/>
      <point x="93" y="568" type="qcurve" smooth="yes"/>
      <point x="70" y="545"/>
      <point x="70" y="513" type="qcurve" smooth="yes"/>
      <point x="70" y="467" type="line" smooth="yes"/>
      <point x="70" y="436"/>
      <point x="117" y="392"/>
      <point x="148" y="392" type="qcurve" smooth="yes"/>
      <point x="320" y="392" type="line"/>
      <point x="408" y="393" type="line"/>
    </contour>
  </outline>
</glyph>
<glyph name="guillemotleft" format="2">
  <advance width="833"/>
  <unicode hex="00AB"/>
  <outline>
    <contour>
      <point x="20" y="424" type="line"/>
      <point x="415" y="658" type="line"/>
      <point x="415" y="649" type="line"/>
      <point x="502" y="562" type="line"/>
      <point x="502" y="539" type="line"/>
      <point x="702" y="658" type="line"/>
      <point x="702" y="649" type="line"/>
      <point x="789" y="562" type="line"/>
      <point x="789" y="375" type="line"/>
      <point x="650" y="292" type="line"/>
      <point x="678" y="277" type="line"/>
      <point x="677" y="277" type="line"/>
      <point x="702" y="263" type="line"/>
      <point x="702" y="258" type="line"/>
      <point x="789" y="171" type="line"/>
      <point x="789" y="-17" type="line"/>
      <point x="502" y="153" type="line"/>
      <point x="502" y="-17" type="line"/>
      <point x="113" y="213" type="line"/>
      <point x="32" y="293" type="line"/>
      <point x="20" y="301" type="line"/>
    </contour>
    <contour>
      <point x="55" y="322" type="line"/>
      <point x="380" y="129" type="line"/>
      <point x="380" y="242" type="line"/>
      <point x="331" y="271"/>
      <point x="229" y="333"/>
      <point x="178" y="362" type="qcurve"/>
      <point x="380" y="483" type="line"/>
      <point x="380" y="596" type="line"/>
      <point x="55" y="403" type="line"/>
    </contour>
    <contour>
      <point x="342" y="322" type="line"/>
      <point x="667" y="129" type="line"/>
      <point x="667" y="242" type="line"/>
      <point x="618" y="271"/>
      <point x="516" y="333"/>
      <point x="465" y="362" type="qcurve"/>
      <point x="667" y="483" type="line"/>
      <point x="667" y="596" type="line"/>
      <point x="342" y="403" type="line"/>
    </contour>
  </outline>
</glyph>
<glyph name="registered" format="2">
  <advance width="839"/>
  <unicode hex="00AE"/>
  <outline>
    <contour>
      <point x="164" y="100" type="line"/>
      <point x="146" y="115"/>
      <point x="130" y="131" type="qcurve" smooth="yes"/>
      <point x="28" y="233"/>
      <point x="28" y="376" type="qcurve" smooth="yes"/>
      <point x="28" y="519"/>
      <point x="130" y="621" type="qcurve" smooth="yes"/>
      <point x="231" y="722"/>
      <point x="374" y="722" type="qcurve" smooth="yes"/>
      <point x="445" y="722"/>
      <point x="568" y="672"/>
      <point x="619" y="621" type="qcurve" smooth="yes"/>
      <point x="627" y="613"/>
      <point x="642" y="595"/>
      <point x="649" y="587" type="qcurve"/>
      <point x="707" y="529" type="line" smooth="yes"/>
      <point x="808" y="428"/>
      <point x="808" y="286" type="qcurve" smooth="yes"/>
      <point x="808" y="144"/>
      <point x="707" y="43" type="qcurve" smooth="yes"/>
      <point x="657" y="-7"/>
      <point x="534" y="-57"/>
      <point x="464" y="-57" type="qcurve" smooth="yes"/>
      <point x="322" y="-57"/>
      <point x="222" y="43" type="qcurve" smooth="yes"/>
    </contour>
    <contour>
      <point x="485" y="468" type="qcurve" smooth="yes"/>
      <point x="485" y="444"/>
      <point x="453" y="413"/>
      <point x="430" y="413" type="qcurve"/>
      <point x="430" y="524" type="line"/>
      <point x="453" y="524"/>
      <point x="485" y="492"/>
    </contour>
    <contour>
      <point x="464" y="383" type="qcurve"/>
      <point x="495" y="395"/>
      <point x="522" y="434"/>
      <point x="522" y="468" type="qcurve" smooth="yes"/>
      <point x="522" y="507"/>
      <point x="469" y="561"/>
      <point x="430" y="561" type="qcurve" smooth="yes"/>
      <point x="208" y="561" type="line"/>
      <point x="208" y="191" type="line"/>
      <point x="430" y="191" type="line"/>
      <point x="430" y="376" type="line"/>
      <point x="512" y="191" type="line"/>
      <point x="550" y="191" type="line"/>
      <point x="528" y="239"/>
      <point x="485" y="335"/>
    </contour>
    <contour>
      <point x="374" y="641" type="qcurve" smooth="yes"/>
      <point x="429" y="641"/>
      <point x="526" y="599"/>
      <point x="598" y="527"/>
      <point x="640" y="431"/>
      <point x="640" y="376" type="qcurve" smooth="yes"/>
      <point x="640" y="321"/>
      <point x="598" y="225"/>
      <point x="526" y="153"/>
      <point x="429" y="111"/>
      <point x="374" y="111" type="qcurve" smooth="yes"/>
      <point x="319" y="111"/>
      <point x="223" y="153"/>
      <point x="151" y="225"/>
      <point x="109" y="321"/>
      <point x="109" y="376" type="qcurve" smooth="yes"/>
      <point x="109" y="431"/>
      <point x="151" y="527"/>
      <point x="223" y="599"/>
      <point x="319" y="641"/>
    </contour>
    <contour>
      <point x="374" y="65" type="qcurve" smooth="yes"/>
      <point x="437" y="65"/>
      <point x="549" y="111"/>
      <point x="594" y="156" type="qcurve" smooth="yes"/>
      <point x="686" y="248"/>
      <point x="686" y="376" type="qcurve" smooth="yes"/>
      <point x="686" y="439"/>
      <point x="639" y="551"/>
      <point x="594" y="596" type="qcurve" smooth="yes"/>
      <point x="549" y="641"/>
      <point x="437" y="687"/>
      <point x="374" y="687" type="qcurve" smooth="yes"/>
      <point x="311" y="687"/>
      <point x="200" y="641"/>
      <point x="155" y="596" type="qcurve" smooth="yes"/>
      <point x="110" y="551"/>
      <point x="63" y="439"/>
      <point x="63" y="376" type="qcurve" smooth="yes"/>
      <point x="63" y="248"/>
      <point x="155" y="156" type="qcurve" smooth="yes"/>
      <point x="200" y="111"/>
      <point x="311" y="65"/>
    </contour>
  </outline>
</glyph>
<glyph name="macron" format="2">
  <advance width="649"/>
  <unicode hex="00AF"/>
  <outline>
    <contour>
      <point x="50" y="977" type="line"/>
      <point x="521" y="977" type="line"/>
      <point x="521" y="971" type="line"/>
      <point x="608" y="884" type="line"/>
      <point x="608" y="709" type="line"/>
      <point x="143" y="709" type="line"/>
      <point x="56" y="796" type="line"/>
      <point x="50" y="796" type="line"/>
    </contour>
    <contour>
      <point x="85" y="831" type="line"/>
      <point x="486" y="831" type="line"/>
      <point x="486" y="942" type="line"/>
      <point x="85" y="942" type="line"/>
    </contour>
  </outline>
</glyph>
<glyph name="degree" format="2">
  <advance width="576"/>
  <unicode hex="00B0"/>
  <outline>
    <contour>
      <point x="322" y="494" type="qcurve"/>
      <point x="290" y="491"/>
      <point x="245" y="447"/>
      <point x="243" y="415" type="qcurve"/>
      <point x="275" y="417"/>
      <point x="320" y="462"/>
    </contour>
    <contour>
      <point x="113" y="319" type="line"/>
      <point x="71" y="348"/>
      <point x="22" y="441"/>
      <point x="22" y="498" type="qcurve" smooth="yes"/>
      <point x="22" y="542"/>
      <point x="55" y="621"/>
      <point x="114" y="680"/>
      <point x="193" y="715"/>
      <point x="239" y="715" type="qcurve" smooth="yes"/>
      <point x="294" y="715"/>
      <point x="389" y="662"/>
      <point x="418" y="618" type="qcurve"/>
      <point x="479" y="558" type="line" smooth="yes"/>
      <point x="508" y="529"/>
      <point x="543" y="452"/>
      <point x="543" y="408" type="qcurve" smooth="yes"/>
      <point x="543" y="363"/>
      <point x="509" y="285"/>
      <point x="450" y="227"/>
      <point x="372" y="194"/>
      <point x="329" y="194" type="qcurve" smooth="yes"/>
      <point x="284" y="194"/>
      <point x="206" y="227"/>
      <point x="177" y="256" type="qcurve" smooth="yes"/>
    </contour>
    <contour>
      <point x="239" y="616" type="qcurve" smooth="yes"/>
      <point x="263" y="616"/>
      <point x="306" y="597"/>
      <point x="338" y="565"/>
      <point x="357" y="522"/>
      <point x="357" y="498" type="qcurve" smooth="yes"/>
      <point x="357" y="474"/>
      <point x="338" y="431"/>
      <point x="306" y="399"/>
      <point x="263" y="380"/>
      <point x="239" y="380" type="qcurve" smooth="yes"/>
      <point x="215" y="380"/>
      <point x="172" y="399"/>
      <point x="140" y="431"/>
      <point x="121" y="474"/>
      <point x="121" y="498" type="qcurve" smooth="yes"/>
      <point x="121" y="522"/>
      <point x="140" y="565"/>
      <point x="172" y="597"/>
      <point x="215" y="616"/>
    </contour>
    <contour>
      <point x="239" y="316" type="qcurve" smooth="yes"/>
      <point x="276" y="316"/>
      <point x="342" y="344"/>
      <point x="392" y="393"/>
      <point x="421" y="460"/>
      <point x="421" y="498" type="qcurve" smooth="yes"/>
      <point x="421" y="535"/>
      <point x="392" y="601"/>
      <point x="342" y="651"/>
      <point x="276" y="680"/>
      <point x="239" y="680" type="qcurve" smooth="yes"/>
      <point x="201" y="680"/>
      <point x="134" y="651"/>
      <point x="85" y="601"/>
      <point x="57" y="535"/>
      <point x="57" y="498" type="qcurve" smooth="yes"/>
      <point x="57" y="460"/>
      <point x="85" y="393"/>
      <point x="134" y="344"/>
      <point x="201" y="316"/>
    </contour>
  </outline>
</glyph>
<glyph name="acute" format="2">
  <advance width="484"/>
  <unicode hex="00B4"/>
  <outline>
    <contour>
      <point x="364" y="987" type="line"/>
      <point x="452" y="899" type="line"/>
      <point x="320" y="701" type="line"/>
      <point x="180" y="756" type="line"/>
      <point x="96" y="840" type="line"/>
      <point x="86" y="844" type="line"/>
      <point x="172" y="1083" type="line"/>
      <point x="366" y="990" type="line"/>
    </contour>
    <contour>
      <point x="314" y="976" type="line"/>
      <point x="192" y="1035" type="line"/>
      <point x="131" y="865" type="line"/>
      <point x="217" y="831" type="line"/>
    </contour>
  </outline>
</glyph>
<glyph name="paragraph" format="2">
  <advance width="901"/>
  <unicode hex="00B6"/>
  <outline>
    <contour>
      <point x="786" y="724" type="line"/>
      <point x="873" y="637" type="line"/>
      <point x="873" y="498" type="line"/>
      <point x="793" y="498" type="line"/>
      <point x="793" y="-294" type="line"/>
      <point x="654" y="-294" type="line"/>
      <point x="580" y="-220" type="line"/>
      <point x="580" y="-294" type="line"/>
      <point x="441" y="-294" type="line"/>
      <point x="354" y="-207" type="line"/>
      <point x="348" y="-207" type="line"/>
      <point x="348" y="225" type="line"/>
      <point x="327" y="225" type="line" smooth="yes"/>
      <point x="284" y="225"/>
      <point x="209" y="257"/>
      <point x="181" y="285" type="qcurve" smooth="yes"/>
      <point x="115" y="351" type="line"/>
      <point x="75" y="380"/>
      <point x="28" y="467"/>
      <point x="28" y="521" type="qcurve" smooth="yes"/>
      <point x="28" y="564"/>
      <point x="61" y="641"/>
      <point x="117" y="697"/>
      <point x="193" y="730"/>
      <point x="237" y="730" type="qcurve" smooth="yes"/>
      <point x="786" y="730" type="line"/>
    </contour>
    <contour>
      <point x="751" y="695" type="line"/>
      <point x="237" y="695" type="line" smooth="yes"/>
      <point x="201" y="695"/>
      <point x="138" y="668"/>
      <point x="90" y="620"/>
      <point x="63" y="557"/>
      <point x="63" y="521" type="qcurve" smooth="yes"/>
      <point x="63" y="485"/>
      <point x="90" y="422"/>
      <point x="138" y="374"/>
      <point x="201" y="347"/>
      <point x="237" y="347" type="qcurve" smooth="yes"/>
      <point x="383" y="347" type="line"/>
      <point x="383" y="-172" type="line"/>
      <point x="458" y="-172" type="line"/>
      <point x="458" y="620" type="line"/>
      <point x="596" y="620" type="line"/>
      <point x="596" y="-172" type="line"/>
      <point x="671" y="-172" type="line"/>
      <point x="671" y="620" type="line"/>
      <point x="751" y="620" type="line"/>
    </contour>
  </outline>
</glyph>
<glyph name="guillemotright" format="2">
  <advance width="833"/>
  <unicode hex="00BB"/>
  <outline>
    <contour>
      <point x="702" y="419" type="line"/>
      <point x="789" y="332" type="line"/>
      <point x="789" y="213" type="line"/>
      <point x="400" y="-17" type="line"/>
      <point x="312" y="70" type="line"/>
      <point x="307" y="67" type="line"/>
      <point x="307" y="97" type="line"/>
      <point x="113" y="-17" type="line"/>
      <point x="25" y="70" type="line"/>
      <point x="20" y="67" type="line"/>
      <point x="20" y="262" type="line"/>
      <point x="160" y="345" type="line"/>
      <point x="113" y="374" type="line"/>
      <point x="31" y="455" type="line"/>
      <point x="20" y="462" type="line"/>
      <point x="20" y="658" type="line"/>
      <point x="307" y="488" type="line"/>
      <point x="307" y="658" type="line"/>
      <point x="702" y="424" type="line"/>
    </contour>
    <contour>
      <point x="380" y="403" type="line"/>
      <point x="55" y="596" type="line"/>
      <point x="55" y="483" type="line"/>
      <point x="104" y="454"/>
      <point x="206" y="392"/>
      <point x="257" y="363" type="qcurve"/>
      <point x="55" y="242" type="line"/>
      <point x="55" y="129" type="line"/>
      <point x="380" y="322" type="line"/>
    </contour>
    <contour>
      <point x="667" y="403" type="line"/>
      <point x="342" y="596" type="line"/>
      <point x="342" y="483" type="line"/>
      <point x="391" y="454"/>
      <point x="493" y="392"/>
      <point x="544" y="363" type="qcurve"/>
      <point x="342" y="242" type="line"/>
      <point x="342" y="129" type="line"/>
      <point x="667" y="322" type="line"/>
    </contour>
  </outline>
</glyph>
<glyph name="questiondown" format="2">
  <advance width="966"/>
  <unicode hex="00BF"/>
  <outline>
    <contour>
      <point x="638" y="727" type="line"/>
      <point x="725" y="640" type="line"/>
      <point x="725" y="485" type="line"/>
      <point x="724" y="485" type="line"/>
      <point x="724" y="245" type="line"/>
      <point x="846" y="245" type="line"/>
      <point x="846" y="239" type="line"/>
      <point x="933" y="152" type="line"/>
      <point x="933" y="105"/>
      <point x="907" y="20"/>
      <point x="861" y="-51"/>
      <point x="797" y="-101"/>
      <point x="759" y="-111" type="qcurve" smooth="yes"/>
      <point x="738" y="-117"/>
      <point x="695" y="-121"/>
      <point x="675" y="-121" type="qcurve" smooth="yes"/>
      <point x="547" y="-121" type="line" smooth="yes"/>
      <point x="515" y="-121"/>
      <point x="452" y="-120"/>
      <point x="420" y="-120" type="qcurve" smooth="yes"/>
      <point x="400" y="-120"/>
      <point x="371" y="-121"/>
      <point x="361" y="-122" type="qcurve"/>
      <point x="346" y="-122" type="line" smooth="yes"/>
      <point x="298" y="-122"/>
      <point x="214" y="-88"/>
      <point x="183" y="-57" type="qcurve" smooth="yes"/>
      <point x="118" y="8" type="line"/>
      <point x="80" y="35"/>
      <point x="33" y="119"/>
      <point x="33" y="173" type="qcurve" smooth="yes"/>
      <point x="33" y="280" type="line" smooth="yes"/>
      <point x="33" y="326"/>
      <point x="62" y="407"/>
      <point x="116" y="467"/>
      <point x="193" y="501"/>
      <point x="242" y="501" type="qcurve" smooth="yes"/>
      <point x="258" y="501" type="line"/>
      <point x="258" y="586" type="line"/>
      <point x="259" y="586" type="line"/>
      <point x="259" y="733" type="line"/>
      <point x="638" y="733" type="line"/>
    </contour>
    <contour>
      <point x="68" y="173" type="line" smooth="yes"/>
      <point x="68" y="134"/>
      <point x="99" y="70"/>
      <point x="151" y="25"/>
      <point x="219" y="0"/>
      <point x="256" y="0" type="qcurve" smooth="yes"/>
      <point x="263" y="0"/>
      <point x="301" y="2"/>
      <point x="330" y="2" type="qcurve" smooth="yes"/>
      <point x="394" y="2"/>
      <point x="521" y="1"/>
      <point x="585" y="1" type="qcurve" smooth="yes"/>
      <point x="604" y="1"/>
      <point x="642" y="5"/>
      <point x="661" y="10" type="qcurve" smooth="yes"/>
      <point x="694" y="19"/>
      <point x="749" y="58"/>
      <point x="789" y="112"/>
      <point x="811" y="176"/>
      <point x="811" y="210" type="qcurve"/>
      <point x="741" y="210" type="line"/>
      <point x="741" y="181"/>
      <point x="719" y="131"/>
      <point x="682" y="94"/>
      <point x="631" y="72"/>
      <point x="603" y="72" type="qcurve"/>
      <point x="602" y="551" type="line"/>
      <point x="293" y="551" type="line"/>
      <point x="293" y="466" type="line"/>
      <point x="242" y="466" type="line" smooth="yes"/>
      <point x="201" y="466"/>
      <point x="137" y="437"/>
      <point x="92" y="386"/>
      <point x="68" y="319"/>
      <point x="68" y="280" type="qcurve" smooth="yes"/>
    </contour>
    <contour>
      <point x="603" y="698" type="line"/>
      <point x="294" y="698" type="line"/>
      <point x="294" y="607" type="line"/>
      <point x="603" y="607" type="line"/>
    </contour>
  </outline>
</glyph>
<glyph name="multiply" format="2">
  <advance width="654"/>
  <unicode hex="00D7"/>
  <outline>
    <contour>
      <point x="466" y="565" type="line"/>
      <point x="539" y="493" type="line"/>
      <point x="626" y="385" type="line"/>
      <point x="495" y="279" type="line"/>
      <point x="540" y="243" type="line"/>
      <point x="538" y="241" type="line"/>
      <point x="626" y="153" type="line"/>
      <point x="539" y="45" type="line"/>
      <point x="370" y="180" type="line"/>
      <point x="202" y="45" type="line"/>
      <point x="114" y="133" type="line"/>
      <point x="112" y="131" type="line"/>
      <point x="21" y="244" type="line"/>
      <point x="155" y="351" type="line"/>
      <point x="115" y="384" type="line"/>
      <point x="42" y="457" type="line"/>
      <point x="21" y="474" type="line"/>
      <point x="112" y="587" type="line"/>
      <point x="280" y="452" type="line"/>
      <point x="449" y="587" type="line"/>
    </contour>
    <contour>
      <point x="444" y="538" type="line"/>
      <point x="280" y="407" type="line"/>
      <point x="117" y="538" type="line"/>
      <point x="70" y="479" type="line"/>
      <point x="220" y="359" type="line"/>
      <point x="70" y="239" type="line"/>
      <point x="117" y="180" type="line"/>
      <point x="280" y="311" type="line"/>
      <point x="444" y="180" type="line"/>
      <point x="491" y="238" type="line"/>
      <point x="340" y="359" type="line"/>
      <point x="491" y="480" type="line"/>
    </contour>
  </outline>
</glyph>
<glyph name="Oslash" format="2">
  <advance width="863"/>
  <unicode hex="00D8"/>
  <outline>
    <contour>
      <point x="138" y="10" type="line"/>
      <point x="92" y="43"/>
      <point x="38" y="146"/>
      <point x="38" y="208" type="qcurve" smooth="yes"/>
      <point x="38" y="486" type="line" smooth="yes"/>
      <point x="38" y="537"/>
      <point x="76" y="626"/>
      <point x="142" y="692"/>
      <point x="230" y="730"/>
      <point x="281" y="730" type="qcurve" smooth="yes"/>
      <point x="490" y="730" type="line" smooth="yes"/>
      <point x="530" y="730"/>
      <point x="565" y="718" type="qcurve"/>
      <point x="574" y="764" type="line"/>
      <point x="703" y="764" type="line"/>
      <point x="702" y="758" type="line"/>
      <point x="789" y="671" type="line"/>
      <point x="766" y="548" type="line"/>
      <point x="777" y="535"/>
      <point x="793" y="506"/>
      <point x="801" y="490" type="qcurve" smooth="yes"/>
      <point x="820" y="449"/>
      <point x="820" y="396" type="qcurve" smooth="yes"/>
      <point x="820" y="111" type="line" smooth="yes"/>
      <point x="820" y="74"/>
      <point x="797" y="8"/>
      <point x="757" y="-47"/>
      <point x="703" y="-90"/>
      <point x="671" y="-103" type="qcurve" smooth="yes"/>
      <point x="661" y="-107"/>
      <point x="647" y="-111"/>
      <point x="639" y="-113" type="qcurve"/>
      <point x="636" y="-127"/>
      <point x="631" y="-160"/>
      <point x="629" y="-168" type="qcurve"/>
      <point x="514" y="-168" type="line"/>
      <point x="468" y="-122" type="line"/>
      <point x="371" y="-122" type="line" smooth="yes"/>
      <point x="320" y="-122"/>
      <point x="233" y="-84"/>
      <point x="201" y="-52" type="qcurve" smooth="yes"/>
    </contour>
    <contour>
      <point x="623" y="528" type="line"/>
      <point x="629" y="508"/>
      <point x="629" y="486" type="qcurve" smooth="yes"/>
      <point x="629" y="232" type="line" smooth="yes"/>
      <point x="629" y="181"/>
      <point x="592" y="102"/>
      <point x="553" y="82" type="qcurve" smooth="yes"/>
      <point x="549" y="80"/>
      <point x="541" y="77"/>
      <point x="536" y="75" type="qcurve"/>
    </contour>
    <contour>
      <point x="490" y="625" type="line"/>
      <point x="518" y="625"/>
      <point x="545" y="614" type="qcurve" smooth="yes"/>
      <point x="563" y="607"/>
      <point x="577" y="594" type="qcurve"/>
      <point x="490" y="137" type="line"/>
    </contour>
    <contour>
      <point x="698" y="486" type="line" smooth="yes"/>
      <point x="698" y="531"/>
      <point x="682" y="567" type="qcurve" smooth="yes"/>
      <point x="674" y="584"/>
      <point x="654" y="615"/>
      <point x="642" y="628" type="qcurve"/>
      <point x="661" y="729" type="line"/>
      <point x="603" y="729" type="line"/>
      <point x="591" y="668" type="line"/>
      <point x="581" y="675"/>
      <point x="571" y="679" type="qcurve" smooth="yes"/>
      <point x="535" y="695"/>
      <point x="490" y="695" type="qcurve" smooth="yes"/>
      <point x="281" y="695" type="line" smooth="yes"/>
      <point x="238" y="695"/>
      <point x="162" y="662"/>
      <point x="106" y="605"/>
      <point x="73" y="529"/>
      <point x="73" y="486" type="qcurve" smooth="yes"/>
      <point x="73" y="208" type="line" smooth="yes"/>
      <point x="73" y="165"/>
      <point x="106" y="89"/>
      <point x="162" y="33"/>
      <point x="238" y="0"/>
      <point x="281" y="0" type="qcurve" smooth="yes"/>
      <point x="464" y="0" type="line"/>
      <point x="455" y="-46" type="line"/>
      <point x="513" y="-46" type="line"/>
      <point x="522" y="3" type="line"/>
      <point x="533" y="5"/>
      <point x="557" y="11"/>
      <point x="568" y="16" type="qcurve" smooth="yes"/>
      <point x="596" y="28"/>
      <point x="643" y="65"/>
      <point x="678" y="113"/>
      <point x="698" y="169"/>
      <point x="698" y="201" type="qcurve" smooth="yes"/>
    </contour>
  </outline>
</glyph>
<glyph name="Thorn" format="2">
  <advance width="869"/>
  <unicode hex="00DE"/>
  <outline>
    <contour>
      <point x="265" y="730" type="line"/>
      <point x="486" y="730" type="line" smooth="yes"/>
      <point x="547" y="730"/>
      <point x="650" y="675"/>
      <point x="683" y="628" type="qcurve"/>
      <point x="745" y="567" type="line" smooth="yes"/>
      <point x="778" y="534"/>
      <point x="816" y="447"/>
      <point x="816" y="396" type="qcurve" smooth="yes"/>
      <point x="816" y="111" type="line" smooth="yes"/>
      <point x="816" y="63"/>
      <point x="776" y="-22"/>
      <point x="710" y="-85"/>
      <point x="623" y="-122"/>
      <point x="576" y="-122" type="qcurve" smooth="yes"/>
      <point x="265" y="-122" type="line"/>
      <point x="265" y="-286" type="line"/>
      <point x="126" y="-286" type="line"/>
      <point x="39" y="-199" type="line"/>
      <point x="33" y="-199" type="line"/>
      <point x="33" y="902" type="line"/>
      <point x="178" y="902" type="line"/>
      <point x="178" y="896" type="line"/>
      <point x="265" y="809" type="line"/>
    </contour>
    <contour>
      <point x="486" y="625" type="line"/>
      <point x="515" y="625"/>
      <point x="566" y="603"/>
      <point x="603" y="566"/>
      <point x="625" y="515"/>
      <point x="625" y="486" type="qcurve" smooth="yes"/>
      <point x="625" y="232" type="line" smooth="yes"/>
      <point x="625" y="199"/>
      <point x="609" y="139"/>
      <point x="575" y="95"/>
      <point x="523" y="69"/>
      <point x="486" y="69" type="qcurve"/>
    </contour>
    <contour>
      <point x="694" y="486" type="line" smooth="yes"/>
      <point x="694" y="529"/>
      <point x="661" y="605"/>
      <point x="605" y="662"/>
      <point x="529" y="695"/>
      <point x="486" y="695" type="qcurve" smooth="yes"/>
      <point x="143" y="695" type="line"/>
      <point x="143" y="867" type="line"/>
      <point x="68" y="867" type="line"/>
      <point x="68" y="-164" type="line"/>
      <point x="143" y="-164" type="line"/>
      <point x="143" y="0" type="line"/>
      <point x="486" y="0" type="line" smooth="yes"/>
      <point x="526" y="0"/>
      <point x="602" y="32"/>
      <point x="659" y="86"/>
      <point x="694" y="159"/>
      <point x="694" y="201" type="qcurve" smooth="yes"/>
    </contour>
  </outline>
</glyph>
<glyph name="germandbls" format="2">
  <advance width="851"/>
  <unicode hex="00DF"/>
  <outline>
    <contour>
      <point x="744" y="293" type="line"/>
      <point x="745" y="293"/>
      <point x="745" y="292" type="qcurve"/>
    </contour>
    <contour>
      <point x="32" y="-35" type="line"/>
      <point x="26" y="-35" type="line"/>
      <point x="26" y="486" type="line" smooth="yes"/>
      <point x="26" y="537"/>
      <point x="64" y="626"/>
      <point x="130" y="692"/>
      <point x="218" y="730"/>
      <point x="269" y="730" type="qcurve" smooth="yes"/>
      <point x="488" y="730" type="line" smooth="yes"/>
      <point x="542" y="730"/>
      <point x="631" y="683"/>
      <point x="659" y="642" type="qcurve"/>
      <point x="724" y="578" type="line" smooth="yes"/>
      <point x="752" y="550"/>
      <point x="784" y="475"/>
      <point x="784" y="430" type="qcurve" smooth="yes"/>
      <point x="784" y="356"/>
      <point x="737" y="300" type="qcurve"/>
      <point x="745" y="292" type="line"/>
      <point x="753" y="285" type="line"/>
      <point x="819" y="219"/>
      <point x="819" y="120" type="qcurve" smooth="yes"/>
      <point x="819" y="70"/>
      <point x="782" y="-18"/>
      <point x="717" y="-84"/>
      <point x="629" y="-122"/>
      <point x="578" y="-122" type="qcurve" smooth="yes"/>
      <point x="119" y="-122" type="line"/>
    </contour>
    <contour>
      <point x="627" y="208" type="qcurve" smooth="yes"/>
      <point x="627" y="179"/>
      <point x="605" y="128"/>
      <point x="568" y="91"/>
      <point x="517" y="69"/>
      <point x="488" y="69" type="qcurve"/>
      <point x="488" y="347" type="line"/>
      <point x="517" y="347"/>
      <point x="568" y="325"/>
      <point x="605" y="288"/>
      <point x="627" y="237"/>
    </contour>
    <contour>
      <point x="592" y="521" type="qcurve" smooth="yes"/>
      <point x="592" y="476"/>
      <point x="533" y="417"/>
      <point x="488" y="417" type="qcurve"/>
      <point x="488" y="625" type="line"/>
      <point x="533" y="625"/>
      <point x="592" y="566"/>
    </contour>
    <contour>
      <point x="597" y="386" type="qcurve"/>
      <point x="628" y="411"/>
      <point x="662" y="480"/>
      <point x="662" y="520" type="qcurve" smooth="yes"/>
      <point x="662" y="557"/>
      <point x="635" y="621"/>
      <point x="588" y="668"/>
      <point x="525" y="695"/>
      <point x="488" y="695" type="qcurve" smooth="yes"/>
      <point x="269" y="695" type="line" smooth="yes"/>
      <point x="226" y="695"/>
      <point x="150" y="662"/>
      <point x="94" y="605"/>
      <point x="61" y="529"/>
      <point x="61" y="486" type="qcurve" smooth="yes"/>
      <point x="61" y="0" type="line"/>
      <point x="488" y="0" type="line" smooth="yes"/>
      <point x="532" y="0"/>
      <point x="609" y="33"/>
      <point x="665" y="90"/>
      <point x="697" y="166"/>
      <point x="697" y="210" type="qcurve" smooth="yes"/>
      <point x="697" y="267"/>
      <point x="645" y="357"/>
    </contour>
  </outline>
</glyph>
<glyph name="ae" format="2">
  <advance width="1286"/>
  <unicode hex="00E6"/>
  <outline>
    <contour>
      <point x="486" y="174" type="line"/>
      <point x="486" y="241" type="line"/>
      <point x="442" y="174" type="line"/>
    </contour>
    <contour>
      <point x="1061" y="104" type="line"/>
      <point x="1147" y="104" type="line"/>
      <point x="1147" y="98" type="line"/>
      <point x="1234" y="11" type="line"/>
      <point x="1234" y="-122" type="line"/>
      <point x="579" y="-122" type="line"/>
      <point x="510" y="-53" type="line"/>
      <point x="296" y="-53" type="line"/>
      <point x="247" y="-122" type="line"/>
      <point x="103" y="-122" type="line"/>
      <point x="16" y="-35" type="line"/>
      <point x="7" y="-35" type="line"/>
      <point x="496" y="730" type="line"/>
      <point x="1147" y="730" type="line"/>
      <point x="1147" y="724" type="line"/>
      <point x="1234" y="637" type="line"/>
      <point x="1234" y="503" type="line"/>
      <point x="1061" y="503" type="line"/>
      <point x="1061" y="452" type="line"/>
      <point x="1147" y="452" type="line"/>
      <point x="1147" y="446" type="line"/>
      <point x="1234" y="359" type="line"/>
      <point x="1234" y="225" type="line"/>
      <point x="1061" y="225" type="line"/>
    </contour>
    <contour>
      <point x="521" y="69" type="line"/>
      <point x="521" y="0" type="line"/>
      <point x="1112" y="0" type="line"/>
      <point x="1112" y="69" type="line"/>
      <point x="939" y="69" type="line"/>
      <point x="939" y="347" type="line"/>
      <point x="1112" y="347" type="line"/>
      <point x="1112" y="417" type="line"/>
      <point x="939" y="417" type="line"/>
      <point x="939" y="625" type="line"/>
      <point x="1112" y="625" type="line"/>
      <point x="1112" y="695" type="line"/>
      <point x="515" y="695" type="line"/>
      <point x="71" y="0" type="line"/>
      <point x="141" y="0" type="line"/>
      <point x="190" y="69" type="line"/>
    </contour>
    <contour>
      <point x="521" y="583" type="line"/>
      <point x="521" y="139" type="line"/>
      <point x="233" y="139" type="line"/>
    </contour>
  </outline>
</glyph>
<glyph name="divide" format="2">
  <advance width="666"/>
  <unicode hex="00F7"/>
  <outline>
    <contour>
      <point x="198" y="511" type="qcurve" smooth="yes"/>
      <point x="198" y="553"/>
      <point x="255" y="611"/>
      <point x="297" y="611" type="qcurve" smooth="yes"/>
      <point x="324" y="611"/>
      <point x="368" y="585"/>
      <point x="382" y="563" type="qcurve"/>
      <point x="456" y="490" type="line"/>
      <point x="469" y="476"/>
      <point x="484" y="441"/>
      <point x="484" y="421" type="qcurve" smooth="yes"/>
      <point x="484" y="414"/>
      <point x="482" y="401"/>
      <point x="480" y="395" type="qcurve"/>
      <point x="572" y="395" type="line"/>
      <point x="572" y="389" type="line"/>
      <point x="659" y="302" type="line"/>
      <point x="659" y="163" type="line"/>
      <point x="410" y="163" type="line"/>
      <point x="456" y="117" type="line"/>
      <point x="469" y="103"/>
      <point x="484" y="68"/>
      <point x="484" y="48" type="qcurve" smooth="yes"/>
      <point x="484" y="7"/>
      <point x="428" y="-48"/>
      <point x="387" y="-48" type="qcurve" smooth="yes"/>
      <point x="367" y="-48"/>
      <point x="332" y="-33"/>
      <point x="319" y="-20" type="qcurve" smooth="yes"/>
      <point x="247" y="51" type="line"/>
      <point x="224" y="64"/>
      <point x="198" y="109"/>
      <point x="198" y="138" type="qcurve" smooth="yes"/>
      <point x="198" y="151"/>
      <point x="201" y="163" type="qcurve"/>
      <point x="116" y="163" type="line"/>
      <point x="29" y="250" type="line"/>
      <point x="23" y="250" type="line"/>
      <point x="23" y="395" type="line"/>
      <point x="277" y="395" type="line"/>
      <point x="247" y="424" type="line"/>
      <point x="224" y="437"/>
      <point x="198" y="482"/>
    </contour>
    <contour>
      <point x="233" y="138" type="qcurve" smooth="yes"/>
      <point x="233" y="111"/>
      <point x="270" y="74"/>
      <point x="297" y="74" type="qcurve" smooth="yes"/>
      <point x="324" y="74"/>
      <point x="362" y="111"/>
      <point x="362" y="138" type="qcurve" smooth="yes"/>
      <point x="362" y="165"/>
      <point x="324" y="203"/>
      <point x="297" y="203" type="qcurve" smooth="yes"/>
      <point x="270" y="203"/>
      <point x="233" y="165"/>
    </contour>
    <contour>
      <point x="537" y="360" type="line"/>
      <point x="58" y="360" type="line"/>
      <point x="58" y="285" type="line"/>
      <point x="537" y="285" type="line"/>
    </contour>
    <contour>
      <point x="233" y="511" type="qcurve" smooth="yes"/>
      <point x="233" y="484"/>
      <point x="270" y="447"/>
      <point x="297" y="447" type="qcurve" smooth="yes"/>
      <point x="324" y="447"/>
      <point x="362" y="484"/>
      <point x="362" y="511" type="qcurve" smooth="yes"/>
      <point x="362" y="538"/>
      <point x="324" y="576"/>
      <point x="297" y="576" type="qcurve" smooth="yes"/>
      <point x="270" y="576"/>
      <point x="233" y="538"/>
    </contour>
  </outline>
</glyph>
<glyph name="Dcroat" format="2">
  <advance width="919"/>
  <unicode hex="0110"/>
  <outline>
    <contour>
      <point x="699" y="475" type="line"/>
      <point x="699" y="477"/>
      <point x="698" y="477" type="qcurve"/>
    </contour>
    <contour>
      <point x="92" y="-35" type="line"/>
      <point x="86" y="-35" type="line"/>
      <point x="86" y="224" type="line"/>
      <point x="24" y="286" type="line"/>
      <point x="18" y="286" type="line"/>
      <point x="18" y="418" type="line"/>
      <point x="86" y="418" type="line"/>
      <point x="86" y="730" type="line"/>
      <point x="538" y="730" type="line" smooth="yes"/>
      <point x="600" y="730"/>
      <point x="704" y="675"/>
      <point x="737" y="628" type="qcurve"/>
      <point x="799" y="566" type="line" smooth="yes"/>
      <point x="831" y="534"/>
      <point x="869" y="447"/>
      <point x="869" y="397" type="qcurve" smooth="yes"/>
      <point x="869" y="313" type="line" smooth="yes"/>
      <point x="869" y="291"/>
      <point x="870" y="248"/>
      <point x="870" y="225" type="qcurve" smooth="yes"/>
      <point x="870" y="168" type="line" smooth="yes"/>
      <point x="870" y="154"/>
      <point x="869" y="123"/>
      <point x="868" y="109" type="qcurve" smooth="yes"/>
      <point x="865" y="61"/>
      <point x="827" y="-23"/>
      <point x="763" y="-86"/>
      <point x="677" y="-122"/>
      <point x="628" y="-122" type="qcurve" smooth="yes"/>
      <point x="179" y="-122" type="line"/>
    </contour>
    <contour>
      <point x="538" y="321" type="line"/>
      <point x="594" y="321" type="line"/>
      <point x="594" y="383" type="line"/>
      <point x="538" y="383" type="line"/>
      <point x="538" y="626" type="line"/>
      <point x="566" y="626"/>
      <point x="617" y="604"/>
      <point x="655" y="566"/>
      <point x="677" y="515"/>
      <point x="677" y="487" type="qcurve" smooth="yes"/>
      <point x="677" y="227" type="line" smooth="yes"/>
      <point x="677" y="194"/>
      <point x="660" y="136"/>
      <point x="625" y="94"/>
      <point x="573" y="69"/>
      <point x="538" y="69" type="qcurve"/>
    </contour>
    <contour>
      <point x="748" y="315" type="line" smooth="yes"/>
      <point x="748" y="360"/>
      <point x="747" y="444"/>
      <point x="747" y="487" type="qcurve" smooth="yes"/>
      <point x="747" y="530"/>
      <point x="714" y="606"/>
      <point x="657" y="662"/>
      <point x="581" y="695"/>
      <point x="538" y="695" type="qcurve" smooth="yes"/>
      <point x="121" y="695" type="line"/>
      <point x="121" y="383" type="line"/>
      <point x="53" y="383" type="line"/>
      <point x="53" y="321" type="line"/>
      <point x="121" y="321" type="line"/>
      <point x="121" y="0" type="line"/>
      <point x="538" y="0" type="line" smooth="yes"/>
      <point x="581" y="0"/>
      <point x="655" y="31"/>
      <point x="711" y="86"/>
      <point x="744" y="159"/>
      <point x="746" y="201" type="qcurve" smooth="yes"/>
      <point x="747" y="215"/>
      <point x="748" y="244"/>
      <point x="748" y="258" type="qcurve" smooth="yes"/>
    </contour>
  </outline>
</glyph>
<glyph name="Hbar" format="2">
  <advance width="712"/>
  <unicode hex="0126"/>
  <outline>
    <contour>
      <point x="47" y="-35" type="line"/>
      <point x="41" y="-35" type="line"/>
      <point x="41" y="234" type="line"/>
      <point x="-8" y="283" type="line"/>
      <point x="-14" y="283" type="line"/>
      <point x="-14" y="435" type="line"/>
      <point x="41" y="435" type="line"/>
      <point x="41" y="730" type="line"/>
      <point x="486" y="730" type="line"/>
      <point x="486" y="724" type="line"/>
      <point x="532" y="678" type="line"/>
      <point x="532" y="730" type="line"/>
      <point x="671" y="730" type="line"/>
      <point x="671" y="724" type="line"/>
      <point x="758" y="637" type="line"/>
      <point x="758" y="404" type="line"/>
      <point x="820" y="342" type="line"/>
      <point x="820" y="196" type="line"/>
      <point x="758" y="196" type="line"/>
      <point x="758" y="-122" type="line"/>
      <point x="625" y="-122" type="line"/>
      <point x="573" y="-70" type="line"/>
      <point x="573" y="-122" type="line"/>
      <point x="134" y="-122" type="line"/>
    </contour>
    <contour>
      <point x="636" y="400" type="line"/>
      <point x="636" y="695" type="line"/>
      <point x="567" y="695" type="line"/>
      <point x="567" y="400" type="line"/>
      <point x="451" y="400" type="line"/>
      <point x="451" y="695" type="line"/>
      <point x="76" y="695" type="line"/>
      <point x="76" y="400" type="line"/>
      <point x="21" y="400" type="line"/>
      <point x="21" y="318" type="line"/>
      <point x="76" y="318" type="line"/>
      <point x="76" y="0" type="line"/>
      <point x="451" y="0" type="line"/>
      <point x="451" y="129" type="line"/>
      <point x="567" y="129" type="line"/>
      <point x="567" y="0" type="line"/>
      <point x="636" y="0" type="line"/>
      <point x="636" y="318" type="line"/>
      <point x="698" y="318" type="line"/>
      <point x="698" y="400" type="line"/>
    </contour>
    <contour>
      <point x="451" y="198" type="line"/>
      <point x="451" y="318" type="line"/>
      <point x="567" y="318" type="line"/>
      <point x="567" y="198" type="line"/>
    </contour>
  </outline>
</glyph>
<glyph name="idotless" format="2">
  <advance width="645"/>
  <unicode hex="0131"/>
  <outline>
    <contour>
      <point x="520" y="730" type="line"/>
      <point x="520" y="724" type="line"/>
      <point x="607" y="637" type="line"/>
      <point x="607" y="-122" type="line"/>
      <point x="126" y="-122" type="line"/>
      <point x="39" y="-35" type="line"/>
      <point x="33" y="-35" type="line"/>
      <point x="33" y="730" type="line"/>
    </contour>
    <contour>
      <point x="68" y="695" type="line"/>
      <point x="68" y="0" type="line"/>
      <point x="485" y="0" type="line"/>
      <point x="485" y="695" type="line"/>
    </contour>
  </outline>
</glyph>
<glyph name="lcaron" format="2">
  <advance width="949"/>
  <unicode hex="013E"/>
  <outline>
    <contour>
      <point x="660" y="732" type="line"/>
      <point x="838" y="732" type="line"/>
      <point x="838" y="726" type="line"/>
      <point x="925" y="639" type="line"/>
      <point x="925" y="498" type="line"/>
      <point x="753" y="392" type="line"/>
      <point x="665" y="479" type="line"/>
      <point x="660" y="476" type="line"/>
    </contour>
    <contour>
      <point x="695" y="539" type="line"/>
      <point x="803" y="606" type="line"/>
      <point x="803" y="697" type="line"/>
      <point x="695" y="697" type="line"/>
    </contour>
    <contour>
      <point x="729" y="98" type="line"/>
      <point x="816" y="11" type="line"/>
      <point x="816" y="-122" type="line"/>
      <point x="126" y="-122" type="line"/>
      <point x="39" y="-35" type="line"/>
      <point x="33" y="-35" type="line"/>
      <point x="33" y="730" type="line"/>
      <point x="520" y="730" type="line"/>
      <point x="520" y="724" type="line"/>
      <point x="607" y="637" type="line"/>
      <point x="607" y="104" type="line"/>
      <point x="729" y="104" type="line"/>
    </contour>
    <contour>
      <point x="694" y="69" type="line"/>
      <point x="485" y="69" type="line"/>
      <point x="485" y="695" type="line"/>
      <point x="68" y="695" type="line"/>
      <point x="68" y="0" type="line"/>
      <point x="694" y="0" type="line"/>
    </contour>
  </outline>
</glyph>
<glyph name="Lslash" format="2">
  <advance width="913"/>
  <unicode hex="0141"/>
  <outline>
    <contour>
      <point x="111" y="-35" type="line"/>
      <point x="105" y="-35" type="line"/>
      <point x="105" y="154" type="line"/>
      <point x="61" y="197" type="line"/>
      <point x="57" y="196" type="line"/>
      <point x="13" y="331" type="line"/>
      <point x="105" y="365" type="line"/>
      <point x="105" y="730" type="line"/>
      <point x="592" y="730" type="line"/>
      <point x="592" y="724" type="line"/>
      <point x="679" y="637" type="line"/>
      <point x="679" y="548" type="line"/>
      <point x="750" y="477" type="line"/>
      <point x="801" y="354" type="line"/>
      <point x="679" y="308" type="line"/>
      <point x="679" y="104" type="line"/>
      <point x="801" y="104" type="line"/>
      <point x="801" y="98" type="line"/>
      <point x="888" y="11" type="line"/>
      <point x="888" y="-122" type="line"/>
      <point x="198" y="-122" type="line"/>
    </contour>
    <contour>
      <point x="642" y="527" type="line"/>
      <point x="557" y="495" type="line"/>
      <point x="557" y="695" type="line"/>
      <point x="140" y="695" type="line"/>
      <point x="140" y="340" type="line"/>
      <point x="57" y="309" type="line"/>
      <point x="79" y="241" type="line"/>
      <point x="140" y="264" type="line"/>
      <point x="140" y="0" type="line"/>
      <point x="766" y="0" type="line"/>
      <point x="766" y="69" type="line"/>
      <point x="557" y="69" type="line"/>
      <point x="557" y="420" type="line"/>
      <point x="669" y="462" type="line"/>
    </contour>
  </outline>
</glyph>
<glyph name="lslash" format="2">
  <advance width="913"/>
  <unicode hex="0142"/>
  <outline>
    <contour>
      <point x="114" y="-35" type="line"/>
      <point x="108" y="-35" type="line"/>
      <point x="108" y="154" type="line"/>
      <point x="64" y="197" type="line"/>
      <point x="60" y="196" type="line"/>
      <point x="16" y="331" type="line"/>
      <point x="108" y="365" type="line"/>
      <point x="108" y="730" type="line"/>
      <point x="595" y="730" type="line"/>
      <point x="595" y="724" type="line"/>
      <point x="682" y="637" type="line"/>
      <point x="682" y="548" type="line"/>
      <point x="753" y="477" type="line"/>
      <point x="804" y="354" type="line"/>
      <point x="682" y="308" type="line"/>
      <point x="682" y="104" type="line"/>
      <point x="804" y="104" type="line"/>
      <point x="804" y="98" type="line"/>
      <point x="891" y="11" type="line"/>
      <point x="891" y="-122" type="line"/>
      <point x="201" y="-122" type="line"/>
    </contour>
    <contour>
      <point x="645" y="527" type="line"/>
      <point x="560" y="495" type="line"/>
      <point x="560" y="695" type="line"/>
      <point x="143" y="695" type="line"/>
      <point x="143" y="340" type="line"/>
      <point x="60" y="309" type="line"/>
      <point x="82" y="241" type="line"/>
      <point x="143" y="264" type="line"/>
      <point x="143" y="0" type="line"/>
      <point x="769" y="0" type="line"/>
      <point x="769" y="69" type="line"/>
      <point x="560" y="69" type="line"/>
      <point x="560" y="420" type="line"/>
      <point x="672" y="462" type="line"/>
    </contour>
  </outline>
</glyph>
<glyph name="OE" format="2">
  <advance width="1289"/>
  <unicode hex="0152"/>
  <outline>
    <contour>
      <point x="1075" y="452" type="line"/>
      <point x="1161" y="452" type="line"/>
      <point x="1161" y="446" type="line"/>
      <point x="1248" y="359" type="line"/>
      <point x="1248" y="225" type="line"/>
      <point x="1075" y="225" type="line"/>
      <point x="1075" y="104" type="line"/>
      <point x="1161" y="104" type="line"/>
      <point x="1161" y="98" type="line"/>
      <point x="1248" y="11" type="line"/>
      <point x="1248" y="-122" type="line"/>
      <point x="659" y="-122" type="line"/>
      <point x="630" y="-93" type="line"/>
      <point x="604" y="-107"/>
      <point x="548" y="-122"/>
      <point x="519" y="-122" type="qcurve" smooth="yes"/>
      <point x="372" y="-122" type="line" smooth="yes"/>
      <point x="321" y="-122"/>
      <point x="234" y="-84"/>
      <point x="202" y="-52" type="qcurve" smooth="yes"/>
      <point x="139" y="10" type="line"/>
      <point x="93" y="43"/>
      <point x="39" y="146"/>
      <point x="39" y="208" type="qcurve" smooth="yes"/>
      <point x="39" y="486" type="line" smooth="yes"/>
      <point x="39" y="537"/>
      <point x="77" y="626"/>
      <point x="143" y="692"/>
      <point x="231" y="730"/>
      <point x="282" y="730" type="qcurve" smooth="yes"/>
      <point x="429" y="730" type="line" smooth="yes"/>
      <point x="467" y="730"/>
      <point x="537" y="708"/>
      <point x="566" y="688" type="qcurve"/>
      <point x="566" y="730" type="line"/>
      <point x="1161" y="730" type="line"/>
      <point x="1161" y="724" type="line"/>
      <point x="1248" y="637" type="line"/>
      <point x="1248" y="503" type="line"/>
      <point x="1075" y="503" type="line"/>
    </contour>
    <contour>
      <point x="429" y="625" type="line"/>
      <point x="458" y="625"/>
      <point x="509" y="603"/>
      <point x="546" y="566"/>
      <point x="568" y="515"/>
      <point x="568" y="486" type="qcurve" smooth="yes"/>
      <point x="568" y="232" type="line" smooth="yes"/>
      <point x="568" y="199"/>
      <point x="552" y="139"/>
      <point x="518" y="95"/>
      <point x="466" y="69"/>
      <point x="429" y="69" type="qcurve"/>
    </contour>
    <contour>
      <point x="953" y="69" type="line"/>
      <point x="953" y="347" type="line"/>
      <point x="1126" y="347" type="line"/>
      <point x="1126" y="417" type="line"/>
      <point x="953" y="417" type="line"/>
      <point x="953" y="625" type="line"/>
      <point x="1126" y="625" type="line"/>
      <point x="1126" y="695" type="line"/>
      <point x="601" y="695" type="line"/>
      <point x="601" y="603" type="line"/>
      <point x="596" y="611"/>
      <point x="583" y="626"/>
      <point x="576" y="633" type="qcurve" smooth="yes"/>
      <point x="548" y="662"/>
      <point x="472" y="695"/>
      <point x="429" y="695" type="qcurve" smooth="yes"/>
      <point x="282" y="695" type="line" smooth="yes"/>
      <point x="239" y="695"/>
      <point x="163" y="662"/>
      <point x="107" y="605"/>
      <point x="74" y="529"/>
      <point x="74" y="486" type="qcurve" smooth="yes"/>
      <point x="74" y="208" type="line" smooth="yes"/>
      <point x="74" y="165"/>
      <point x="107" y="89"/>
      <point x="163" y="33"/>
      <point x="239" y="0"/>
      <point x="282" y="0" type="qcurve" smooth="yes"/>
      <point x="429" y="0" type="line" smooth="yes"/>
      <point x="469" y="0"/>
      <point x="545" y="32"/>
      <point x="573" y="59" type="qcurve" smooth="yes"/>
      <point x="581" y="66"/>
      <point x="594" y="82"/>
      <point x="601" y="90" type="qcurve"/>
      <point x="601" y="0" type="line"/>
      <point x="1126" y="0" type="line"/>
      <point x="1126" y="69" type="line"/>
    </contour>
  </outline>
</glyph>
<glyph name="Tcaron" format="2">
  <advance width="1207"/>
  <unicode hex="0164"/>
  <outline>
    <contour>
      <point x="906" y="732" type="line"/>
      <point x="1084" y="732" type="line"/>
      <point x="1084" y="726" type="line"/>
      <point x="1171" y="639" type="line"/>
      <point x="1171" y="498" type="line"/>
      <point x="999" y="392" type="line"/>
      <point x="911" y="479" type="line"/>
      <point x="906" y="476" type="line"/>
    </contour>
    <contour>
      <point x="941" y="539" type="line"/>
      <point x="1049" y="606" type="line"/>
      <point x="1049" y="697" type="line"/>
      <point x="941" y="697" type="line"/>
    </contour>
    <contour>
      <point x="778" y="724" type="line"/>
      <point x="865" y="637" type="line"/>
      <point x="865" y="503" type="line"/>
      <point x="725" y="503" type="line"/>
      <point x="725" y="-122" type="line"/>
      <point x="247" y="-122" type="line"/>
      <point x="160" y="-35" type="line"/>
      <point x="154" y="-35" type="line"/>
      <point x="153" y="503" type="line"/>
      <point x="106" y="503" type="line"/>
      <point x="19" y="590" type="line"/>
      <point x="13" y="590" type="line"/>
      <point x="13" y="730" type="line"/>
      <point x="778" y="730" type="line"/>
    </contour>
    <contour>
      <point x="743" y="695" type="line"/>
      <point x="48" y="695" type="line"/>
      <point x="48" y="625" type="line"/>
      <point x="188" y="625" type="line"/>
      <point x="189" y="0" type="line"/>
      <point x="603" y="0" type="line"/>
      <point x="603" y="625" type="line"/>
      <point x="743" y="625" type="line"/>
    </contour>
  </outline>
</glyph>
<glyph name="uni0237" format="2">
  <advance width="701"/>
  <unicode hex="0237"/>
  <outline>
    <contour>
      <point x="577" y="730" type="line"/>
      <point x="577" y="724" type="line"/>
      <point x="664" y="637" type="line"/>
      <point x="664" y="119" type="line" smooth="yes"/>
      <point x="664" y="69"/>
      <point x="626" y="-19"/>
      <point x="561" y="-84"/>
      <point x="474" y="-122"/>
      <point x="424" y="-122" type="qcurve" smooth="yes"/>
      <point x="114" y="-122" type="line"/>
      <point x="27" y="-35" type="line"/>
      <point x="21" y="-35" type="line"/>
      <point x="21" y="104" type="line"/>
      <point x="90" y="104" type="line"/>
      <point x="90" y="730" type="line"/>
    </contour>
    <contour>
      <point x="125" y="695" type="line"/>
      <point x="125" y="69" type="line"/>
      <point x="56" y="69" type="line"/>
      <point x="56" y="0" type="line"/>
      <point x="334" y="0" type="line" smooth="yes"/>
      <point x="377" y="0"/>
      <point x="453" y="33"/>
      <point x="509" y="90"/>
      <point x="542" y="166"/>
      <point x="542" y="209" type="qcurve" smooth="yes"/>
      <point x="542" y="695" type="line"/>
    </contour>
  </outline>
</glyph>
<glyph name="dotaccent" format="2">
  <advance width="695"/>
  <unicode hex="02D9"/>
  <outline>
    <contour>
      <point x="137" y="920" type="qcurve" smooth="yes"/>
      <point x="137" y="945"/>
      <point x="156" y="990"/>
      <point x="189" y="1024"/>
      <point x="233" y="1044"/>
      <point x="259" y="1044" type="qcurve" smooth="yes"/>
      <point x="291" y="1044"/>
      <point x="344" y="1013"/>
      <point x="361" y="987" type="qcurve"/>
      <point x="433" y="916" type="line" smooth="yes"/>
      <point x="450" y="899"/>
      <point x="469" y="855"/>
      <point x="469" y="830" type="qcurve" smooth="yes"/>
      <point x="469" y="805"/>
      <point x="450" y="761"/>
      <point x="417" y="728"/>
      <point x="373" y="709"/>
      <point x="349" y="709" type="qcurve" smooth="yes"/>
      <point x="324" y="709"/>
      <point x="281" y="728"/>
      <point x="265" y="744" type="qcurve" smooth="yes"/>
      <point x="194" y="814" type="line"/>
      <point x="168" y="831"/>
      <point x="137" y="886"/>
    </contour>
    <contour>
      <point x="172" y="920" type="qcurve" smooth="yes"/>
      <point x="172" y="883"/>
      <point x="223" y="831"/>
      <point x="259" y="831" type="qcurve" smooth="yes"/>
      <point x="277" y="831"/>
      <point x="309" y="845"/>
      <point x="333" y="869"/>
      <point x="347" y="902"/>
      <point x="347" y="920" type="qcurve" smooth="yes"/>
      <point x="347" y="938"/>
      <point x="333" y="970"/>
      <point x="309" y="995"/>
      <point x="277" y="1009"/>
      <point x="259" y="1009" type="qcurve" smooth="yes"/>
      <point x="241" y="1009"/>
      <point x="209" y="995"/>
      <point x="186" y="970"/>
      <point x="172" y="938"/>
    </contour>
  </outline>
</glyph>
<glyph name="ring" format="2">
  <advance width="543"/>
  <unicode hex="02DA"/>
  <outline>
    <contour>
      <point x="137" y="813" type="line"/>
      <point x="108" y="831"/>
      <point x="72" y="893"/>
      <point x="72" y="930" type="qcurve" smooth="yes"/>
      <point x="72" y="959"/>
      <point x="93" y="1009"/>
      <point x="131" y="1045"/>
      <point x="181" y="1066"/>
      <point x="210" y="1066" type="qcurve" smooth="yes"/>
      <point x="246" y="1066"/>
      <point x="308" y="1031"/>
      <point x="327" y="1002" type="qcurve"/>
      <point x="396" y="933" type="line" smooth="yes"/>
      <point x="414" y="915"/>
      <point x="435" y="867"/>
      <point x="435" y="840" type="qcurve" smooth="yes"/>
      <point x="435" y="813"/>
      <point x="413" y="764"/>
      <point x="376" y="727"/>
      <point x="327" y="705"/>
      <point x="300" y="705" type="qcurve" smooth="yes"/>
      <point x="272" y="705"/>
      <point x="223" y="727"/>
      <point x="205" y="745" type="qcurve" smooth="yes"/>
    </contour>
    <contour>
      <point x="213" y="977" type="qcurve" smooth="yes"/>
      <point x="233" y="977"/>
      <point x="261" y="951"/>
      <point x="261" y="931" type="qcurve" smooth="yes"/>
      <point x="261" y="914"/>
      <point x="233" y="885"/>
      <point x="213" y="885" type="qcurve" smooth="yes"/>
      <point x="191" y="885"/>
      <point x="164" y="914"/>
      <point x="164" y="931" type="qcurve" smooth="yes"/>
      <point x="164" y="951"/>
      <point x="191" y="977"/>
    </contour>
    <contour>
      <point x="210" y="827" type="qcurve" smooth="yes"/>
      <point x="231" y="827"/>
      <point x="268" y="843"/>
      <point x="296" y="872"/>
      <point x="313" y="909"/>
      <point x="313" y="930" type="qcurve" smooth="yes"/>
      <point x="313" y="951"/>
      <point x="296" y="988"/>
      <point x="268" y="1015"/>
      <point x="231" y="1031"/>
      <point x="210" y="1031" type="qcurve" smooth="yes"/>
      <point x="167" y="1031"/>
      <point x="107" y="973"/>
      <point x="107" y="930" type="qcurve" smooth="yes"/>
      <point x="107" y="909"/>
      <point x="123" y="872"/>
      <point x="151" y="843"/>
      <point x="189" y="827"/>
    </contour>
  </outline>
</glyph>
<glyph name="tilde" format="2">
  <advance width="-715"/>
  <unicode hex="02DC"/>
  <outline>
    <contour>
      <point x="-155" y="1005" type="line"/>
      <point x="-157" y="1000" type="line"/>
      <point x="-69" y="913" type="line"/>
      <point x="-83" y="860" type="line"/>
      <point x="-88" y="836"/>
      <point x="-102" y="782"/>
      <point x="-129" y="738"/>
      <point x="-172" y="709"/>
      <point x="-206" y="709" type="qcurve" smooth="yes"/>
      <point x="-227" y="709"/>
      <point x="-276" y="721"/>
      <point x="-299" y="729" type="qcurve" smooth="yes"/>
      <point x="-308" y="732"/>
      <point x="-323" y="735"/>
      <point x="-331" y="738" type="qcurve" smooth="yes"/>
      <point x="-339" y="740"/>
      <point x="-359" y="746"/>
      <point x="-367" y="748" type="qcurve" smooth="yes"/>
      <point x="-373" y="749"/>
      <point x="-375" y="751" type="qcurve"/>
      <point x="-376" y="752" type="line"/>
      <point x="-385" y="751"/>
      <point x="-408" y="733"/>
      <point x="-414" y="710" type="qcurve"/>
      <point x="-518" y="737" type="line"/>
      <point x="-604" y="823" type="line"/>
      <point x="-612" y="825" type="line"/>
      <point x="-602" y="880" type="line" smooth="yes"/>
      <point x="-597" y="905"/>
      <point x="-583" y="961"/>
      <point x="-556" y="1006"/>
      <point x="-511" y="1036"/>
      <point x="-475" y="1036" type="qcurve" smooth="yes"/>
      <point x="-453" y="1036"/>
      <point x="-399" y="1020"/>
      <point x="-374" y="1012" type="qcurve" smooth="yes"/>
      <point x="-354" y="1005"/>
      <point x="-315" y="993"/>
      <point x="-304" y="993" type="qcurve" smooth="yes"/>
      <point x="-296" y="993"/>
      <point x="-274" y="1012"/>
      <point x="-268" y="1038" type="qcurve"/>
    </contour>
    <contour>
      <point x="-243" y="994" type="line"/>
      <point x="-248" y="974"/>
      <point x="-286" y="958"/>
      <point x="-304" y="958" type="qcurve" smooth="yes"/>
      <point x="-321" y="958"/>
      <point x="-364" y="971"/>
      <point x="-411" y="988"/>
      <point x="-456" y="1001"/>
      <point x="-475" y="1001" type="qcurve" smooth="yes"/>
      <point x="-504" y="1001"/>
      <point x="-537" y="970"/>
      <point x="-557" y="924"/>
      <point x="-567" y="872"/>
      <point x="-572" y="851" type="qcurve"/>
      <point x="-527" y="839" type="line"/>
      <point x="-522" y="859"/>
      <point x="-482" y="874"/>
      <point x="-465" y="874" type="qcurve"/>
      <point x="-464" y="874"/>
      <point x="-449" y="870"/>
      <point x="-432" y="864"/>
      <point x="-416" y="860"/>
      <point x="-414" y="860" type="qcurve"/>
      <point x="-414" y="859" type="line"/>
      <point x="-387" y="852"/>
      <point x="-322" y="831"/>
      <point x="-296" y="831" type="qcurve" smooth="yes"/>
      <point x="-268" y="831"/>
      <point x="-234" y="863"/>
      <point x="-214" y="909"/>
      <point x="-204" y="961"/>
      <point x="-199" y="981" type="qcurve"/>
    </contour>
  </outline>
</glyph>
<glyph name="hungarumlaut" format="2">
  <advance width="734"/>
  <unicode hex="02DD"/>
  <outline>
    <contour>
      <point x="600" y="987" type="line"/>
      <point x="688" y="899" type="line"/>
      <point x="556" y="701" type="line"/>
      <point x="416" y="756" type="line"/>
      <point x="358" y="814" type="line"/>
      <point x="283" y="701" type="line"/>
      <point x="143" y="756" type="line"/>
      <point x="59" y="840" type="line"/>
      <point x="49" y="844" type="line"/>
      <point x="135" y="1083" type="line"/>
      <point x="329" y="990" type="line"/>
      <point x="327" y="987" type="line"/>
      <point x="361" y="952" type="line"/>
      <point x="408" y="1083" type="line"/>
      <point x="602" y="990" type="line"/>
    </contour>
    <contour>
      <point x="550" y="976" type="line"/>
      <point x="428" y="1035" type="line"/>
      <point x="367" y="865" type="line"/>
      <point x="453" y="831" type="line"/>
    </contour>
    <contour>
      <point x="277" y="976" type="line"/>
      <point x="155" y="1035" type="line"/>
      <point x="94" y="865" type="line"/>
      <point x="180" y="831" type="line"/>
    </contour>
  </outline>
</glyph>
<glyph name="gravecomb" format="2">
  <advance width="535"/>
  <unicode hex="0300"/>
  <outline>
    <contour>
      <point x="92" y="990" type="line"/>
      <point x="286" y="1083" type="line"/>
      <point x="289" y="1073" type="line"/>
      <point x="374" y="989" type="line"/>
      <point x="458" y="756" type="line"/>
      <point x="318" y="701" type="line"/>
      <point x="230" y="788" type="line"/>
      <point x="227" y="787" type="line"/>
    </contour>
    <contour>
      <point x="241" y="831" type="line"/>
      <point x="327" y="865" type="line"/>
      <point x="266" y="1035" type="line"/>
      <point x="144" y="976" type="line"/>
    </contour>
  </outline>
</glyph>
<glyph name="acutecomb" format="2">
  <advance width="508"/>
  <unicode hex="0301"/>
  <outline>
    <contour>
      <point x="373" y="987" type="line"/>
      <point x="461" y="899" type="line"/>
      <point x="329" y="701" type="line"/>
      <point x="189" y="756" type="line"/>
      <point x="105" y="840" type="line"/>
      <point x="95" y="844" type="line"/>
      <point x="181" y="1083" type="line"/>
      <point x="375" y="990" type="line"/>
    </contour>
    <contour>
      <point x="323" y="976" type="line"/>
      <point x="201" y="1035" type="line"/>
      <point x="140" y="865" type="line"/>
      <point x="226" y="831" type="line"/>
    </contour>
  </outline>
</glyph>
<glyph name="circumflexcomb" format="2">
  <advance width="673"/>
  <unicode hex="0302"/>
  <outline>
    <contour>
      <point x="379" y="846" type="line"/>
      <point x="282" y="701" type="line"/>
      <point x="142" y="756" type="line"/>
      <point x="58" y="840" type="line"/>
      <point x="48" y="844" type="line"/>
      <point x="134" y="1083" type="line"/>
      <point x="306" y="1000" type="line"/>
      <point x="478" y="1083" type="line"/>
      <point x="481" y="1073" type="line"/>
      <point x="566" y="989" type="line"/>
      <point x="650" y="756" type="line"/>
      <point x="510" y="701" type="line"/>
      <point x="422" y="788" type="line"/>
      <point x="419" y="787" type="line"/>
    </contour>
    <contour>
      <point x="276" y="976" type="line"/>
      <point x="154" y="1035" type="line"/>
      <point x="93" y="865" type="line"/>
      <point x="179" y="831" type="line"/>
    </contour>
    <contour>
      <point x="433" y="831" type="line"/>
      <point x="519" y="865" type="line"/>
      <point x="458" y="1035" type="line"/>
      <point x="336" y="976" type="line"/>
    </contour>
  </outline>
</glyph>
<glyph name="tildecomb" format="2">
  <advance width="690"/>
  <unicode hex="0303"/>
  <outline>
    <contour>
      <point x="560" y="1005" type="line"/>
      <point x="558" y="1000" type="line"/>
      <point x="646" y="913" type="line"/>
      <point x="632" y="860" type="line"/>
      <point x="627" y="836"/>
      <point x="613" y="782"/>
      <point x="586" y="738"/>
      <point x="543" y="709"/>
      <point x="509" y="709" type="qcurve" smooth="yes"/>
      <point x="488" y="709"/>
      <point x="439" y="721"/>
      <point x="416" y="729" type="qcurve" smooth="yes"/>
      <point x="407" y="732"/>
      <point x="392" y="735"/>
      <point x="384" y="738" type="qcurve" smooth="yes"/>
      <point x="376" y="740"/>
      <point x="356" y="746"/>
      <point x="348" y="748" type="qcurve" smooth="yes"/>
      <point x="342" y="749"/>
      <point x="340" y="751" type="qcurve"/>
      <point x="339" y="752" type="line"/>
      <point x="330" y="751"/>
      <point x="307" y="733"/>
      <point x="301" y="710" type="qcurve"/>
      <point x="197" y="737" type="line"/>
      <point x="111" y="823" type="line"/>
      <point x="103" y="825" type="line"/>
      <point x="113" y="880" type="line" smooth="yes"/>
      <point x="118" y="905"/>
      <point x="132" y="961"/>
      <point x="159" y="1006"/>
      <point x="204" y="1036"/>
      <point x="240" y="1036" type="qcurve" smooth="yes"/>
      <point x="262" y="1036"/>
      <point x="316" y="1020"/>
      <point x="341" y="1012" type="qcurve" smooth="yes"/>
      <point x="361" y="1005"/>
      <point x="400" y="993"/>
      <point x="411" y="993" type="qcurve" smooth="yes"/>
      <point x="419" y="993"/>
      <point x="441" y="1012"/>
      <point x="447" y="1038" type="qcurve"/>
    </contour>
    <contour>
      <point x="472" y="994" type="line"/>
      <point x="467" y="974"/>
      <point x="429" y="958"/>
      <point x="411" y="958" type="qcurve" smooth="yes"/>
      <point x="394" y="958"/>
      <point x="351" y="971"/>
      <point x="304" y="988"/>
      <point x="259" y="1001"/>
      <point x="240" y="1001" type="qcurve" smooth="yes"/>
      <point x="211" y="1001"/>
      <point x="178" y="970"/>
      <point x="158" y="924"/>
      <point x="148" y="872"/>
      <point x="143" y="851" type="qcurve"/>
      <point x="188" y="839" type="line"/>
      <point x="193" y="859"/>
      <point x="233" y="874"/>
      <point x="250" y="874" type="qcurve"/>
      <point x="251" y="874"/>
      <point x="266" y="870"/>
      <point x="283" y="864"/>
      <point x="299" y="860"/>
      <point x="301" y="860" type="qcurve"/>
      <point x="301" y="859" type="line"/>
      <point x="328" y="852"/>
      <point x="393" y="831"/>
      <point x="419" y="831" type="qcurve" smooth="yes"/>
      <point x="447" y="831"/>
      <point x="481" y="863"/>
      <point x="501" y="909"/>
      <point x="511" y="961"/>
      <point x="516" y="981" type="qcurve"/>
    </contour>
  </outline>
</glyph>
<glyph name="uni0304" format="2">
  <advance width="639"/>
  <unicode hex="0304"/>
  <outline>
    <contour>
      <point x="50" y="977" type="line"/>
      <point x="521" y="977" type="line"/>
      <point x="521" y="971" type="line"/>
      <point x="608" y="884" type="line"/>
      <point x="608" y="709" type="line"/>
      <point x="143" y="709" type="line"/>
      <point x="56" y="796" type="line"/>
      <point x="50" y="796" type="line"/>
    </contour>
    <contour>
      <point x="85" y="831" type="line"/>
      <point x="486" y="831" type="line"/>
      <point x="486" y="942" type="line"/>
      <point x="85" y="942" type="line"/>
    </contour>
  </outline>
</glyph>
<glyph name="uni0306" format="2">
  <advance width="585"/>
  <unicode hex="0306"/>
  <outline>
    <contour>
      <point x="163" y="827" type="line"/>
      <point x="119" y="858"/>
      <point x="65" y="966"/>
      <point x="65" y="1032" type="qcurve"/>
      <point x="229" y="1032" type="line"/>
      <point x="229" y="1026" type="line"/>
      <point x="275" y="980" type="line"/>
      <point x="283" y="1001"/>
      <point x="283" y="1032" type="qcurve"/>
      <point x="447" y="1032" type="line"/>
      <point x="447" y="1026" type="line"/>
      <point x="534" y="939" type="line"/>
      <point x="534" y="892"/>
      <point x="505" y="809"/>
      <point x="454" y="746"/>
      <point x="386" y="709"/>
      <point x="346" y="709" type="qcurve" smooth="yes"/>
      <point x="313" y="709"/>
      <point x="254" y="737"/>
      <point x="229" y="761" type="qcurve" smooth="yes"/>
    </contour>
    <contour>
      <point x="256" y="925" type="qcurve" smooth="yes"/>
      <point x="230" y="925"/>
      <point x="194" y="968"/>
      <point x="194" y="997" type="qcurve"/>
      <point x="100" y="997" type="line"/>
      <point x="100" y="963"/>
      <point x="125" y="903"/>
      <point x="168" y="858"/>
      <point x="224" y="831"/>
      <point x="256" y="831" type="qcurve" smooth="yes"/>
      <point x="289" y="831"/>
      <point x="346" y="858"/>
      <point x="388" y="903"/>
      <point x="412" y="963"/>
      <point x="412" y="997" type="qcurve"/>
      <point x="318" y="997" type="line"/>
      <point x="318" y="968"/>
      <point x="282" y="925"/>
    </contour>
  </outline>
</glyph>
<glyph name="uni0307" format="2">
  <advance width="443"/>
  <unicode hex="0307"/>
  <outline>
    <contour>
      <point x="59" y="920" type="qcurve" smooth="yes"/>
      <point x="59" y="945"/>
      <point x="78" y="990"/>
      <point x="111" y="1024"/>
      <point x="155" y="1044"/>
      <point x="181" y="1044" type="qcurve" smooth="yes"/>
      <point x="213" y="1044"/>
      <point x="266" y="1013"/>
      <point x="283" y="987" type="qcurve"/>
      <point x="355" y="916" type="line" smooth="yes"/>
      <point x="372" y="899"/>
      <point x="391" y="855"/>
      <point x="391" y="830" type="qcurve" smooth="yes"/>
      <point x="391" y="805"/>
      <point x="372" y="761"/>
      <point x="339" y="728"/>
      <point x="295" y="709"/>
      <point x="271" y="709" type="qcurve" smooth="yes"/>
      <point x="246" y="709"/>
      <point x="203" y="728"/>
      <point x="187" y="744" type="qcurve" smooth="yes"/>
      <point x="116" y="814" type="line"/>
      <point x="90" y="831"/>
      <point x="59" y="886"/>
    </contour>
    <contour>
      <point x="94" y="920" type="qcurve" smooth="yes"/>
      <point x="94" y="883"/>
      <point x="145" y="831"/>
      <point x="181" y="831" type="qcurve" smooth="yes"/>
      <point x="199" y="831"/>
      <point x="231" y="845"/>
      <point x="255" y="869"/>
      <point x="269" y="902"/>
      <point x="269" y="920" type="qcurve" smooth="yes"/>
      <point x="269" y="938"/>
      <point x="255" y="970"/>
      <point x="231" y="995"/>
      <point x="199" y="1009"/>
      <point x="181" y="1009" type="qcurve" smooth="yes"/>
      <point x="163" y="1009"/>
      <point x="131" y="995"/>
      <point x="108" y="970"/>
      <point x="94" y="938"/>
    </contour>
  </outline>
</glyph>
<glyph name="uni030A" format="2">
  <advance width="460"/>
  <unicode hex="030A"/>
  <outline>
    <contour>
      <point x="112" y="817" type="line"/>
      <point x="83" y="835"/>
      <point x="47" y="897"/>
      <point x="47" y="934" type="qcurve" smooth="yes"/>
      <point x="47" y="963"/>
      <point x="68" y="1013"/>
      <point x="106" y="1049"/>
      <point x="156" y="1070"/>
      <point x="185" y="1070" type="qcurve" smooth="yes"/>
      <point x="221" y="1070"/>
      <point x="283" y="1035"/>
      <point x="302" y="1006" type="qcurve"/>
      <point x="371" y="937" type="line" smooth="yes"/>
      <point x="389" y="919"/>
      <point x="410" y="871"/>
      <point x="410" y="844" type="qcurve" smooth="yes"/>
      <point x="410" y="817"/>
      <point x="388" y="768"/>
      <point x="351" y="731"/>
      <point x="302" y="709"/>
      <point x="275" y="709" type="qcurve" smooth="yes"/>
      <point x="247" y="709"/>
      <point x="198" y="731"/>
      <point x="180" y="749" type="qcurve" smooth="yes"/>
    </contour>
    <contour>
      <point x="188" y="981" type="qcurve" smooth="yes"/>
      <point x="208" y="981"/>
      <point x="236" y="955"/>
      <point x="236" y="935" type="qcurve" smooth="yes"/>
      <point x="236" y="918"/>
      <point x="208" y="889"/>
      <point x="188" y="889" type="qcurve" smooth="yes"/>
      <point x="166" y="889"/>
      <point x="139" y="918"/>
      <point x="139" y="935" type="qcurve" smooth="yes"/>
      <point x="139" y="955"/>
      <point x="166" y="981"/>
    </contour>
    <contour>
      <point x="185" y="831" type="qcurve" smooth="yes"/>
      <point x="206" y="831"/>
      <point x="243" y="847"/>
      <point x="271" y="876"/>
      <point x="288" y="913"/>
      <point x="288" y="934" type="qcurve" smooth="yes"/>
      <point x="288" y="955"/>
      <point x="271" y="992"/>
      <point x="243" y="1019"/>
      <point x="206" y="1035"/>
      <point x="185" y="1035" type="qcurve" smooth="yes"/>
      <point x="142" y="1035"/>
      <point x="82" y="977"/>
      <point x="82" y="934" type="qcurve" smooth="yes"/>
      <point x="82" y="913"/>
      <point x="98" y="876"/>
      <point x="126" y="847"/>
      <point x="164" y="831"/>
    </contour>
  </outline>
</glyph>
<glyph name="uni030B" format="2">
  <advance width="336"/>
  <unicode hex="030B"/>
  <outline>
    <contour>
      <point x="151" y="976" type="line"/>
      <point x="294" y="915" type="line"/>
      <point x="292" y="911" type="line"/>
      <point x="380" y="823" type="line"/>
      <point x="285" y="594" type="line"/>
      <point x="102" y="693" type="line"/>
      <point x="19" y="776" type="line"/>
      <point x="8" y="782" type="line"/>
    </contour>
    <contour>
      <point x="60" y="793" type="line"/>
      <point x="179" y="729" type="line"/>
      <point x="248" y="896" type="line"/>
      <point x="163" y="933" type="line"/>
    </contour>
  </outline>
</glyph>
<glyph name="uni030C" format="2">
  <advance width="365"/>
  <unicode hex="030C"/>
  <outline>
    <contour>
      <point x="313" y="896" type="line"/>
      <point x="401" y="808" type="line"/>
      <point x="269" y="610" type="line"/>
      <point x="129" y="665" type="line"/>
      <point x="45" y="749" type="line"/>
      <point x="35" y="753" type="line"/>
      <point x="121" y="992" type="line"/>
      <point x="315" y="899" type="line"/>
    </contour>
    <contour>
      <point x="263" y="885" type="line"/>
      <point x="141" y="944" type="line"/>
      <point x="80" y="774" type="line"/>
      <point x="166" y="740" type="line"/>
    </contour>
  </outline>
</glyph>
<glyph name="uni0326" format="2">
  <advance width="267"/>
  <unicode hex="0326"/>
  <outline>
    <contour>
      <point x="37" y="-200" type="line"/>
      <point x="215" y="-200" type="line"/>
      <point x="215" y="-206" type="line"/>
      <point x="302" y="-293" type="line"/>
      <point x="302" y="-434" type="line"/>
      <point x="130" y="-540" type="line"/>
      <point x="42" y="-452" type="line"/>
      <point x="37" y="-456" type="line"/>
    </contour>
    <contour>
      <point x="72" y="-393" type="line"/>
      <point x="180" y="-326" type="line"/>
      <point x="180" y="-235" type="line"/>
      <point x="72" y="-235" type="line"/>
    </contour>
  </outline>
</glyph>
<glyph name="uni0327" format="2">
  <advance width="563"/>
  <unicode hex="0327"/>
  <outline>
    <contour>
      <point x="392" y="-268" type="line" smooth="yes"/>
      <point x="392" y="-235"/>
      <point x="346" y="-189"/>
      <point x="312" y="-189" type="qcurve" smooth="yes"/>
      <point x="269" y="-189" type="line"/>
      <point x="269" y="0" type="line"/>
      <point x="391" y="0" type="line"/>
      <point x="391" y="-184" type="line"/>
      <point x="397" y="-189"/>
      <point x="406" y="-202"/>
      <point x="411" y="-209" type="qcurve"/>
      <point x="482" y="-280" type="line" smooth="yes"/>
      <point x="514" y="-312"/>
      <point x="514" y="-358" type="qcurve" smooth="yes"/>
      <point x="514" y="-400" type="line" smooth="yes"/>
      <point x="514" y="-448"/>
      <point x="450" y="-510"/>
      <point x="402" y="-510" type="qcurve" smooth="yes"/>
      <point x="301" y="-510" type="line" smooth="yes"/>
      <point x="258" y="-510"/>
      <point x="224" y="-476" type="qcurve" smooth="yes"/>
      <point x="153" y="-405" type="line"/>
      <point x="121" y="-384"/>
      <point x="82" y="-304"/>
      <point x="82" y="-253" type="qcurve"/>
      <point x="140" y="-253" type="line"/>
      <point x="140" y="0" type="line"/>
      <point x="175" y="0" type="line"/>
      <point x="175" y="-224" type="line"/>
      <point x="282" y="-224" type="line"/>
      <point x="282" y="-253"/>
      <point x="281" y="-316"/>
      <point x="281" y="-345" type="qcurve"/>
      <point x="211" y="-345" type="line" smooth="yes"/>
      <point x="191" y="-345"/>
      <point x="163" y="-311"/>
      <point x="163" y="-288" type="qcurve"/>
      <point x="117" y="-288" type="line"/>
      <point x="117" y="-309"/>
      <point x="132" y="-346"/>
      <point x="158" y="-373"/>
      <point x="192" y="-388"/>
      <point x="211" y="-388" type="qcurve" smooth="yes"/>
      <point x="312" y="-388" type="line" smooth="yes"/>
      <point x="346" y="-388"/>
      <point x="392" y="-344"/>
      <point x="392" y="-310" type="qcurve" smooth="yes"/>
    </contour>
  </outline>
</glyph>
<glyph name="uni0328" format="2">
  <advance width="499"/>
  <unicode hex="0328"/>
  <outline>
    <contour>
      <point x="75" y="-310" type="line" smooth="yes"/>
      <point x="75" y="-344"/>
      <point x="121" y="-388"/>
      <point x="155" y="-388" type="qcurve" smooth="yes"/>
      <point x="256" y="-388" type="line" smooth="yes"/>
      <point x="275" y="-388"/>
      <point x="309" y="-373"/>
      <point x="335" y="-346"/>
      <point x="350" y="-309"/>
      <point x="350" y="-288" type="qcurve"/>
      <point x="304" y="-288" type="line"/>
      <point x="304" y="-311"/>
      <point x="276" y="-345"/>
      <point x="256" y="-345" type="qcurve" smooth="yes"/>
      <point x="186" y="-345" type="line"/>
      <point x="186" y="-316"/>
      <point x="185" y="-253"/>
      <point x="185" y="-224" type="qcurve"/>
      <point x="292" y="-224" type="line"/>
      <point x="292" y="0" type="line"/>
      <point x="327" y="0" type="line"/>
      <point x="327" y="-6" type="line"/>
      <point x="414" y="-93" type="line"/>
      <point x="414" y="-288" type="line"/>
      <point x="472" y="-346" type="line"/>
      <point x="472" y="-381"/>
      <point x="452" y="-441"/>
      <point x="417" y="-485"/>
      <point x="371" y="-510"/>
      <point x="346" y="-510" type="qcurve" smooth="yes"/>
      <point x="245" y="-510" type="line" smooth="yes"/>
      <point x="196" y="-510"/>
      <point x="164" y="-478" type="qcurve" smooth="yes"/>
      <point x="91" y="-405" type="line"/>
      <point x="68" y="-391"/>
      <point x="40" y="-341"/>
      <point x="40" y="-310" type="qcurve" smooth="yes"/>
      <point x="40" y="-268" type="line" smooth="yes"/>
      <point x="40" y="-244"/>
      <point x="58" y="-202"/>
      <point x="89" y="-172"/>
      <point x="131" y="-154"/>
      <point x="155" y="-154" type="qcurve" smooth="yes"/>
      <point x="163" y="-154" type="line"/>
      <point x="163" y="0" type="line"/>
      <point x="198" y="0" type="line"/>
      <point x="198" y="-189" type="line"/>
      <point x="155" y="-189" type="line" smooth="yes"/>
      <point x="121" y="-189"/>
      <point x="75" y="-235"/>
      <point x="75" y="-268" type="qcurve" smooth="yes"/>
    </contour>
  </outline>
</glyph>
<glyph name="Wdieresis" format="2">
  <advance width="1331"/>
  <unicode hex="1E84"/>
  <outline>
    <contour>
      <point x="321" y="911" type="qcurve" smooth="yes"/>
      <point x="321" y="935"/>
      <point x="339" y="978"/>
      <point x="370" y="1009"/>
      <point x="412" y="1027"/>
      <point x="436" y="1027" type="qcurve" smooth="yes"/>
      <point x="468" y="1027"/>
      <point x="520" y="997"/>
      <point x="535" y="971" type="qcurve"/>
      <point x="594" y="913" type="line"/>
      <point x="594" y="937"/>
      <point x="612" y="979"/>
      <point x="643" y="1009"/>
      <point x="685" y="1027"/>
      <point x="709" y="1027" type="qcurve" smooth="yes"/>
      <point x="741" y="1027"/>
      <point x="793" y="997"/>
      <point x="808" y="971" type="qcurve"/>
      <point x="879" y="901" type="line" smooth="yes"/>
      <point x="894" y="886"/>
      <point x="912" y="844"/>
      <point x="912" y="821" type="qcurve" smooth="yes"/>
      <point x="912" y="797"/>
      <point x="894" y="756"/>
      <point x="864" y="726"/>
      <point x="823" y="709"/>
      <point x="799" y="709" type="qcurve" smooth="yes"/>
      <point x="751" y="709"/>
      <point x="719" y="741" type="qcurve" smooth="yes"/>
      <point x="646" y="813" type="line"/>
      <point x="639" y="819" type="line"/>
      <point x="639" y="796"/>
      <point x="621" y="756"/>
      <point x="590" y="726"/>
      <point x="549" y="709"/>
      <point x="526" y="709" type="qcurve" smooth="yes"/>
      <point x="502" y="709"/>
      <point x="461" y="726"/>
      <point x="446" y="741" type="qcurve" smooth="yes"/>
      <point x="373" y="813" type="line"/>
      <point x="349" y="828"/>
      <point x="321" y="879"/>
    </contour>
    <contour>
      <point x="629" y="911" type="qcurve" smooth="yes"/>
      <point x="629" y="877"/>
      <point x="675" y="831"/>
      <point x="709" y="831" type="qcurve" smooth="yes"/>
      <point x="743" y="831"/>
      <point x="790" y="877"/>
      <point x="790" y="911" type="qcurve" smooth="yes"/>
      <point x="790" y="945"/>
      <point x="743" y="992"/>
      <point x="709" y="992" type="qcurve" smooth="yes"/>
      <point x="675" y="992"/>
      <point x="629" y="945"/>
    </contour>
    <contour>
      <point x="356" y="911" type="qcurve" smooth="yes"/>
      <point x="356" y="877"/>
      <point x="402" y="831"/>
      <point x="436" y="831" type="qcurve" smooth="yes"/>
      <point x="470" y="831"/>
      <point x="517" y="877"/>
      <point x="517" y="911" type="qcurve" smooth="yes"/>
      <point x="517" y="945"/>
      <point x="470" y="992"/>
      <point x="436" y="992" type="qcurve" smooth="yes"/>
      <point x="402" y="992"/>
      <point x="356" y="945"/>
    </contour>
    <contour>
      <point x="1271" y="724" type="line"/>
      <point x="1359" y="637" type="line"/>
      <point x="1018" y="-122" type="line"/>
      <point x="907" y="-122" type="line"/>
      <point x="820" y="-35" type="line"/>
      <point x="815" y="-35" type="line"/>
      <point x="675" y="275" type="line"/>
      <point x="496" y="-122" type="line"/>
      <point x="387" y="-122" type="line"/>
      <point x="300" y="-35" type="line"/>
      <point x="295" y="-35" type="line"/>
      <point x="-50" y="730" type="line"/>
      <point x="444" y="730" type="line"/>
      <point x="448" y="721" type="line"/>
      <point x="532" y="637" type="line"/>
      <point x="548" y="601" type="line"/>
      <point x="606" y="730" type="line"/>
      <point x="964" y="730" type="line"/>
      <point x="968" y="721" type="line"/>
      <point x="1052" y="637" type="line"/>
      <point x="1069" y="599" type="line"/>
      <point x="1083" y="632"/>
      <point x="1114" y="697"/>
      <point x="1128" y="730" type="qcurve"/>
      <point x="1274" y="730" type="line"/>
    </contour>
    <contour>
      <point x="1220" y="695" type="line"/>
      <point x="1151" y="695" type="line"/>
      <point x="1047" y="463" type="line"/>
      <point x="942" y="695" type="line"/>
      <point x="629" y="695" type="line"/>
      <point x="525" y="463" type="line"/>
      <point x="421" y="695" type="line"/>
      <point x="4" y="695" type="line"/>
      <point x="317" y="0" type="line"/>
      <point x="386" y="0" type="line"/>
      <point x="612" y="502" type="line"/>
      <point x="838" y="0" type="line"/>
      <point x="908" y="0" type="line"/>
    </contour>
  </outline>
</glyph>
<glyph name="wdieresis" format="2">
  <advance width="1331"/>
  <unicode hex="1E85"/>
  <outline>
    <contour>
      <point x="367" y="911" type="qcurve" smooth="yes"/>
      <point x="367" y="935"/>
      <point x="385" y="978"/>
      <point x="416" y="1009"/>
      <point x="458" y="1027"/>
      <point x="482" y="1027" type="qcurve" smooth="yes"/>
      <point x="514" y="1027"/>
      <point x="566" y="997"/>
      <point x="581" y="971" type="qcurve"/>
      <point x="640" y="913" type="line"/>
      <point x="640" y="937"/>
      <point x="658" y="979"/>
      <point x="689" y="1009"/>
      <point x="731" y="1027"/>
      <point x="755" y="1027" type="qcurve" smooth="yes"/>
      <point x="787" y="1027"/>
      <point x="839" y="997"/>
      <point x="854" y="971" type="qcurve"/>
      <point x="925" y="901" type="line" smooth="yes"/>
      <point x="940" y="886"/>
      <point x="958" y="844"/>
      <point x="958" y="821" type="qcurve" smooth="yes"/>
      <point x="958" y="797"/>
      <point x="940" y="756"/>
      <point x="910" y="726"/>
      <point x="869" y="709"/>
      <point x="845" y="709" type="qcurve" smooth="yes"/>
      <point x="797" y="709"/>
      <point x="765" y="741" type="qcurve" smooth="yes"/>
      <point x="692" y="813" type="line"/>
      <point x="685" y="819" type="line"/>
      <point x="685" y="796"/>
      <point x="667" y="756"/>
      <point x="636" y="726"/>
      <point x="595" y="709"/>
      <point x="572" y="709" type="qcurve" smooth="yes"/>
      <point x="524" y="709"/>
      <point x="492" y="741" type="qcurve" smooth="yes"/>
      <point x="419" y="813" type="line"/>
      <point x="395" y="828"/>
      <point x="367" y="879"/>
    </contour>
    <contour>
      <point x="675" y="911" type="qcurve" smooth="yes"/>
      <point x="675" y="877"/>
      <point x="721" y="831"/>
      <point x="755" y="831" type="qcurve" smooth="yes"/>
      <point x="789" y="831"/>
      <point x="836" y="877"/>
      <point x="836" y="911" type="qcurve" smooth="yes"/>
      <point x="836" y="945"/>
      <point x="789" y="992"/>
      <point x="755" y="992" type="qcurve" smooth="yes"/>
      <point x="721" y="992"/>
      <point x="675" y="945"/>
    </contour>
    <contour>
      <point x="402" y="911" type="qcurve" smooth="yes"/>
      <point x="402" y="877"/>
      <point x="448" y="831"/>
      <point x="482" y="831" type="qcurve" smooth="yes"/>
      <point x="516" y="831"/>
      <point x="563" y="877"/>
      <point x="563" y="911" type="qcurve" smooth="yes"/>
      <point x="563" y="945"/>
      <point x="516" y="992"/>
      <point x="482" y="992" type="qcurve" smooth="yes"/>
      <point x="448" y="992"/>
      <point x="402" y="945"/>
    </contour>
    <contour>
      <point x="1271" y="724" type="line"/>
      <point x="1359" y="637" type="line"/>
      <point x="1018" y="-122" type="line"/>
      <point x="907" y="-122" type="line"/>
      <point x="820" y="-35" type="line"/>
      <point x="815" y="-35" type="line"/>
      <point x="675" y="275" type="line"/>
      <point x="496" y="-122" type="line"/>
      <point x="387" y="-122" type="line"/>
      <point x="300" y="-35" type="line"/>
      <point x="295" y="-35" type="line"/>
      <point x="-50" y="730" type="line"/>
      <point x="444" y="730" type="line"/>
      <point x="448" y="721" type="line"/>
      <point x="532" y="637" type="line"/>
      <point x="548" y="601" type="line"/>
      <point x="606" y="730" type="line"/>
      <point x="964" y="730" type="line"/>
      <point x="968" y="721" type="line"/>
      <point x="1052" y="637" type="line"/>
      <point x="1069" y="599" type="line"/>
      <point x="1083" y="632"/>
      <point x="1114" y="697"/>
      <point x="1128" y="730" type="qcurve"/>
      <point x="1274" y="730" type="line"/>
    </contour>
    <contour>
      <point x="1220" y="695" type="line"/>
      <point x="1151" y="695" type="line"/>
      <point x="1047" y="463" type="line"/>
      <point x="942" y="695" type="line"/>
      <point x="629" y="695" type="line"/>
      <point x="525" y="463" type="line"/>
      <point x="421" y="695" type="line"/>
      <point x="4" y="695" type="line"/>
      <point x="317" y="0" type="line"/>
      <point x="386" y="0" type="line"/>
      <point x="612" y="502" type="line"/>
      <point x="838" y="0" type="line"/>
      <point x="908" y="0" type="line"/>
    </contour>
  </outline>
</glyph>
<glyph name="Ygrave" format="2">
  <advance width="499"/>
  <unicode hex="1EF2"/>
  <outline>
    <contour>
      <point x="74" y="985" type="line"/>
      <point x="268" y="1078" type="line"/>
      <point x="271" y="1068" type="line"/>
      <point x="356" y="984" type="line"/>
      <point x="440" y="751" type="line"/>
      <point x="300" y="696" type="line"/>
      <point x="212" y="783" type="line"/>
      <point x="209" y="782" type="line"/>
    </contour>
    <contour>
      <point x="223" y="826" type="line"/>
      <point x="309" y="860" type="line"/>
      <point x="248" y="1030" type="line"/>
      <point x="126" y="971" type="line"/>
    </contour>
  </outline>
</glyph>
<glyph name="ygrave" format="2">
  <advance width="482"/>
  <unicode hex="1EF3"/>
  <outline>
    <contour>
      <point x="49" y="990" type="line"/>
      <point x="243" y="1083" type="line"/>
      <point x="246" y="1073" type="line"/>
      <point x="331" y="989" type="line"/>
      <point x="415" y="756" type="line"/>
      <point x="275" y="701" type="line"/>
      <point x="187" y="788" type="line"/>
      <point x="184" y="787" type="line"/>
    </contour>
    <contour>
      <point x="198" y="831" type="line"/>
      <point x="284" y="865" type="line"/>
      <point x="223" y="1035" type="line"/>
      <point x="101" y="976" type="line"/>
    </contour>
  </outline>
</glyph>
<glyph name="endash" format="2">
  <advance width="841"/>
  <unicode hex="2013"/>
  <outline>
    <contour>
      <point x="734" y="389" type="line"/>
      <point x="821" y="302" type="line"/>
      <point x="821" y="163" type="line"/>
      <point x="120" y="163" type="line"/>
      <point x="33" y="250" type="line"/>
      <point x="27" y="250" type="line"/>
      <point x="27" y="395" type="line"/>
      <point x="734" y="395" type="line"/>
    </contour>
    <contour>
      <point x="699" y="360" type="line"/>
      <point x="62" y="360" type="line"/>
      <point x="62" y="285" type="line"/>
      <point x="699" y="285" type="line"/>
    </contour>
  </outline>
</glyph>
<glyph name="emdash" format="2">
  <advance width="1028"/>
  <unicode hex="2014"/>
  <outline>
    <contour>
      <point x="917" y="389" type="line"/>
      <point x="1004" y="302" type="line"/>
      <point x="1004" y="163" type="line"/>
      <point x="118" y="163" type="line"/>
      <point x="31" y="250" type="line"/>
      <point x="25" y="250" type="line"/>
      <point x="25" y="395" type="line"/>
      <point x="917" y="395" type="line"/>
    </contour>
    <contour>
      <point x="882" y="360" type="line"/>
      <point x="60" y="360" type="line"/>
      <point x="60" y="285" type="line"/>
      <point x="882" y="285" type="line"/>
    </contour>
  </outline>
</glyph>
<glyph name="quoteleft" format="2">
  <advance width="330"/>
  <unicode hex="2018"/>
  <outline>
    <contour>
      <point x="210" y="751" type="line"/>
      <point x="297" y="664" type="line"/>
      <point x="297" y="417" type="line"/>
      <point x="125" y="417" type="line"/>
      <point x="38" y="504" type="line"/>
      <point x="32" y="504" type="line"/>
      <point x="32" y="650" type="line"/>
      <point x="210" y="760" type="line"/>
    </contour>
    <contour>
      <point x="175" y="697" type="line"/>
      <point x="67" y="630" type="line"/>
      <point x="67" y="539" type="line"/>
      <point x="175" y="539" type="line"/>
    </contour>
  </outline>
</glyph>
<glyph name="quoteright" format="2">
  <advance width="313"/>
  <unicode hex="2019"/>
  <outline>
    <contour>
      <point x="26" y="732" type="line"/>
      <point x="204" y="732" type="line"/>
      <point x="204" y="726" type="line"/>
      <point x="291" y="639" type="line"/>
      <point x="291" y="498" type="line"/>
      <point x="119" y="392" type="line"/>
      <point x="31" y="479" type="line"/>
      <point x="26" y="476" type="line"/>
    </contour>
    <contour>
      <point x="61" y="539" type="line"/>
      <point x="169" y="606" type="line"/>
      <point x="169" y="697" type="line"/>
      <point x="61" y="697" type="line"/>
    </contour>
  </outline>
</glyph>
<glyph name="quotesinglbase" format="2">
  <advance width="333"/>
  <unicode hex="201A"/>
  <outline>
    <contour>
      <point x="27" y="127" type="line"/>
      <point x="205" y="127" type="line"/>
      <point x="205" y="121" type="line"/>
      <point x="292" y="34" type="line"/>
      <point x="292" y="-107" type="line"/>
      <point x="120" y="-213" type="line"/>
      <point x="32" y="-125" type="line"/>
      <point x="27" y="-129" type="line"/>
    </contour>
    <contour>
      <point x="62" y="-66" type="line"/>
      <point x="170" y="1" type="line"/>
      <point x="170" y="92" type="line"/>
      <point x="62" y="92" type="line"/>
    </contour>
  </outline>
</glyph>
<glyph name="quotedblleft" format="2">
  <advance width="477"/>
  <unicode hex="201C"/>
  <outline>
    <contour>
      <point x="365" y="751" type="line"/>
      <point x="452" y="664" type="line"/>
      <point x="452" y="417" type="line"/>
      <point x="122" y="417" type="line"/>
      <point x="35" y="504" type="line"/>
      <point x="29" y="504" type="line"/>
      <point x="29" y="650" type="line"/>
      <point x="207" y="760" type="line"/>
      <point x="207" y="751" type="line"/>
      <point x="261" y="695" type="line"/>
      <point x="365" y="760" type="line"/>
    </contour>
    <contour>
      <point x="172" y="697" type="line"/>
      <point x="64" y="630" type="line"/>
      <point x="64" y="539" type="line"/>
      <point x="172" y="539" type="line"/>
    </contour>
    <contour>
      <point x="330" y="697" type="line"/>
      <point x="222" y="630" type="line"/>
      <point x="222" y="539" type="line"/>
      <point x="330" y="539" type="line"/>
    </contour>
  </outline>
</glyph>
<glyph name="quotedblright" format="2">
  <advance width="488"/>
  <unicode hex="201D"/>
  <outline>
    <contour>
      <point x="30" y="732" type="line"/>
      <point x="366" y="732" type="line"/>
      <point x="366" y="726" type="line"/>
      <point x="453" y="639" type="line"/>
      <point x="453" y="498" type="line"/>
      <point x="281" y="392" type="line"/>
      <point x="221" y="452" type="line"/>
      <point x="123" y="392" type="line"/>
      <point x="35" y="479" type="line"/>
      <point x="30" y="476" type="line"/>
    </contour>
    <contour>
      <point x="223" y="539" type="line"/>
      <point x="331" y="606" type="line"/>
      <point x="331" y="697" type="line"/>
      <point x="223" y="697" type="line"/>
    </contour>
    <contour>
      <point x="65" y="539" type="line"/>
      <point x="173" y="606" type="line"/>
      <point x="173" y="697" type="line"/>
      <point x="65" y="697" type="line"/>
    </contour>
  </outline>
</glyph>
<glyph name="quotedblbase" format="2">
  <advance width="481"/>
  <unicode hex="201E"/>
  <outline>
    <contour>
      <point x="31" y="127" type="line"/>
      <point x="371" y="127" type="line"/>
      <point x="371" y="121" type="line"/>
      <point x="458" y="34" type="line"/>
      <point x="458" y="-107" type="line"/>
      <point x="286" y="-213" type="line"/>
      <point x="224" y="-151" type="line"/>
      <point x="124" y="-213" type="line"/>
      <point x="36" y="-125" type="line"/>
      <point x="31" y="-129" type="line"/>
    </contour>
    <contour>
      <point x="228" y="-66" type="line"/>
      <point x="336" y="1" type="line"/>
      <point x="336" y="92" type="line"/>
      <point x="228" y="92" type="line"/>
    </contour>
    <contour>
      <point x="66" y="-66" type="line"/>
      <point x="174" y="1" type="line"/>
      <point x="174" y="92" type="line"/>
      <point x="66" y="92" type="line"/>
    </contour>
  </outline>
</glyph>
<glyph name="bullet" format="2">
  <advance width="486"/>
  <unicode hex="2022"/>
  <outline>
    <contour>
      <point x="26" y="353" type="qcurve" smooth="yes"/>
      <point x="26" y="389"/>
      <point x="53" y="452"/>
      <point x="100" y="499"/>
      <point x="163" y="526"/>
      <point x="199" y="526" type="qcurve" smooth="yes"/>
      <point x="244" y="526"/>
      <point x="320" y="483"/>
      <point x="343" y="448" type="qcurve"/>
      <point x="409" y="383" type="line" smooth="yes"/>
      <point x="432" y="360"/>
      <point x="459" y="298"/>
      <point x="459" y="263" type="qcurve" smooth="yes"/>
      <point x="459" y="228"/>
      <point x="432" y="166"/>
      <point x="386" y="120"/>
      <point x="324" y="93"/>
      <point x="289" y="93" type="qcurve" smooth="yes"/>
      <point x="254" y="93"/>
      <point x="192" y="120"/>
      <point x="169" y="143" type="qcurve" smooth="yes"/>
      <point x="103" y="208" type="line"/>
      <point x="68" y="231"/>
      <point x="26" y="307"/>
    </contour>
    <contour>
      <point x="61" y="353" type="qcurve" smooth="yes"/>
      <point x="61" y="324"/>
      <point x="83" y="274"/>
      <point x="120" y="237"/>
      <point x="170" y="215"/>
      <point x="199" y="215" type="qcurve" smooth="yes"/>
      <point x="227" y="215"/>
      <point x="278" y="237"/>
      <point x="315" y="274"/>
      <point x="337" y="324"/>
      <point x="337" y="353" type="qcurve" smooth="yes"/>
      <point x="337" y="381"/>
      <point x="315" y="432"/>
      <point x="278" y="469"/>
      <point x="227" y="491"/>
      <point x="199" y="491" type="qcurve" smooth="yes"/>
      <point x="170" y="491"/>
      <point x="120" y="469"/>
      <point x="83" y="432"/>
      <point x="61" y="381"/>
    </contour>
  </outline>
</glyph>
<glyph name="ellipsis" format="2">
  <advance width="680"/>
  <unicode hex="2026"/>
  <outline>
    <contour>
      <point x="563" y="139" type="line"/>
      <point x="650" y="52" type="line"/>
      <point x="650" y="-120" type="line"/>
      <point x="478" y="-120" type="line"/>
      <point x="473" y="-115" type="line"/>
      <point x="473" y="-120" type="line"/>
      <point x="301" y="-120" type="line"/>
      <point x="296" y="-115" type="line"/>
      <point x="296" y="-120" type="line"/>
      <point x="124" y="-120" type="line"/>
      <point x="37" y="-33" type="line"/>
      <point x="31" y="-33" type="line"/>
      <point x="31" y="145" type="line"/>
      <point x="563" y="145" type="line"/>
    </contour>
    <contour>
      <point x="528" y="110" type="line"/>
      <point x="420" y="110" type="line"/>
      <point x="420" y="2" type="line"/>
      <point x="528" y="2" type="line"/>
    </contour>
    <contour>
      <point x="351" y="110" type="line"/>
      <point x="243" y="110" type="line"/>
      <point x="243" y="2" type="line"/>
      <point x="351" y="2" type="line"/>
    </contour>
    <contour>
      <point x="174" y="110" type="line"/>
      <point x="66" y="110" type="line"/>
      <point x="66" y="2" type="line"/>
      <point x="174" y="2" type="line"/>
    </contour>
  </outline>
</glyph>
<glyph name="guilsinglleft" format="2">
  <advance width="570"/>
  <unicode hex="2039"/>
  <outline>
    <contour>
      <point x="26" y="418" type="line"/>
      <point x="464" y="698" type="line"/>
      <point x="464" y="689" type="line"/>
      <point x="551" y="602" type="line"/>
      <point x="551" y="389" type="line"/>
      <point x="377" y="276" type="line"/>
      <point x="464" y="222" type="line"/>
      <point x="464" y="217" type="line"/>
      <point x="551" y="130" type="line"/>
      <point x="551" y="-84" type="line"/>
      <point x="119" y="193" type="line"/>
      <point x="40" y="272" type="line"/>
      <point x="26" y="281" type="line"/>
    </contour>
    <contour>
      <point x="61" y="300" type="line"/>
      <point x="429" y="64" type="line"/>
      <point x="429" y="202" type="line"/>
      <point x="372" y="237"/>
      <point x="257" y="314"/>
      <point x="200" y="349" type="qcurve"/>
      <point x="429" y="496" type="line"/>
      <point x="429" y="634" type="line"/>
      <point x="61" y="399" type="line"/>
    </contour>
  </outline>
</glyph>
<glyph name="guilsinglright" format="2">
  <advance width="591"/>
  <unicode hex="203A"/>
  <outline>
    <contour>
      <point x="465" y="413" type="line"/>
      <point x="552" y="326" type="line"/>
      <point x="552" y="193" type="line"/>
      <point x="120" y="-84" type="line"/>
      <point x="33" y="3" type="line"/>
      <point x="27" y="0" type="line"/>
      <point x="27" y="222" type="line"/>
      <point x="56" y="239"/>
      <point x="127" y="286"/>
      <point x="156" y="305" type="qcurve"/>
      <point x="156" y="304" type="line"/>
      <point x="203" y="334" type="line"/>
      <point x="120" y="389" type="line"/>
      <point x="41" y="468" type="line"/>
      <point x="27" y="477" type="line"/>
      <point x="27" y="698" type="line"/>
      <point x="465" y="418" type="line"/>
    </contour>
    <contour>
      <point x="430" y="399" type="line"/>
      <point x="62" y="634" type="line"/>
      <point x="62" y="496" type="line"/>
      <point x="291" y="349" type="line"/>
      <point x="234" y="314"/>
      <point x="119" y="237"/>
      <point x="62" y="202" type="qcurve"/>
      <point x="62" y="64" type="line"/>
      <point x="430" y="300" type="line"/>
    </contour>
  </outline>
</glyph>
<glyph name="Euro" format="2">
  <advance width="902"/>
  <unicode hex="20AC"/>
  <outline>
    <contour>
      <point x="34" y="180" type="line"/>
      <point x="28" y="180" type="line"/>
      <point x="28" y="325" type="line"/>
      <point x="74" y="325" type="line"/>
      <point x="34" y="365" type="line"/>
      <point x="28" y="365" type="line"/>
      <point x="28" y="510" type="line"/>
      <point x="108" y="510" type="line"/>
      <point x="112" y="556"/>
      <point x="154" y="636"/>
      <point x="218" y="696"/>
      <point x="302" y="730"/>
      <point x="350" y="730" type="qcurve" smooth="yes"/>
      <point x="789" y="730" type="line"/>
      <point x="789" y="724" type="line"/>
      <point x="876" y="637" type="line"/>
      <point x="876" y="503" type="line"/>
      <point x="789" y="503" type="line"/>
      <point x="876" y="417" type="line"/>
      <point x="876" y="278" type="line"/>
      <point x="830" y="278" type="line"/>
      <point x="876" y="232" type="line"/>
      <point x="876" y="93" type="line"/>
      <point x="794" y="93" type="line"/>
      <point x="876" y="11" type="line"/>
      <point x="876" y="-122" type="line"/>
      <point x="440" y="-122" type="line" smooth="yes"/>
      <point x="389" y="-122"/>
      <point x="302" y="-84"/>
      <point x="270" y="-52" type="qcurve" smooth="yes"/>
      <point x="207" y="10" type="line"/>
      <point x="162" y="43"/>
      <point x="135" y="93" type="qcurve"/>
      <point x="121" y="93" type="line"/>
    </contour>
    <contour>
      <point x="449" y="215" type="line"/>
      <point x="754" y="215" type="line"/>
      <point x="754" y="290" type="line"/>
      <point x="449" y="290" type="line"/>
      <point x="449" y="400" type="line"/>
      <point x="754" y="400" type="line"/>
      <point x="754" y="475" type="line"/>
      <point x="449" y="475" type="line"/>
      <point x="449" y="627" type="line"/>
      <point x="754" y="625" type="line"/>
      <point x="754" y="695" type="line"/>
      <point x="350" y="695" type="line" smooth="yes"/>
      <point x="307" y="695"/>
      <point x="231" y="662"/>
      <point x="175" y="605"/>
      <point x="142" y="529"/>
      <point x="142" y="486" type="qcurve" smooth="yes"/>
      <point x="142" y="475" type="line"/>
      <point x="63" y="475" type="line"/>
      <point x="63" y="400" type="line"/>
      <point x="142" y="400" type="line"/>
      <point x="142" y="290" type="line"/>
      <point x="63" y="290" type="line"/>
      <point x="63" y="215" type="line"/>
      <point x="142" y="215" type="line"/>
      <point x="142" y="208" type="line" smooth="yes"/>
      <point x="142" y="165"/>
      <point x="175" y="89"/>
      <point x="231" y="33"/>
      <point x="307" y="0"/>
      <point x="350" y="0" type="qcurve" smooth="yes"/>
      <point x="754" y="0" type="line"/>
      <point x="754" y="69" type="line"/>
      <point x="449" y="69" type="line"/>
    </contour>
  </outline>
</glyph>
<glyph name="trademark" format="2">
  <advance width="989"/>
  <unicode hex="2122"/>
  <outline>
    <contour>
      <point x="591" y="716" type="line"/>
      <point x="596" y="706" type="line"/>
      <point x="620" y="681" type="line"/>
      <point x="635" y="716" type="line"/>
      <point x="872" y="716" type="line"/>
      <point x="872" y="710" type="line"/>
      <point x="959" y="623" type="line"/>
      <point x="959" y="262" type="line"/>
      <point x="716" y="262" type="line"/>
      <point x="691" y="287" type="line"/>
      <point x="691" y="262" type="line"/>
      <point x="448" y="262" type="line"/>
      <point x="425" y="285" type="line"/>
      <point x="425" y="262" type="line"/>
      <point x="184" y="262" type="line"/>
      <point x="97" y="349" type="line"/>
      <point x="91" y="349" type="line"/>
      <point x="91" y="562" type="line"/>
      <point x="37" y="616" type="line"/>
      <point x="31" y="616" type="line"/>
      <point x="31" y="716" type="line"/>
    </contour>
    <contour>
      <point x="658" y="681" type="line"/>
      <point x="647" y="656"/>
      <point x="625" y="607"/>
      <point x="614" y="582" type="qcurve"/>
      <point x="569" y="681" type="line"/>
      <point x="390" y="681" type="line"/>
      <point x="390" y="384" type="line"/>
      <point x="569" y="384" type="line"/>
      <point x="569" y="615" type="line"/>
      <point x="614" y="516" type="line"/>
      <point x="658" y="615" type="line"/>
      <point x="658" y="384" type="line"/>
      <point x="837" y="384" type="line"/>
      <point x="837" y="681" type="line"/>
    </contour>
    <contour>
      <point x="66" y="681" type="line"/>
      <point x="66" y="651" type="line"/>
      <point x="126" y="651" type="line"/>
      <point x="126" y="384" type="line"/>
      <point x="303" y="384" type="line"/>
      <point x="303" y="651" type="line"/>
      <point x="363" y="651" type="line"/>
      <point x="363" y="681" type="line"/>
    </contour>
  </outline>
</glyph>
<glyph name="minus" format="2">
  <advance width="-638"/>
  <unicode hex="2212"/>
  <outline>
    <contour>
      <point x="-117" y="400" type="line"/>
      <point x="-30" y="313" type="line"/>
      <point x="-30" y="141" type="line"/>
      <point x="-518" y="141" type="line"/>
      <point x="-605" y="228" type="line"/>
      <point x="-611" y="228" type="line"/>
      <point x="-611" y="406" type="line"/>
      <point x="-117" y="406" type="line"/>
    </contour>
    <contour>
      <point x="-152" y="371" type="line"/>
      <point x="-576" y="371" type="line"/>
      <point x="-576" y="263" type="line"/>
      <point x="-152" y="263" type="line"/>
    </contour>
  </outline>
</glyph>
<glyph name="Germandbls" format="2">
  <advance width="869"/>
  <outline>
    <contour>
      <point x="759" y="293" type="line"/>
      <point x="760" y="293"/>
      <point x="760" y="292" type="qcurve"/>
    </contour>
    <contour>
      <point x="47" y="-35" type="line"/>
      <point x="41" y="-35" type="line"/>
      <point x="41" y="486" type="line" smooth="yes"/>
      <point x="41" y="537"/>
      <point x="79" y="626"/>
      <point x="145" y="692"/>
      <point x="233" y="730"/>
      <point x="284" y="730" type="qcurve" smooth="yes"/>
      <point x="712" y="730" type="line"/>
      <point x="712" y="724" type="line"/>
      <point x="799" y="637" type="line"/>
      <point x="799" y="430" type="line" smooth="yes"/>
      <point x="799" y="356"/>
      <point x="752" y="300" type="qcurve"/>
      <point x="760" y="292" type="line"/>
      <point x="768" y="285" type="line"/>
      <point x="834" y="219"/>
      <point x="834" y="120" type="qcurve" smooth="yes"/>
      <point x="834" y="70"/>
      <point x="797" y="-18"/>
      <point x="732" y="-84"/>
      <point x="644" y="-122"/>
      <point x="593" y="-122" type="qcurve" smooth="yes"/>
      <point x="134" y="-122" type="line"/>
    </contour>
    <contour>
      <point x="642" y="208" type="qcurve" smooth="yes"/>
      <point x="642" y="179"/>
      <point x="620" y="128"/>
      <point x="583" y="91"/>
      <point x="532" y="69"/>
      <point x="503" y="69" type="qcurve"/>
      <point x="503" y="347" type="line"/>
      <point x="532" y="347"/>
      <point x="583" y="325"/>
      <point x="620" y="288"/>
      <point x="642" y="237"/>
    </contour>
    <contour>
      <point x="607" y="521" type="line" smooth="yes"/>
      <point x="607" y="476"/>
      <point x="548" y="417"/>
      <point x="503" y="417" type="qcurve"/>
      <point x="503" y="625" type="line"/>
      <point x="607" y="625" type="line"/>
    </contour>
    <contour>
      <point x="612" y="386" type="qcurve"/>
      <point x="643" y="411"/>
      <point x="677" y="480"/>
      <point x="677" y="520" type="qcurve" smooth="yes"/>
      <point x="677" y="695" type="line"/>
      <point x="284" y="695" type="line" smooth="yes"/>
      <point x="241" y="695"/>
      <point x="165" y="662"/>
      <point x="109" y="605"/>
      <point x="76" y="529"/>
      <point x="76" y="486" type="qcurve" smooth="yes"/>
      <point x="76" y="0" type="line"/>
      <point x="503" y="0" type="line" smooth="yes"/>
      <point x="547" y="0"/>
      <point x="624" y="33"/>
      <point x="680" y="90"/>
      <point x="712" y="166"/>
      <point x="712" y="210" type="qcurve" smooth="yes"/>
      <point x="712" y="267"/>
      <point x="660" y="357"/>
    </contour>
  </outline>
</glyph>
<glyph name=".notdef" format="2">
  <advance width="728"/>
  <outline>
    <contour>
      <point x="680" y="790" type="line"/>
      <point x="680" y="-141" type="line"/>
      <point x="41" y="-141" type="line"/>
      <point x="41" y="790" type="line"/>
    </contour>
    <contour>
      <point x="581" y="-35" type="line"/>
      <point x="581" y="683" type="line"/>
      <point x="138" y="683" type="line"/>
      <point x="138" y="-35" type="line"/>
    </contour>
  </outline>
</glyph>
<glyph name="brevecomb" format="2">
  <advance width="622"/>
  <outline>
    <contour>
      <point x="192" y="827" type="line"/>
      <point x="148" y="858"/>
      <point x="94" y="966"/>
      <point x="94" y="1032" type="qcurve"/>
      <point x="258" y="1032" type="line"/>
      <point x="258" y="1026" type="line"/>
      <point x="304" y="980" type="line"/>
      <point x="312" y="1001"/>
      <point x="312" y="1032" type="qcurve"/>
      <point x="476" y="1032" type="line"/>
      <point x="476" y="1026" type="line"/>
      <point x="563" y="939" type="line"/>
      <point x="563" y="892"/>
      <point x="534" y="809"/>
      <point x="483" y="746"/>
      <point x="415" y="709"/>
      <point x="375" y="709" type="qcurve" smooth="yes"/>
      <point x="342" y="709"/>
      <point x="283" y="737"/>
      <point x="258" y="761" type="qcurve" smooth="yes"/>
    </contour>
    <contour>
      <point x="285" y="925" type="qcurve" smooth="yes"/>
      <point x="259" y="925"/>
      <point x="223" y="968"/>
      <point x="223" y="997" type="qcurve"/>
      <point x="129" y="997" type="line"/>
      <point x="129" y="963"/>
      <point x="154" y="903"/>
      <point x="197" y="858"/>
      <point x="253" y="831"/>
      <point x="285" y="831" type="qcurve" smooth="yes"/>
      <point x="318" y="831"/>
      <point x="375" y="858"/>
      <point x="417" y="903"/>
      <point x="441" y="963"/>
      <point x="441" y="997" type="qcurve"/>
      <point x="347" y="997" type="line"/>
      <point x="347" y="968"/>
      <point x="311" y="925"/>
    </contour>
  </outline>
</glyph>
<glyph name="caroncomb.alt" format="2">
  <advance width="605"/>
  <outline>
    <contour>
      <point x="163" y="796" type="line"/>
      <point x="158" y="796" type="line"/>
      <point x="67" y="1025" type="line"/>
      <point x="214" y="1083" type="line"/>
      <point x="225" y="1066" type="line"/>
      <point x="300" y="991" type="line"/>
      <point x="362" y="1083" type="line"/>
      <point x="508" y="1025" type="line"/>
      <point x="506" y="1020" type="line"/>
      <point x="594" y="933" type="line"/>
      <point x="505" y="709" type="line"/>
      <point x="250" y="709" type="line"/>
    </contour>
    <contour>
      <point x="287" y="908" type="line"/>
      <point x="199" y="1039" type="line"/>
      <point x="113" y="1005" type="line"/>
      <point x="182" y="831" type="line"/>
      <point x="393" y="831" type="line"/>
      <point x="462" y="1005" type="line"/>
      <point x="376" y="1039" type="line"/>
    </contour>
  </outline>
</glyph>
<glyph name="cedillacomb" format="2">
  <advance width="833"/>
  <outline>
    <contour>
      <point x="537" y="-268" type="line" smooth="yes"/>
      <point x="537" y="-235"/>
      <point x="491" y="-189"/>
      <point x="457" y="-189" type="qcurve" smooth="yes"/>
      <point x="414" y="-189" type="line"/>
      <point x="414" y="0" type="line"/>
      <point x="536" y="0" type="line"/>
      <point x="536" y="-184" type="line"/>
      <point x="542" y="-189"/>
      <point x="551" y="-202"/>
      <point x="556" y="-209" type="qcurve"/>
      <point x="627" y="-280" type="line" smooth="yes"/>
      <point x="659" y="-312"/>
      <point x="659" y="-358" type="qcurve" smooth="yes"/>
      <point x="659" y="-400" type="line" smooth="yes"/>
      <point x="659" y="-448"/>
      <point x="595" y="-510"/>
      <point x="547" y="-510" type="qcurve" smooth="yes"/>
      <point x="446" y="-510" type="line" smooth="yes"/>
      <point x="403" y="-510"/>
      <point x="369" y="-476" type="qcurve" smooth="yes"/>
      <point x="298" y="-405" type="line"/>
      <point x="266" y="-384"/>
      <point x="227" y="-304"/>
      <point x="227" y="-253" type="qcurve"/>
      <point x="285" y="-253" type="line"/>
      <point x="285" y="0" type="line"/>
      <point x="320" y="0" type="line"/>
      <point x="320" y="-224" type="line"/>
      <point x="427" y="-224" type="line"/>
      <point x="427" y="-253"/>
      <point x="426" y="-316"/>
      <point x="426" y="-345" type="qcurve"/>
      <point x="356" y="-345" type="line" smooth="yes"/>
      <point x="336" y="-345"/>
      <point x="308" y="-311"/>
      <point x="308" y="-288" type="qcurve"/>
      <point x="262" y="-288" type="line"/>
      <point x="262" y="-309"/>
      <point x="277" y="-346"/>
      <point x="303" y="-373"/>
      <point x="337" y="-388"/>
      <point x="356" y="-388" type="qcurve" smooth="yes"/>
      <point x="457" y="-388" type="line" smooth="yes"/>
      <point x="491" y="-388"/>
      <point x="537" y="-344"/>
      <point x="537" y="-310" type="qcurve" smooth="yes"/>
    </contour>
  </outline>
</glyph>
<glyph name="commaaccentcomb" format="2">
  <advance width="-316"/>
  <outline>
    <contour>
      <point x="-294" y="-140" type="line"/>
      <point x="-116" y="-140" type="line"/>
      <point x="-116" y="-146" type="line"/>
      <point x="-29" y="-233" type="line"/>
      <point x="-29" y="-374" type="line"/>
      <point x="-201" y="-480" type="line"/>
      <point x="-289" y="-392" type="line"/>
      <point x="-294" y="-396" type="line"/>
    </contour>
    <contour>
      <point x="-259" y="-333" type="line"/>
      <point x="-151" y="-266" type="line"/>
      <point x="-151" y="-175" type="line"/>
      <point x="-259" y="-175" type="line"/>
    </contour>
  </outline>
</glyph>
